<?xml version="1.0" standalone="no"?>
<!DOCTYPE svg PUBLIC "-//W3C//DTD SVG 1.1//EN" "http://www.w3.org/Graphics/SVG/1.1/DTD/svg11.dtd" >
<svg>
<metadata>
Created by FontForge 20090622 at Wed Mar 28 07:49:59 2018
 By deploy user
&#194;&#169; 2010 Microsoft Corporation. All Rights Reserved.
</metadata>
<defs>
<font id="Verdana-Bold" horiz-adv-x="0" >
  <font-face 
    font-family="Verdana"
    font-weight="700"
    font-stretch="normal"
    units-per-em="2048"
    panose-1="2 11 8 4 3 5 4 4 2 4"
    ascent="1638"
    descent="-410"
    x-height="1123"
    cap-height="1489"
    bbox="-1126 -621 3496 2195"
    underline-thickness="211"
    underline-position="-34"
    unicode-range="U+0020-U+FFFD"
  />
<missing-glyph horiz-adv-x="2048" 
d="M256 0v1536h1536v-1536h-1536zM384 128h1280v1280h-1280v-1280z" />
    <glyph glyph-name=".notdef" horiz-adv-x="2048" 
d="M256 0v1536h1536v-1536h-1536zM384 128h1280v1280h-1280v-1280z" />
    <glyph glyph-name=".null" 
 />
    <glyph glyph-name="nonmarkingreturn" horiz-adv-x="700" 
 />
    <glyph glyph-name="space" unicode=" " horiz-adv-x="700" 
 />
    <glyph glyph-name="space" unicode="&#xa0;" horiz-adv-x="700" 
 />
    <glyph glyph-name="exclam" unicode="!" horiz-adv-x="824" 
d="M621 1489l-46 -1060h-326l-46 1060h418zM614 0h-404v264h404v-264z" />
    <glyph glyph-name="quotedbl" unicode="&#x22;" horiz-adv-x="1203" 
d="M1036 1556l-60 -589h-226l-60 589h346zM513 1556l-60 -589h-226l-60 589h346z" />
    <glyph glyph-name="numbersign" unicode="#" horiz-adv-x="1776" 
d="M1624 905h-316l-78 -311h282v-240h-342l-91 -354h-241l89 354h-264l-89 -354h-245l90 354h-270v240h330l77 311h-293v239h353l86 345h245l-86 -345h263l87 345h245l-87 -345h255v-239zM1068 907h-268l-80 -316h269z" />
    <glyph glyph-name="dollar" unicode="$" horiz-adv-x="1456" 
d="M1340 429q0 -169 -142 -290t-377 -137v-363h-174v357q-112 1 -259 27t-230 65v292h45q92 -50 211.5 -80t237.5 -39v274l-97 22q-92 21 -169.5 49t-133.5 74t-87 113.5t-31 166.5q0 149 136 255t377 128v233h174v-231q92 -4 215.5 -26t194.5 -51v-288h-44q-71 41 -165 68
t-201 34v-254l80 -16q226 -44 332.5 -133.5t106.5 -249.5zM663 850v232q-66 -5 -118.5 -33.5t-52.5 -80.5q0 -47 34 -73t137 -45zM977 390q0 58 -53.5 86.5t-106.5 36.5v-248q66 9 113 38.5t47 86.5z" />
    <glyph glyph-name="percent" unicode="%" horiz-adv-x="2605" 
d="M1049 1036q0 -249 -115 -369t-335 -120q-227 0 -341.5 121.5t-114.5 363.5q0 247 117 366.5t339 119.5q224 0 337 -119.5t113 -362.5zM1829 1489l-780 -1489h-269l780 1489h269zM2462 458q0 -249 -115 -369t-335 -120q-227 0 -341.5 121.5t-114.5 363.5q0 247 117 366.5
t339 119.5q224 0 337 -119.5t113 -362.5zM754 1033q0 160 -37 216t-121 56t-121 -56t-37 -217t37 -217t121 -56t121 56t37 218zM2167 455q0 160 -37 216t-121 56t-121 -56t-37 -217t37 -217t121 -56t121 56t37 218z" />
    <glyph glyph-name="ampersand" unicode="&#x26;" horiz-adv-x="1766" 
d="M1802 0h-476l-139 126q-100 -79 -220.5 -118t-254.5 -39q-276 0 -433.5 127.5t-157.5 332.5q0 85 25 148t66 113q39 49 90 84t97 60q-42 31 -80 65t-66 74q-27 38 -42 85t-15 106q0 70 30 131.5t90 110.5q62 51 166.5 82.5t248.5 31.5q121 0 216 -24t160 -68
q61 -42 93.5 -101.5t32.5 -128.5q0 -46 -13.5 -101t-49.5 -104q-39 -52 -103 -97t-175 -80l306 -269v322h373v-111q0 -118 -40 -226t-110 -179l381 -333v-20zM860 1154q0 52 -16 82.5t-39 46.5q-24 16 -50 20t-42 4q-17 0 -38.5 -4t-47.5 -21q-21 -14 -37 -41.5t-16 -72.5
q0 -59 48 -114t125 -113q56 44 84.5 97.5t28.5 115.5zM1011 295l-427 379q-20 -20 -46 -71.5t-26 -114.5q0 -67 26 -115.5t64 -79.5q40 -32 89 -48t96 -16q68 0 120.5 13.5t103.5 52.5z" />
    <glyph glyph-name="quotesingle" unicode="'" horiz-adv-x="680" 
d="M513 1556l-60 -589h-226l-60 589h346z" />
    <glyph glyph-name="parenleft" unicode="(" horiz-adv-x="1113" 
d="M947 -412h-377q-192 225 -284.5 463t-92.5 521t92.5 521t284.5 463h377v-29q-81 -73 -154.5 -165.5t-136.5 -216.5q-60 -119 -97.5 -264t-37.5 -309q0 -171 36.5 -310t98.5 -263q60 -118 135.5 -214.5t155.5 -167.5v-29z" />
    <glyph glyph-name="parenright" unicode=")" horiz-adv-x="1113" 
d="M920 572q0 -283 -92.5 -521t-284.5 -463h-377v29q80 71 156 167t135 215q62 124 98.5 263t36.5 310q0 164 -37.5 309t-97.5 264q-63 124 -136.5 216.5t-154.5 165.5v29h377q192 -225 284.5 -463t92.5 -521z" />
    <glyph glyph-name="asterisk" unicode="*" horiz-adv-x="1456" 
d="M1252 836l-111 -165l-320 218l11 -355h-213l8 346l-314 -210l-109 166l355 209l-354 211l108 167l313 -213l-7 346h212l-8 -347l317 211l111 -166l-358 -208z" />
    <glyph glyph-name="plus" unicode="+" horiz-adv-x="1776" 
d="M1558 528h-533v-528h-274v528h-533v268h533v528h274v-528h533v-268z" />
    <glyph glyph-name="comma" unicode="," horiz-adv-x="740" 
d="M618 393l-360 -763h-223l197 763h386z" />
    <glyph glyph-name="hyphen" unicode="-" horiz-adv-x="983" 
d="M873 518h-763v288h763v-288z" />
    <glyph glyph-name="hyphen" unicode="&#xad;" horiz-adv-x="983" 
d="M873 518h-763v288h763v-288z" />
    <glyph glyph-name="period" unicode="." horiz-adv-x="740" 
d="M557 0h-374v393h374v-393z" />
    <glyph glyph-name="slash" unicode="/" horiz-adv-x="1412" 
d="M1223 1556l-793 -1880h-307l790 1880h310z" />
    <glyph glyph-name="zero" unicode="0" horiz-adv-x="1456" 
d="M1344 745q0 -188 -34 -336.5t-106 -243.5q-74 -97 -190 -146.5t-286 -49.5q-167 0 -285 50t-191 148q-74 98 -107 243.5t-33 333.5q0 194 34 337t108 242q74 98 192 147t282 49q171 0 287 -50.5t190 -150.5q73 -98 106 -241.5t33 -331.5zM957 745q0 270 -53 384.5
t-176 114.5t-176 -114.5t-53 -386.5q0 -265 54 -382t175 -117t175 117t54 384z" />
    <glyph glyph-name="one" unicode="1" horiz-adv-x="1456" 
d="M1260 0h-994v260h314v787h-314v243q72 0 138 8.5t110 29.5q52 25 78 65t30 100h331v-1233h307v-260z" />
    <glyph glyph-name="two" unicode="2" horiz-adv-x="1456" 
d="M1354 0h-1169v246q134 97 268.5 206t215.5 188q121 117 172 204t51 172q0 102 -65.5 157.5t-188.5 55.5q-92 0 -193.5 -38t-188.5 -97h-32v331q71 31 209.5 62t277.5 31q280 0 427 -117.5t147 -332.5q0 -141 -70.5 -268t-215.5 -262q-91 -84 -183 -154.5l-131 -98.5h669
v-285z" />
    <glyph glyph-name="three" unicode="3" horiz-adv-x="1456" 
d="M1208 698q49 -42 78 -98t29 -149q0 -105 -41.5 -196t-127.5 -156q-84 -63 -197.5 -96.5t-275.5 -33.5q-185 0 -317.5 29t-215.5 65v327h39q86 -52 205.5 -90t218.5 -38q58 0 126 9.5t115 41.5q37 25 59 60.5t22 102.5q0 65 -30 100.5t-79 50.5q-49 16 -118 17.5t-128 1.5
h-82v266h85q78 0 138 5t102 23q44 19 66 50.5t22 92.5q0 45 -23 72.5t-58 43.5q-39 18 -92 24t-91 6q-94 0 -204 -32.5t-213 -93.5h-37v323q82 33 223 63.5t286 30.5q141 0 247 -24.5t175 -65.5q82 -49 122 -119t40 -164q0 -124 -77 -221.5t-203 -124.5v-14q51 -7 108 -28
t104 -61z" />
    <glyph glyph-name="four" unicode="4" horiz-adv-x="1456" 
d="M1375 343h-203v-347h-367v347h-721v282l697 864h391v-874h203v-272zM805 615v538l-433 -538h433z" />
    <glyph glyph-name="five" unicode="5" horiz-adv-x="1456" 
d="M1322 504q0 -116 -43.5 -215.5t-126.5 -170.5q-92 -76 -211.5 -112.5t-272.5 -36.5q-179 1 -302.5 28.5t-201.5 61.5v329h42q91 -54 196 -90t209 -36q63 0 136.5 14.5t116.5 52.5q34 31 51.5 63t17.5 99q0 52 -23.5 89.5t-60.5 60.5q-54 33 -130 43.5t-138 10.5
q-90 0 -172.5 -15.5t-144.5 -30.5h-44v840h1059v-285h-698v-243q31 2 78.5 3.5t83.5 1.5q123 0 219.5 -23.5t166.5 -65.5q91 -55 142 -145.5t51 -227.5z" />
    <glyph glyph-name="six" unicode="6" horiz-adv-x="1456" 
d="M1352 507q0 -115 -42 -216t-118 -170q-81 -74 -187.5 -113t-249.5 -39q-134 0 -244.5 36.5t-189.5 111.5q-91 86 -139 222t-48 325q0 196 45 348t147 269q98 112 254.5 174t372.5 62q73 0 160 -10t113 -15v-293h-38q-27 13 -91.5 29.5t-146.5 16.5q-192 0 -299 -94
t-129 -262q77 46 162.5 74.5t184.5 28.5q87 0 161.5 -20t138.5 -64q83 -58 133 -156t50 -245zM897 282q31 34 49.5 80.5t18.5 126.5q0 73 -21 119.5t-58 74.5q-36 28 -85 38.5t-101 10.5q-44 0 -92 -10t-88 -25q0 -10 -1 -33t-1 -58q0 -123 24.5 -202.5t65.5 -121.5
q28 -31 66 -45.5t82 -14.5q33 0 73 15t68 45z" />
    <glyph glyph-name="seven" unicode="7" horiz-adv-x="1456" 
d="M1323 1193l-674 -1193h-428l700 1204h-765v285h1167v-296z" />
    <glyph glyph-name="eight" unicode="8" horiz-adv-x="1456" 
d="M1357 416q0 -198 -168.5 -324t-462.5 -126q-165 0 -283 34t-195 94q-76 59 -112.5 138t-36.5 170q0 112 65.5 198.5t226.5 151.5v6q-130 60 -191 151t-61 211q0 177 164 290t427 113q276 0 432.5 -102.5t156.5 -273.5q0 -106 -66 -189t-202 -141v-6q156 -59 231 -159
t75 -236zM944 1104q0 76 -58.5 121t-155.5 45q-36 0 -73.5 -9t-68.5 -26q-29 -17 -48 -44.5t-19 -62.5q0 -59 33.5 -92t109.5 -66q28 -12 76.5 -29.5t117.5 -39.5q46 54 66 97t20 106zM975 399q0 72 -36 109t-148 85q-33 15 -96 37l-106 38q-43 -39 -77.5 -94.5
t-34.5 -124.5q0 -104 74.5 -165.5t194.5 -61.5q32 0 75 9.5t74 29.5q36 23 58 54t22 84z" />
    <glyph glyph-name="nine" unicode="9" horiz-adv-x="1456" 
d="M1322 828q0 -187 -48 -348t-146 -271q-106 -119 -263 -178.5t-366 -59.5q-74 0 -160 9t-113 16v293h40q30 -14 85.5 -30t151.5 -16q78 0 153 19.5t129 61.5q59 45 97 112.5t51 162.5q-87 -50 -161.5 -76.5t-185.5 -26.5q-84 0 -160.5 20.5t-139.5 63.5
q-83 59 -132.5 155.5t-49.5 243.5q0 239 166.5 389.5t436.5 150.5q139 0 246.5 -36.5t185.5 -111.5q91 -86 137 -219t46 -324zM939 884q0 122 -23.5 200.5t-64.5 121.5q-29 32 -67 46t-80 14q-39 0 -74.5 -13.5t-68.5 -46.5q-31 -32 -50.5 -84t-19.5 -124q0 -70 21 -117.5
t58 -75.5q35 -27 82.5 -38t103.5 -11q45 0 98 11.5t82 23.5q0 11 1.5 31.5t1.5 61.5z" />
    <glyph glyph-name="colon" unicode=":" horiz-adv-x="824" 
d="M599 730h-374v393h374v-393zM599 0h-374v393h374v-393z" />
    <glyph glyph-name="semicolon" unicode=";" horiz-adv-x="824" 
d="M599 730h-374v393h374v-393zM660 393l-360 -763h-223l197 763h386z" />
    <glyph glyph-name="semicolon" unicode="&#x37e;" horiz-adv-x="824" 
d="M599 730h-374v393h374v-393zM660 393l-360 -763h-223l197 763h386z" />
    <glyph glyph-name="less" unicode="&#x3c;" horiz-adv-x="1776" 
d="M1540 -7l-1336 555v228l1336 555v-287l-935 -383l935 -381v-287z" />
    <glyph glyph-name="equal" unicode="=" horiz-adv-x="1776" 
d="M1527 791h-1278v268h1278v-268zM1527 265h-1278v268h1278v-268z" />
    <glyph glyph-name="greater" unicode="&#x3e;" horiz-adv-x="1776" 
d="M1572 548l-1336 -555v287l935 382l-935 382v287l1336 -555v-228z" />
    <glyph glyph-name="question" unicode="?" horiz-adv-x="1263" 
d="M1151 1125q0 -101 -29.5 -178.5t-83.5 -134.5t-129.5 -102t-170.5 -82v-228h-352v337q71 19 128.5 39t120.5 65q59 40 92.5 93t33.5 120q0 100 -64.5 142.5t-181.5 42.5q-72 0 -162.5 -31t-165.5 -80h-40v305q64 27 197 56.5t270 29.5q247 0 392 -109t145 -285zM766 0
h-404v264h404v-264z" />
    <glyph glyph-name="at" unicode="@" horiz-adv-x="1974" 
d="M1589 1282q112 -112 175.5 -268.5t63.5 -350.5q0 -140 -40 -284.5t-100 -239.5h-506l-16 78q-57 -38 -110 -60.5t-153 -22.5q-163 0 -264 134.5t-101 362.5q0 122 34 213.5t93 159.5q55 64 133 100t155 36q66 0 117 -24.5t79 -51.5v62h232v-816h170q36 79 53.5 171.5
t17.5 177.5q0 169 -47 296.5t-130 211.5q-85 86 -199 128t-247 42q-127 0 -241.5 -50t-201.5 -135q-89 -87 -144.5 -218t-55.5 -287q0 -170 52.5 -301t139.5 -218q87 -86 202 -131t243 -45q85 0 193.5 15.5t192.5 40.5v-194q-93 -21 -185 -32t-201 -11q-183 0 -338.5 63
t-269.5 179q-113 115 -176.5 278t-63.5 356q0 186 66 344.5t182 276.5q113 116 270.5 183t334.5 67q176 0 328.5 -62t262.5 -174zM1144 404v504q-41 21 -76 30.5t-79 9.5q-96 0 -148 -84t-52 -230q0 -158 43 -234t142 -76q52 0 91 20.5t79 59.5z" />
    <glyph glyph-name="A" unicode="A" horiz-adv-x="1590" 
d="M1566 0h-397l-103 301h-552l-103 -301h-387l550 1489h442zM973 574l-183 534l-183 -534h366z" />
    <glyph glyph-name="B" unicode="B" horiz-adv-x="1560" 
d="M1464 456q0 -108 -43.5 -193t-119.5 -141q-88 -66 -193.5 -94t-267.5 -28h-650v1489h578q180 0 263.5 -12t165.5 -53q85 -43 126.5 -115.5t41.5 -165.5q0 -108 -57 -190.5t-161 -128.5v-8q146 -29 231.5 -120t85.5 -240zM972 1068q0 37 -18.5 74t-65.5 55
q-42 16 -104.5 17.5t-175.5 1.5h-36v-315h60q91 0 155 3t101 20q52 23 68 59.5t16 84.5zM1066 462q0 71 -27.5 109.5t-93.5 57.5q-45 13 -124 14t-165 1h-84v-371h28q162 0 232 1t129 26q60 25 82.5 66.5t22.5 95.5z" />
    <glyph glyph-name="C" unicode="C" horiz-adv-x="1482" 
d="M863 -29q-166 0 -306.5 49t-241.5 146t-156.5 242t-55.5 335q0 177 53 321t154 247q97 99 240.5 153t313.5 54q94 0 169.5 -10.5t139.5 -27.5q67 -19 121.5 -42.5t95.5 -43.5v-361h-44q-28 24 -70.5 57t-96.5 65q-55 32 -119 54t-137 22q-81 0 -154 -25.5t-135 -84.5
q-59 -57 -95.5 -151t-36.5 -228q0 -140 39.5 -234t99.5 -148q61 -55 136 -78.5t148 -23.5q70 0 138.5 21t126.5 57q49 29 91 62t69 57h40v-356l-107 -47t-107 -38q-73 -21 -137 -32t-176 -11z" />
    <glyph glyph-name="D" unicode="D" horiz-adv-x="1700" 
d="M1597 743q0 -208 -95 -372.5t-240 -252.5q-109 -66 -239 -92t-308 -26h-525v1489h540q182 0 314 -30.5t222 -86.5q154 -94 242.5 -253.5t88.5 -375.5zM1200 746q0 147 -53.5 251.5t-169.5 163.5q-59 29 -120.5 39.5t-185.5 10.5h-97v-932h97q137 0 201 12.5t125 45.5
q105 60 154 160.5t49 248.5z" />
    <glyph glyph-name="E" unicode="E" horiz-adv-x="1399" 
d="M1267 0h-1077v1489h1077v-288h-695v-257h645v-288h-645v-368h695v-288z" />
    <glyph glyph-name="F" unicode="F" horiz-adv-x="1332" 
d="M1257 1201h-685v-277h635v-288h-635v-636h-382v1489h1067v-288z" />
    <glyph glyph-name="G" unicode="G" horiz-adv-x="1661" 
d="M1507 85q-100 -39 -265 -77.5t-329 -38.5q-380 0 -595 206.5t-215 570.5q0 347 217 559.5t605 212.5q147 0 280 -26.5t296 -105.5v-349h-43l-82 59.5t-104 65.5q-58 32 -135.5 55t-164.5 23q-102 0 -185 -30t-149 -92q-63 -60 -99.5 -152.5t-36.5 -213.5q0 -247 131 -378
t387 -131q22 0 48.5 1t48.5 3v292h-297v281h687v-735z" />
    <glyph glyph-name="H" unicode="H" horiz-adv-x="1715" 
d="M1525 0h-384v656h-567v-656h-384v1489h384v-545h567v545h384v-1489z" />
    <glyph glyph-name="I" unicode="I" horiz-adv-x="1118" 
d="M995 0h-872v264h244v961h-244v264h872v-264h-244v-961h244v-264z" />
    <glyph glyph-name="J" unicode="J" horiz-adv-x="1137" 
d="M966 437q0 -98 -35 -183.5t-104 -144.5q-73 -63 -176 -97.5t-255 -34.5q-103 0 -194 7.5t-160 21.5v302h36q48 -18 100 -33.5t133 -15.5q105 0 161.5 28t80.5 78q23 49 26 107.5t3 149.5v593h-341v274h725v-1052z" />
    <glyph glyph-name="K" unicode="K" horiz-adv-x="1579" 
d="M1580 0h-471l-445 596l-90 -109v-487h-384v1489h384v-674l532 674h445l-582 -689z" />
    <glyph glyph-name="L" unicode="L" horiz-adv-x="1305" 
d="M1264 0h-1074v1489h384v-1201h690v-288z" />
    <glyph glyph-name="M" unicode="M" horiz-adv-x="1941" 
d="M1751 0h-382v997l-276 -647h-265l-276 647v-997h-362v1489h446l335 -747l334 747h446v-1489z" />
    <glyph glyph-name="N" unicode="N" horiz-adv-x="1734" 
d="M1544 0h-370l-632 1022v-1022h-352v1489h459l543 -853v853h352v-1489z" />
    <glyph glyph-name="O" unicode="O" horiz-adv-x="1741" 
d="M1638 744q0 -356 -204 -565.5t-564 -209.5q-359 0 -563 209.5t-204 565.5q0 359 204 567.5t563 208.5q358 0 563 -208.5t205 -567.5zM1129 367q56 68 83 160.5t27 217.5q0 134 -31 228t-81 152q-51 60 -117.5 87t-138.5 27q-73 0 -137.5 -26t-118.5 -86
q-50 -56 -81.5 -154.5t-31.5 -228.5q0 -133 30.5 -226.5t80.5 -152.5t117 -87t141 -28t141 28.5t117 88.5z" />
    <glyph glyph-name="P" unicode="P" horiz-adv-x="1501" 
d="M1419 1019q0 -100 -35 -195.5t-100 -160.5q-89 -88 -198.5 -133t-272.5 -45h-239v-485h-384v1489h632q142 0 239.5 -24.5t172.5 -73.5q90 -59 137.5 -151t47.5 -221zM1022 1010q0 63 -34 108.5t-79 63.5q-60 24 -117 26.5t-152 2.5h-66v-446h110q98 0 161.5 12t106.5 48
q37 32 53.5 76.5t16.5 108.5z" />
    <glyph glyph-name="Q" unicode="Q" horiz-adv-x="1741" 
d="M1129 367q56 68 83 160.5t27 217.5q0 134 -31 228t-81 152q-51 60 -117.5 87t-138.5 27q-73 0 -137.5 -26t-118.5 -86q-50 -56 -81.5 -154.5t-31.5 -228.5q0 -133 30.5 -226.5t80.5 -152.5t117 -87t141 -28t141 28.5t117 88.5zM1170 18q4 -99 54 -142t171 -43q41 0 97 14
t78 25h38v-264q-56 -13 -121.5 -23t-200.5 -10q-119 0 -207.5 29.5t-147.5 83.5q-58 53 -87 125t-34 160q-334 19 -520.5 223.5t-186.5 547.5q0 359 204 567.5t563 208.5q358 0 563 -208.5t205 -567.5q0 -265 -120 -457.5t-348 -268.5z" />
    <glyph glyph-name="R" unicode="R" horiz-adv-x="1602" 
d="M1025 1033q0 56 -23 96t-79 63q-39 16 -91 19.5t-121 3.5h-139v-401h118q92 0 154 9t104 41q40 31 58.5 68.5t18.5 100.5zM1624 0h-469l-406 546h-177v-546h-382v1489h644q132 0 227 -15t178 -65q84 -50 133.5 -129.5t49.5 -199.5q0 -165 -76.5 -269t-218.5 -173z" />
    <glyph glyph-name="S" unicode="S" horiz-adv-x="1455" 
d="M1382 468q0 -220 -186.5 -357.5t-506.5 -137.5q-185 0 -322.5 32.5t-257.5 82.5v357h42q119 -95 266.5 -146t283.5 -51q35 0 92 6t93 20q44 18 72.5 45t28.5 80q0 49 -41.5 84.5t-121.5 54.5q-84 20 -177.5 37.5t-175.5 44.5q-188 61 -270.5 165.5t-82.5 259.5
q0 208 186.5 339.5t479.5 131.5q147 0 290.5 -28.5t248.5 -71.5v-343h-41q-90 72 -220.5 120.5t-266.5 48.5q-48 0 -95.5 -6.5t-91.5 -24.5q-39 -15 -67 -45.5t-28 -69.5q0 -59 45 -90.5t170 -57.5l157.5 -33t162.5 -44q171 -56 252.5 -152.5t81.5 -250.5z" />
    <glyph glyph-name="T" unicode="T" horiz-adv-x="1396" 
d="M1355 1201h-465v-1201h-384v1201h-465v288h1314v-288z" />
    <glyph glyph-name="U" unicode="U" horiz-adv-x="1663" 
d="M1494 539q0 -276 -168 -423t-495 -147t-494.5 147t-167.5 422v951h386v-929q0 -155 65 -231t211 -76q144 0 210.5 73t66.5 234v929h386v-950z" />
    <glyph glyph-name="V" unicode="V" horiz-adv-x="1564" 
d="M1540 1489l-543 -1489h-430l-543 1489h403l360 -1046l360 1046h393z" />
    <glyph glyph-name="W" unicode="W" horiz-adv-x="2311" 
d="M2245 1489l-401 -1489h-425l-267 970l-260 -970h-425l-401 1489h401l229 -1025l274 1025h383l261 -1025l240 1025h391z" />
    <glyph glyph-name="X" unicode="X" horiz-adv-x="1564" 
d="M1540 0h-444l-321 490l-327 -490h-424l528 750l-517 739h443l310 -464l319 464h425l-520 -724z" />
    <glyph glyph-name="Y" unicode="Y" horiz-adv-x="1509" 
d="M1500 1489l-549 -913v-576h-384v558l-558 931h436l322 -576l311 576h422z" />
    <glyph glyph-name="Z" unicode="Z" horiz-adv-x="1417" 
d="M1341 0h-1251v279l742 922h-706v288h1175v-284l-741 -917h781v-288z" />
    <glyph glyph-name="bracketleft" unicode="[" horiz-adv-x="1113" 
d="M916 -392h-668v1948h668v-240h-355v-1468h355v-240z" />
    <glyph glyph-name="backslash" unicode="\" horiz-adv-x="1412" 
d="M1289 -324h-307l-793 1880h310z" />
    <glyph glyph-name="bracketright" unicode="]" horiz-adv-x="1113" 
d="M866 -392h-668v240h355v1468h-355v240h668v-1948z" />
    <glyph glyph-name="asciicircum" unicode="^" horiz-adv-x="1776" 
d="M1580 642h-320l-388 567l-357 -569h-318l550 849h249z" />
    <glyph glyph-name="underscore" unicode="_" horiz-adv-x="1456" 
d="M1472 -350h-1488v211h1488v-211z" />
    <glyph glyph-name="grave" unicode="`" horiz-adv-x="1456" 
d="M972 1283h-246l-352 373v20h351z" />
    <glyph glyph-name="a" unicode="a" horiz-adv-x="1368" 
d="M850 293v234q-73 -6 -158 -16.5t-129 -24.5q-54 -17 -82.5 -49.5t-28.5 -85.5q0 -35 6 -57t30 -42q23 -20 55 -29.5t100 -9.5q54 0 109.5 22t97.5 58zM850 119l-72 -53t-81 -49q-53 -24 -110 -35.5t-125 -11.5q-160 0 -268 99t-108 253q0 123 55 201t156 123
q100 45 248 64t307 28v6q0 93 -76 128.5t-224 35.5q-89 0 -190 -31.5t-145 -48.5h-33v271q57 15 185.5 35.5t257.5 20.5q307 0 443.5 -94.5t136.5 -296.5v-764h-357v119z" />
    <glyph glyph-name="b" unicode="b" horiz-adv-x="1432" 
d="M1342 577q0 -265 -146.5 -432t-365.5 -167q-94 0 -165 20t-135 58l-15 -56h-345v1556h360v-550q83 66 169.5 107t199.5 41q213 0 328 -153.5t115 -423.5zM971 570q0 150 -51 231t-182 81q-51 0 -105 -15.5t-103 -44.5v-564q39 -14 74 -19t84 -5q143 0 213 84t70 252z" />
    <glyph glyph-name="c" unicode="c" horiz-adv-x="1205" 
d="M755 -30q-147 0 -268.5 35t-211.5 108q-89 73 -138 184t-49 260q0 157 52.5 271t146.5 189q91 71 210 104t247 33q115 0 212 -25t181 -65v-307h-51l-50.5 42t-72.5 47q-41 22 -90 36.5t-114 14.5q-144 0 -221.5 -91.5t-77.5 -248.5q0 -162 79.5 -246t225.5 -84
q68 0 122.5 15.5t90.5 36.5q34 20 60 42t48 43h51v-307q-85 -40 -177.5 -63.5t-204.5 -23.5z" />
    <glyph glyph-name="d" unicode="d" horiz-adv-x="1432" 
d="M1262 0h-360v117q-93 -76 -174 -112t-187 -36q-205 0 -328 158t-123 426q0 143 41.5 253.5t113.5 189.5q68 75 165 116.5t194 41.5q101 0 165.5 -21.5t132.5 -54.5v478h360v-1556zM902 310v551q-38 16 -80 23t-77 7q-142 0 -213 -88.5t-71 -245.5q0 -165 57 -239.5
t183 -74.5q49 0 104 18.5t97 48.5z" />
    <glyph glyph-name="e" unicode="e" horiz-adv-x="1360" 
d="M1276 495h-824q8 -132 100.5 -202t272.5 -70q114 0 221 41t169 88h40v-289q-122 -49 -230 -71t-239 -22q-338 0 -518 152t-180 433q0 278 170.5 440.5t467.5 162.5q274 0 412 -138.5t138 -398.5v-126zM918 706q-3 113 -56 170t-165 57q-104 0 -171 -54t-75 -173h467z" />
    <glyph glyph-name="f" unicode="f" horiz-adv-x="865" 
d="M898 1292h-27q-24 7 -62.5 16t-82.5 9q-106 0 -143.5 -38t-37.5 -147v-9h278v-244h-266v-879h-360v879h-154v244h154v31q0 206 109.5 309t331.5 103q80 0 145 -5.5t115 -14.5v-254z" />
    <glyph glyph-name="g" unicode="g" horiz-adv-x="1432" 
d="M1262 129q0 -158 -45 -266t-126 -169q-81 -62 -195.5 -89.5t-258.5 -27.5q-117 0 -230.5 14t-196.5 34v281h44q66 -26 161 -47.5t170 -21.5q100 0 162.5 18.5t95.5 52.5q31 32 45 82t14 120v21q-65 -53 -144 -84t-176 -31q-236 0 -364 142t-128 432q0 139 39 240t110 176
q66 70 162.5 109t197.5 39q91 0 165.5 -21.5t135.5 -59.5l13 50h349v-994zM902 354v509q-31 13 -76 20.5t-81 7.5q-142 0 -213 -81.5t-71 -227.5q0 -162 60.5 -226t179.5 -64q54 0 106 17t95 45z" />
    <glyph glyph-name="h" unicode="h" horiz-adv-x="1459" 
d="M1298 0h-362v557q0 68 -7 135.5t-24 99.5q-20 37 -58.5 54t-107.5 17q-49 0 -99.5 -16t-109.5 -51v-796h-360v1556h360v-557q96 75 184.5 115t196.5 40q182 0 284.5 -106t102.5 -317v-731z" />
    <glyph glyph-name="i" unicode="i" horiz-adv-x="700" 
d="M530 0h-360v1123h360v-1123zM540 1283h-380v273h380v-273z" />
    <glyph glyph-name="j" unicode="j" horiz-adv-x="825" 
d="M656 -20q0 -190 -117 -296.5t-301 -106.5q-98 0 -178.5 8.5t-117.5 17.5v258h28q30 -10 75 -17t71 -7q104 0 142 62t38 204v776h-213v244h573v-1143zM656 1283h-383v273h383v-273z" />
    <glyph glyph-name="k" unicode="k" horiz-adv-x="1374" 
d="M1362 0h-419l-315 489l-98 -119v-370h-360v1556h360v-929l388 496h415l-404 -484z" />
    <glyph glyph-name="l" unicode="l" horiz-adv-x="700" 
d="M530 0h-360v1556h360v-1556z" />
    <glyph glyph-name="m" unicode="m" horiz-adv-x="2167" 
d="M1268 796v-796h-362v561q0 82 -4 139.5t-22 93.5t-54.5 52.5t-102.5 16.5q-53 0 -103 -21.5t-90 -45.5v-796h-360v1123h360v-124q93 73 178 114t188 41q111 0 196 -49.5t133 -145.5q108 91 210 143t200 52q182 0 276.5 -109t94.5 -314v-731h-362v561q0 83 -3.5 140
t-21.5 93q-17 36 -54 52.5t-104 16.5q-45 0 -88 -15.5t-105 -51.5z" />
    <glyph glyph-name="n" unicode="n" horiz-adv-x="1459" 
d="M1298 0h-362v557q0 68 -7 135.5t-24 99.5q-20 37 -58.5 54t-107.5 17q-49 0 -99.5 -16t-109.5 -51v-796h-360v1123h360v-124q96 75 184.5 115t196.5 40q182 0 284.5 -106t102.5 -317v-731z" />
    <glyph glyph-name="o" unicode="o" horiz-adv-x="1406" 
d="M1318 561q0 -277 -161.5 -436.5t-453.5 -159.5t-453.5 159.5t-161.5 436.5q0 279 162.5 438t452.5 159q294 0 454.5 -160t160.5 -437zM875 288q35 43 52.5 103.5t17.5 167.5q0 99 -18 166t-50 107q-32 41 -77 58t-97 17t-92.5 -14t-77.5 -56q-33 -39 -52.5 -107
t-19.5 -171q0 -92 17 -159.5t50 -108.5q32 -39 76.5 -57t101.5 -18q49 0 93.5 16.5t75.5 55.5z" />
    <glyph glyph-name="p" unicode="p" horiz-adv-x="1432" 
d="M1342 577q0 -139 -42.5 -253t-111.5 -188q-72 -78 -163 -118t-195 -40q-96 0 -163 20.5t-137 57.5v-468h-360v1535h360v-117q83 66 169.5 107t199.5 41q210 0 326.5 -154t116.5 -423zM971 570q0 164 -56 238t-177 74q-51 0 -105 -15.5t-103 -44.5v-565q36 -14 77 -18
t81 -4q143 0 213 83.5t70 251.5z" />
    <glyph glyph-name="q" unicode="q" horiz-adv-x="1432" 
d="M1262 -412h-360v522q-88 -71 -172 -106t-189 -35q-206 0 -328.5 158t-122.5 426q0 143 41.5 253.5t113.5 189.5q68 75 165 116.5t194 41.5q95 0 159.5 -21.5t136.5 -59.5l13 50h349v-1535zM902 310v551q-38 16 -80 23t-77 7q-142 0 -213 -88.5t-71 -245.5
q0 -165 57 -239.5t183 -74.5q49 0 104 18.5t97 48.5z" />
    <glyph glyph-name="r" unicode="r" horiz-adv-x="1018" 
d="M984 780h-32q-23 8 -74 12t-85 4q-77 0 -136 -10t-127 -34v-752h-360v1123h360v-165q119 102 207 135.5t162 33.5q19 0 43 -1t42 -3v-343z" />
    <glyph glyph-name="s" unicode="s" horiz-adv-x="1215" 
d="M1146 356q0 -174 -156 -280.5t-427 -106.5q-150 0 -272 28t-196 62v296h33q27 -19 62.5 -41.5t100.5 -48.5q56 -23 127 -39.5t152 -16.5q106 0 157 23.5t51 69.5q0 41 -30 59.5t-114 35.5q-40 9 -108.5 19.5t-124.5 25.5q-153 40 -227 124.5t-74 210.5q0 162 153.5 269.5
t419.5 107.5q126 0 241.5 -25.5t180.5 -54.5v-284h-31q-80 55 -182.5 89.5t-207.5 34.5q-87 0 -146.5 -24t-59.5 -68q0 -40 27 -61t127 -42q55 -11 118.5 -21.5t127.5 -26.5q142 -37 210 -116.5t68 -198.5z" />
    <glyph glyph-name="t" unicode="t" horiz-adv-x="933" 
d="M888 10q-58 -15 -123 -23.5t-159 -8.5q-210 0 -312.5 85t-102.5 291v525h-148v244h148v321h360v-321h337v-244h-337v-398q0 -59 1 -103t16 -79q14 -35 49.5 -55.5t103.5 -20.5q28 0 73.5 12t63.5 22h30v-247z" />
    <glyph glyph-name="u" unicode="u" horiz-adv-x="1459" 
d="M1289 0h-360v124q-100 -76 -183 -115.5t-198 -39.5q-186 0 -286.5 107t-100.5 316v731h362v-557q0 -85 5.5 -141.5t25.5 -93.5q19 -37 57.5 -54t107.5 -17q46 0 102 17t108 50v796h360v-1123z" />
    <glyph glyph-name="v" unicode="v" horiz-adv-x="1331" 
d="M1301 1123l-433 -1123h-408l-430 1123h381l260 -772l257 772h373z" />
    <glyph glyph-name="w" unicode="w" horiz-adv-x="2006" 
d="M1961 1123l-348 -1123h-382l-229 757l-225 -757h-387l-345 1123h378l192 -774l240 774h319l228 -774l189 774h370z" />
    <glyph glyph-name="x" unicode="x" horiz-adv-x="1370" 
d="M1344 0h-420l-240 336l-246 -336h-412l443 561l-436 562h420l236 -330l237 330h413l-437 -553z" />
    <glyph glyph-name="y" unicode="y" horiz-adv-x="1333" 
d="M677 397l256 726h370l-624 -1535h-390l178 420l-437 1115h378z" />
    <glyph glyph-name="z" unicode="z" horiz-adv-x="1222" 
d="M1139 0h-1055v231l592 629h-568v263h1020v-227l-583 -628h594v-268z" />
    <glyph glyph-name="braceleft" unicode="{" horiz-adv-x="1456" 
d="M1255 -392h-274q-194 0 -309.5 98.5t-115.5 288.5v147q0 178 -79 247.5t-255 69.5h-70v246h70q176 0 255 69.5t79 247.5v147q0 190 115.5 288.5t309.5 98.5h274v-224h-114q-60 0 -108.5 -9t-81.5 -34q-34 -26 -51 -75.5t-17 -127.5v-109q0 -140 -78.5 -234t-223.5 -149
v-24q145 -55 223.5 -149t78.5 -234v-109q0 -78 17 -127.5t51 -75.5q32 -26 81 -34.5t109 -8.5h114v-224z" />
    <glyph glyph-name="bar" unicode="|" horiz-adv-x="1113" 
d="M702 -392h-291v1948h291v-1948z" />
    <glyph glyph-name="braceright" unicode="}" horiz-adv-x="1456" 
d="M1304 459h-70q-176 0 -255 -69.5t-79 -247.5v-147q0 -190 -115.5 -288.5t-309.5 -98.5h-274v224h114q60 0 108.5 9t81.5 34q34 26 51 75.5t17 127.5v109q0 140 78.5 234t223.5 149v24q-145 55 -223.5 149t-78.5 234v109q0 78 -17 127.5t-51 75.5q-33 25 -81.5 34
t-108.5 9h-114v224h274q194 0 309.5 -98.5t115.5 -288.5v-147q0 -178 79 -247.5t255 -69.5h70v-246z" />
    <glyph glyph-name="asciitilde" unicode="~" horiz-adv-x="1776" 
d="M1623 1007q-1 -328 -109.5 -504t-323.5 -176q-71 0 -124.5 16.5t-96.5 44.5q-42 29 -75.5 63.5t-69.5 76.5l-56.5 70.5t-55.5 65.5q-29 31 -55.5 48.5t-59.5 17.5q-60 0 -91 -31t-48 -80q-18 -54 -23.5 -135t-7.5 -159h-270q0 335 111 507.5t322 172.5q68 0 123 -17.5
t100 -45.5q42 -28 76.5 -63t68.5 -75l52.5 -66.5t59.5 -70.5q33 -34 59.5 -49.5t53.5 -15.5q57 0 90 29t49 82q17 53 23 128t8 166h270z" />
    <glyph glyph-name="Adieresis" unicode="&#xc4;" horiz-adv-x="1590" 
d="M1566 0h-397l-103 301h-552l-103 -301h-387l550 1489h442zM973 574l-183 534l-183 -534h366zM1214 1656h-297v273h297v-273zM677 1656h-297v273h297v-273z" />
    <glyph glyph-name="Aring" unicode="&#xc5;" horiz-adv-x="1590" 
d="M1566 0h-397l-103 301h-552l-103 -301h-387l524 1419q-42 40 -68.5 94t-26.5 114q0 127 102 217.5t240 90.5t240 -90.5t102 -217.5q0 -62 -27.5 -116.5t-67.5 -91.5zM973 574l-183 534l-183 -534h366zM931 1635q0 63 -38.5 104t-97.5 41t-97.5 -41t-38.5 -104t38 -104.5
t98 -41.5t98 42t38 104z" />
    <glyph glyph-name="Ccedilla" unicode="&#xc7;" horiz-adv-x="1482" 
d="M858 -26q-167 1 -305.5 49.5t-238.5 145.5q-100 96 -155.5 240t-55.5 334q0 177 53 321t154 247q97 99 240.5 153t313.5 54q94 0 169.5 -10.5t139.5 -27.5q67 -19 121.5 -42.5t95.5 -43.5v-361h-44q-28 24 -70.5 57t-96.5 65q-55 32 -119 54t-137 22q-81 0 -154 -25.5
t-135 -84.5q-59 -57 -95.5 -151t-36.5 -228q0 -140 39.5 -234t99.5 -148q61 -55 136 -78.5t148 -23.5q70 0 138.5 21t126.5 57q49 29 91 62t69 57h40v-356q-59 -26 -138 -57.5t-169 -48.5q0 -15 1.5 -38t1.5 -41q0 -162 -99.5 -249.5t-259.5 -87.5q-35 0 -101.5 5.5
t-111.5 18.5v200h23q24 -11 70 -23t88 -12q80 0 121.5 40t41.5 120v48z" />
    <glyph glyph-name="Eacute" unicode="&#xc9;" horiz-adv-x="1399" 
d="M1267 0h-1077v1489h1077v-288h-695v-257h645v-288h-645v-368h695v-288zM1099 2049v-20l-352 -373h-246l247 393h351z" />
    <glyph glyph-name="Ntilde" unicode="&#xd1;" horiz-adv-x="1734" 
d="M1544 0h-370l-632 1022v-1022h-352v1489h459l543 -853v853h352v-1489zM1312 1991q-10 -169 -82.5 -250.5t-202.5 -81.5q-47 0 -89.5 18.5t-77.5 39.5q-31 19 -68.5 38.5t-62.5 19.5q-49 0 -65.5 -32t-19.5 -90h-219q6 151 83.5 241t200.5 90q48 0 91 -17.5t79 -38.5
l69 -37.5t59 -17.5q48 0 66 32t20 86h219z" />
    <glyph glyph-name="Odieresis" unicode="&#xd6;" horiz-adv-x="1741" 
d="M1638 744q0 -356 -204 -565.5t-564 -209.5q-359 0 -563 209.5t-204 565.5q0 359 204 567.5t563 208.5q358 0 563 -208.5t205 -567.5zM1129 367q56 68 83 160.5t27 217.5q0 134 -31 228t-81 152q-51 60 -117.5 87t-138.5 27q-73 0 -137.5 -26t-118.5 -86
q-50 -56 -81.5 -154.5t-31.5 -228.5q0 -133 30.5 -226.5t80.5 -152.5t117 -87t141 -28t141 28.5t117 88.5zM1288 1656h-297v273h297v-273zM751 1656h-297v273h297v-273z" />
    <glyph glyph-name="Udieresis" unicode="&#xdc;" horiz-adv-x="1663" 
d="M1494 539q0 -276 -168 -423t-495 -147t-494.5 147t-167.5 422v951h386v-929q0 -155 65 -231t211 -76q144 0 210.5 73t66.5 234v929h386v-950zM1249 1656h-297v273h297v-273zM712 1656h-297v273h297v-273z" />
    <glyph glyph-name="aacute" unicode="&#xe1;" horiz-adv-x="1368" 
d="M850 293v234q-73 -6 -158 -16.5t-129 -24.5q-54 -17 -82.5 -49.5t-28.5 -85.5q0 -35 6 -57t30 -42q23 -20 55 -29.5t100 -9.5q54 0 109.5 22t97.5 58zM850 119l-72 -53t-81 -49q-53 -24 -110 -35.5t-125 -11.5q-160 0 -268 99t-108 253q0 123 55 201t156 123
q100 45 248 64t307 28v6q0 93 -76 128.5t-224 35.5q-89 0 -190 -31.5t-145 -48.5h-33v271q57 15 185.5 35.5t257.5 20.5q307 0 443.5 -94.5t136.5 -296.5v-764h-357v119zM1043 1676v-20l-352 -373h-246l247 393h351z" />
    <glyph glyph-name="agrave" unicode="&#xe0;" horiz-adv-x="1368" 
d="M850 293v234q-73 -6 -158 -16.5t-129 -24.5q-54 -17 -82.5 -49.5t-28.5 -85.5q0 -35 6 -57t30 -42q23 -20 55 -29.5t100 -9.5q54 0 109.5 22t97.5 58zM850 119l-72 -53t-81 -49q-53 -24 -110 -35.5t-125 -11.5q-160 0 -268 99t-108 253q0 123 55 201t156 123
q100 45 248 64t307 28v6q0 93 -76 128.5t-224 35.5q-89 0 -190 -31.5t-145 -48.5h-33v271q57 15 185.5 35.5t257.5 20.5q307 0 443.5 -94.5t136.5 -296.5v-764h-357v119zM932 1283h-246l-352 373v20h351z" />
    <glyph glyph-name="acircumflex" unicode="&#xe2;" horiz-adv-x="1368" 
d="M850 293v234q-73 -6 -158 -16.5t-129 -24.5q-54 -17 -82.5 -49.5t-28.5 -85.5q0 -35 6 -57t30 -42q23 -20 55 -29.5t100 -9.5q54 0 109.5 22t97.5 58zM850 119l-72 -53t-81 -49q-53 -24 -110 -35.5t-125 -11.5q-160 0 -268 99t-108 253q0 123 55 201t156 123
q100 45 248 64t307 28v6q0 93 -76 128.5t-224 35.5q-89 0 -190 -31.5t-145 -48.5h-33v271q57 15 185.5 35.5t257.5 20.5q307 0 443.5 -94.5t136.5 -296.5v-764h-357v119zM1105 1283h-264l-185 219l-184 -219h-260l321 393h251z" />
    <glyph glyph-name="adieresis" unicode="&#xe4;" horiz-adv-x="1368" 
d="M850 293v234q-73 -6 -158 -16.5t-129 -24.5q-54 -17 -82.5 -49.5t-28.5 -85.5q0 -35 6 -57t30 -42q23 -20 55 -29.5t100 -9.5q54 0 109.5 22t97.5 58zM850 119l-72 -53t-81 -49q-53 -24 -110 -35.5t-125 -11.5q-160 0 -268 99t-108 253q0 123 55 201t156 123
q100 45 248 64t307 28v6q0 93 -76 128.5t-224 35.5q-89 0 -190 -31.5t-145 -48.5h-33v271q57 15 185.5 35.5t257.5 20.5q307 0 443.5 -94.5t136.5 -296.5v-764h-357v119zM1090 1283h-297v273h297v-273zM553 1283h-297v273h297v-273z" />
    <glyph glyph-name="atilde" unicode="&#xe3;" horiz-adv-x="1368" 
d="M850 293v234q-73 -6 -158 -16.5t-129 -24.5q-54 -17 -82.5 -49.5t-28.5 -85.5q0 -35 6 -57t30 -42q23 -20 55 -29.5t100 -9.5q54 0 109.5 22t97.5 58zM850 119l-72 -53t-81 -49q-53 -24 -110 -35.5t-125 -11.5q-160 0 -268 99t-108 253q0 123 55 201t156 123
q100 45 248 64t307 28v6q0 93 -76 128.5t-224 35.5q-89 0 -190 -31.5t-145 -48.5h-33v271q57 15 185.5 35.5t257.5 20.5q307 0 443.5 -94.5t136.5 -296.5v-764h-357v119zM1116 1618q-10 -169 -82.5 -250.5t-202.5 -81.5q-47 0 -89.5 18.5t-77.5 39.5q-31 19 -68.5 38.5
t-62.5 19.5q-49 0 -65.5 -32t-19.5 -90h-219q6 151 83.5 241t200.5 90q48 0 91 -17.5t79 -38.5l69 -37.5t59 -17.5q48 0 66 32t20 86h219z" />
    <glyph glyph-name="aring" unicode="&#xe5;" horiz-adv-x="1368" 
d="M850 293v234q-73 -6 -158 -16.5t-129 -24.5q-54 -17 -82.5 -49.5t-28.5 -85.5q0 -35 6 -57t30 -42q23 -20 55 -29.5t100 -9.5q54 0 109.5 22t97.5 58zM850 119l-72 -53t-81 -49q-53 -24 -110 -35.5t-125 -11.5q-160 0 -268 99t-108 253q0 123 55 201t156 123
q100 45 248 64t307 28v6q0 93 -76 128.5t-224 35.5q-89 0 -190 -31.5t-145 -48.5h-33v271q54 14 138.5 29t213.5 22q-79 36 -127.5 108t-48.5 163q0 129 92.5 215t225.5 86q134 0 226 -86.5t92 -214.5q0 -97 -53 -171t-137 -106q200 -23 300.5 -112.5t100.5 -267.5v-764
h-357v119zM814 1420q0 62 -38.5 105t-97.5 43t-97.5 -42.5t-38.5 -105.5t38 -104.5t98 -41.5t98 42t38 104z" />
    <glyph glyph-name="ccedilla" unicode="&#xe7;" horiz-adv-x="1205" 
d="M726 -27q-140 3 -257.5 40t-202.5 109q-84 72 -131 180.5t-47 254.5q0 157 52.5 271t146.5 189q91 71 210 104t247 33q115 0 212 -25t181 -65v-307h-51l-50.5 42t-72.5 47q-41 22 -90 36.5t-114 14.5q-144 0 -221.5 -91.5t-77.5 -248.5q0 -162 79.5 -246t225.5 -84
q68 0 122.5 15.5t90.5 36.5q34 20 60 42t48 43h51v-307q-36 -15 -85 -33.5t-102 -29.5q0 -16 1.5 -39t1.5 -41q0 -162 -99.5 -249.5t-259.5 -87.5q-35 0 -101.5 5.5t-111.5 18.5v200h23q24 -11 70 -23t88 -12q80 0 122 40t42 120v47z" />
    <glyph glyph-name="eacute" unicode="&#xe9;" horiz-adv-x="1360" 
d="M1276 495h-824q8 -132 100.5 -202t272.5 -70q114 0 221 41t169 88h40v-289q-122 -49 -230 -71t-239 -22q-338 0 -518 152t-180 433q0 278 170.5 440.5t467.5 162.5q274 0 412 -138.5t138 -398.5v-126zM918 706q-3 113 -56 170t-165 57q-104 0 -171 -54t-75 -173h467z
M1063 1676v-20l-352 -373h-246l247 393h351z" />
    <glyph glyph-name="egrave" unicode="&#xe8;" horiz-adv-x="1360" 
d="M1276 495h-824q8 -132 100.5 -202t272.5 -70q114 0 221 41t169 88h40v-289q-122 -49 -230 -71t-239 -22q-338 0 -518 152t-180 433q0 278 170.5 440.5t467.5 162.5q274 0 412 -138.5t138 -398.5v-126zM918 706q-3 113 -56 170t-165 57q-104 0 -171 -54t-75 -173h467z
M942 1283h-246l-352 373v20h351z" />
    <glyph glyph-name="ecircumflex" unicode="&#xea;" horiz-adv-x="1360" 
d="M1276 495h-824q8 -132 100.5 -202t272.5 -70q114 0 221 41t169 88h40v-289q-122 -49 -230 -71t-239 -22q-338 0 -518 152t-180 433q0 278 170.5 440.5t467.5 162.5q274 0 412 -138.5t138 -398.5v-126zM918 706q-3 113 -56 170t-165 57q-104 0 -171 -54t-75 -173h467z
M1163 1283h-264l-185 219l-184 -219h-260l321 393h251z" />
    <glyph glyph-name="edieresis" unicode="&#xeb;" horiz-adv-x="1360" 
d="M1276 495h-824q8 -132 100.5 -202t272.5 -70q114 0 221 41t169 88h40v-289q-122 -49 -230 -71t-239 -22q-338 0 -518 152t-180 433q0 278 170.5 440.5t467.5 162.5q274 0 412 -138.5t138 -398.5v-126zM918 706q-3 113 -56 170t-165 57q-104 0 -171 -54t-75 -173h467z
M1124 1283h-297v273h297v-273zM587 1283h-297v273h297v-273z" />
    <glyph glyph-name="iacute" unicode="&#xed;" horiz-adv-x="700" 
d="M530 0h-360v1123h360v-1123zM702 1676v-20l-352 -373h-246l247 393h351z" />
    <glyph glyph-name="igrave" unicode="&#xec;" horiz-adv-x="700" 
d="M530 0h-360v1123h360v-1123zM592 1283h-246l-352 373v20h351z" />
    <glyph glyph-name="icircumflex" unicode="&#xee;" horiz-adv-x="700" 
d="M530 0h-360v1123h360v-1123zM712 1283h-239l-125 213l-124 -213h-235l234 393h255z" />
    <glyph glyph-name="idieresis" unicode="&#xef;" horiz-adv-x="700" 
d="M530 0h-360v1123h360v-1123zM718 1283h-277v273h277v-273zM259 1283h-277v273h277v-273z" />
    <glyph glyph-name="ntilde" unicode="&#xf1;" horiz-adv-x="1459" 
d="M1298 0h-362v557q0 68 -7 135.5t-24 99.5q-20 37 -58.5 54t-107.5 17q-49 0 -99.5 -16t-109.5 -51v-796h-360v1123h360v-124q96 75 184.5 115t196.5 40q182 0 284.5 -106t102.5 -317v-731zM1184 1618q-10 -169 -82.5 -250.5t-202.5 -81.5q-47 0 -89.5 18.5t-77.5 39.5
q-31 19 -68.5 38.5t-62.5 19.5q-49 0 -65.5 -32t-19.5 -90h-219q6 151 83.5 241t200.5 90q48 0 91 -17.5t79 -38.5l69 -37.5t59 -17.5q48 0 66 32t20 86h219z" />
    <glyph glyph-name="oacute" unicode="&#xf3;" horiz-adv-x="1406" 
d="M1318 561q0 -277 -161.5 -436.5t-453.5 -159.5t-453.5 159.5t-161.5 436.5q0 279 162.5 438t452.5 159q294 0 454.5 -160t160.5 -437zM875 288q35 43 52.5 103.5t17.5 167.5q0 99 -18 166t-50 107q-32 41 -77 58t-97 17t-92.5 -14t-77.5 -56q-33 -39 -52.5 -107
t-19.5 -171q0 -92 17 -159.5t50 -108.5q32 -39 76.5 -57t101.5 -18q49 0 93.5 16.5t75.5 55.5zM1058 1676v-20l-352 -373h-246l247 393h351z" />
    <glyph glyph-name="ograve" unicode="&#xf2;" horiz-adv-x="1406" 
d="M1318 561q0 -277 -161.5 -436.5t-453.5 -159.5t-453.5 159.5t-161.5 436.5q0 279 162.5 438t452.5 159q294 0 454.5 -160t160.5 -437zM875 288q35 43 52.5 103.5t17.5 167.5q0 99 -18 166t-50 107q-32 41 -77 58t-97 17t-92.5 -14t-77.5 -56q-33 -39 -52.5 -107
t-19.5 -171q0 -92 17 -159.5t50 -108.5q32 -39 76.5 -57t101.5 -18q49 0 93.5 16.5t75.5 55.5zM947 1283h-246l-352 373v20h351z" />
    <glyph glyph-name="ocircumflex" unicode="&#xf4;" horiz-adv-x="1406" 
d="M1318 561q0 -277 -161.5 -436.5t-453.5 -159.5t-453.5 159.5t-161.5 436.5q0 279 162.5 438t452.5 159q294 0 454.5 -160t160.5 -437zM875 288q35 43 52.5 103.5t17.5 167.5q0 99 -18 166t-50 107q-32 41 -77 58t-97 17t-92.5 -14t-77.5 -56q-33 -39 -52.5 -107
t-19.5 -171q0 -92 17 -159.5t50 -108.5q32 -39 76.5 -57t101.5 -18q49 0 93.5 16.5t75.5 55.5zM1150 1283h-264l-185 219l-184 -219h-260l321 393h251z" />
    <glyph glyph-name="odieresis" unicode="&#xf6;" horiz-adv-x="1406" 
d="M1318 561q0 -277 -161.5 -436.5t-453.5 -159.5t-453.5 159.5t-161.5 436.5q0 279 162.5 438t452.5 159q294 0 454.5 -160t160.5 -437zM875 288q35 43 52.5 103.5t17.5 167.5q0 99 -18 166t-50 107q-32 41 -77 58t-97 17t-92.5 -14t-77.5 -56q-33 -39 -52.5 -107
t-19.5 -171q0 -92 17 -159.5t50 -108.5q32 -39 76.5 -57t101.5 -18q49 0 93.5 16.5t75.5 55.5zM1120 1283h-297v273h297v-273zM583 1283h-297v273h297v-273z" />
    <glyph glyph-name="otilde" unicode="&#xf5;" horiz-adv-x="1406" 
d="M1318 561q0 -277 -161.5 -436.5t-453.5 -159.5t-453.5 159.5t-161.5 436.5q0 279 162.5 438t452.5 159q294 0 454.5 -160t160.5 -437zM875 288q35 43 52.5 103.5t17.5 167.5q0 99 -18 166t-50 107q-32 41 -77 58t-97 17t-92.5 -14t-77.5 -56q-33 -39 -52.5 -107
t-19.5 -171q0 -92 17 -159.5t50 -108.5q32 -39 76.5 -57t101.5 -18q49 0 93.5 16.5t75.5 55.5zM1147 1618q-10 -169 -82.5 -250.5t-202.5 -81.5q-47 0 -89.5 18.5t-77.5 39.5q-31 19 -68.5 38.5t-62.5 19.5q-49 0 -65.5 -32t-19.5 -90h-219q6 151 83.5 241t200.5 90
q48 0 91 -17.5t79 -38.5l69 -37.5t59 -17.5q48 0 66 32t20 86h219z" />
    <glyph glyph-name="uacute" unicode="&#xfa;" horiz-adv-x="1459" 
d="M1289 0h-360v124q-100 -76 -183 -115.5t-198 -39.5q-186 0 -286.5 107t-100.5 316v731h362v-557q0 -85 5.5 -141.5t25.5 -93.5q19 -37 57.5 -54t107.5 -17q46 0 102 17t108 50v796h360v-1123zM1053 1676v-20l-352 -373h-246l247 393h351z" />
    <glyph glyph-name="ugrave" unicode="&#xf9;" horiz-adv-x="1459" 
d="M1289 0h-360v124q-100 -76 -183 -115.5t-198 -39.5q-186 0 -286.5 107t-100.5 316v731h362v-557q0 -85 5.5 -141.5t25.5 -93.5q19 -37 57.5 -54t107.5 -17q46 0 102 17t108 50v796h360v-1123zM982 1283h-246l-352 373v20h351z" />
    <glyph glyph-name="ucircumflex" unicode="&#xfb;" horiz-adv-x="1459" 
d="M1289 0h-360v124q-100 -76 -183 -115.5t-198 -39.5q-186 0 -286.5 107t-100.5 316v731h362v-557q0 -85 5.5 -141.5t25.5 -93.5q19 -37 57.5 -54t107.5 -17q46 0 102 17t108 50v796h360v-1123zM1177 1283h-264l-185 219l-184 -219h-260l321 393h251z" />
    <glyph glyph-name="udieresis" unicode="&#xfc;" horiz-adv-x="1459" 
d="M1289 0h-360v124q-100 -76 -183 -115.5t-198 -39.5q-186 0 -286.5 107t-100.5 316v731h362v-557q0 -85 5.5 -141.5t25.5 -93.5q19 -37 57.5 -54t107.5 -17q46 0 102 17t108 50v796h360v-1123zM1143 1283h-297v273h297v-273zM606 1283h-297v273h297v-273z" />
    <glyph glyph-name="dagger" unicode="&#x2020;" horiz-adv-x="1456" 
d="M1214 938l-364 5l5 -808h-254l5 808l-364 -5v230l364 -5l-5 393h254l-5 -393l364 5v-230z" />
    <glyph glyph-name="degree" unicode="&#xb0;" horiz-adv-x="1203" 
d="M1024 1102q0 -176 -122.5 -297t-299.5 -121t-299.5 121t-122.5 297t122.5 297t299.5 121q178 0 300 -121t122 -297zM796 1102q0 82 -55.5 140.5t-138.5 58.5q-82 0 -138 -58t-56 -141q0 -85 56.5 -141.5t137.5 -56.5q83 0 138.5 58t55.5 140z" />
    <glyph glyph-name="cent" unicode="&#xa2;" horiz-adv-x="1456" 
d="M1271 67q-51 -21 -133.5 -46.5t-173.5 -33.5v-348h-174v345q-139 9 -247.5 49.5t-186.5 110.5q-81 73 -124.5 179.5t-43.5 243.5q0 150 48 258.5t132 181.5q82 71 191.5 108t230.5 45v315h174v-319q113 -12 195 -40.5t112 -41.5v-295h-49q-38 32 -103.5 72t-158.5 58
v-676q89 14 151.5 49t110.5 80h49v-295zM794 236v672q-114 -24 -179 -115t-65 -226q0 -143 66.5 -225.5t177.5 -105.5z" />
    <glyph glyph-name="sterling" unicode="&#xa3;" horiz-adv-x="1456" 
d="M1325 0h-1171v281q124 34 166 106t42 216h-176v217h176v261q0 191 147.5 314t389.5 123q136 0 225.5 -16.5t142.5 -31.5v-312h-45q-76 47 -143 66.5t-125 19.5q-104 0 -167.5 -59.5t-63.5 -166.5v-198h437v-217h-437q0 -89 -47.5 -178t-121.5 -129v-11h771v-285z" />
    <glyph glyph-name="section" unicode="&#xa7;" horiz-adv-x="1456" 
d="M1305 607q0 -107 -61 -192.5t-153 -136.5v-7q98 -53 140 -122t42 -159q0 -164 -162.5 -273t-448.5 -109q-101 0 -233.5 16.5t-205.5 40.5v290h34q57 -36 154.5 -64.5t195.5 -28.5q137 0 196.5 30.5t59.5 86.5q0 38 -23 62.5t-69 43.5q-47 20 -119.5 40.5t-136.5 40.5
q-178 56 -271 139.5t-93 215.5q0 96 49.5 176t164.5 153v7q-102 56 -143.5 128t-41.5 163q0 158 168.5 265t443.5 107q113 0 229.5 -15.5t197.5 -41.5v-290h-32q-49 28 -145.5 60.5t-195.5 32.5q-114 0 -185 -32.5t-71 -84.5q0 -38 23 -61.5t69 -42.5q42 -17 112 -37.5
l148 -45.5q175 -56 269 -141.5t94 -213.5zM946 547q0 56 -42 91.5t-117 62.5q-26 9 -67.5 22t-101.5 29q-45 -32 -76.5 -75.5t-31.5 -95.5q0 -56 42.5 -92t116.5 -62l76 -25t94 -27q39 28 73 70.5t34 101.5z" />
    <glyph glyph-name="bullet" unicode="&#x2022;" horiz-adv-x="1456" 
d="M221 683q0 210 148.5 358t358.5 148t358.5 -148t148.5 -358t-148.5 -358t-358.5 -148t-358.5 148t-148.5 358z" />
    <glyph glyph-name="paragraph" unicode="&#xb6;" horiz-adv-x="1456" 
d="M1252 -363h-202v1672h-151v-1672h-212v956q-275 6 -413.5 127.5t-138.5 328.5q0 208 152 324t423 116h542v-1852z" />
    <glyph glyph-name="germandbls" unicode="&#xdf;" horiz-adv-x="1460" 
d="M1380 468q0 -238 -151.5 -360t-407.5 -122q-35 0 -91.5 5t-81.5 9v272h40q17 -5 49.5 -11.5t65.5 -6.5q89 0 149 62t60 173q0 113 -78 160.5t-241 47.5v267q105 0 158.5 49t53.5 151q0 78 -43.5 120t-132.5 42q-104 0 -151.5 -64t-47.5 -176v-1086h-360v1056
q0 244 151 377t414 133q141 0 237.5 -28t163.5 -78q64 -49 96 -113t32 -137q0 -136 -83 -230.5t-208 -111.5v-9q186 -26 296.5 -130t110.5 -261z" />
    <glyph glyph-name="registered" unicode="&#xae;" horiz-adv-x="1974" 
d="M1852 655q0 -358 -253.5 -611.5t-611.5 -253.5t-611.5 253.5t-253.5 611.5t253.5 611.5t611.5 253.5t611.5 -253.5t253.5 -611.5zM1662 655q0 279 -197.5 479.5t-476.5 200.5t-476.5 -200.5t-197.5 -479.5t197.5 -479.5t476.5 -200.5t476.5 200.5t197.5 479.5zM1473 245
h-271l-261 316h-86v-316h-212v861h327q91 0 146 -7t109 -36q59 -33 86.5 -80t27.5 -117q0 -94 -53 -155t-138 -95zM1103 850q0 27 -11.5 49.5t-38.5 36.5q-25 14 -57.5 17.5t-73.5 3.5h-67v-243h51q53 0 91 7.5t61 25.5q23 17 34 42t11 61z" />
    <glyph glyph-name="copyright" unicode="&#xa9;" horiz-adv-x="1974" 
d="M1852 655q0 -358 -253.5 -611.5t-611.5 -253.5t-611.5 253.5t-253.5 611.5t253.5 611.5t611.5 253.5t611.5 -253.5t253.5 -611.5zM1662 655q0 279 -197.5 479.5t-476.5 200.5t-476.5 -200.5t-197.5 -479.5t197.5 -479.5t476.5 -200.5t476.5 200.5t197.5 479.5zM1321 277
q-74 -35 -148 -53.5t-140 -18.5q-221 0 -348.5 124t-127.5 331q0 208 134 333t342 125q80 0 154 -21t134 -50v-206h-21q-58 46 -126.5 73.5t-136.5 27.5q-113 0 -171.5 -71t-58.5 -211q0 -135 60.5 -207t169.5 -72q83 0 152.5 33t110.5 68h21v-205z" />
    <glyph glyph-name="trademark" unicode="&#x2122;" horiz-adv-x="1974" 
d="M1785 765h-194v566h-21l-178 -396h-136l-180 403h-26v-573h-184v724h315l146 -354l152 354h306v-724zM751 1332h-207v-567h-195v567h-207v157h609v-157z" />
    <glyph glyph-name="acute" unicode="&#xb4;" horiz-adv-x="1456" 
d="M1083 1676v-20l-352 -373h-246l247 393h351z" />
    <glyph glyph-name="dieresis" unicode="&#xa8;" horiz-adv-x="1456" 
d="M1145 1283h-297v273h297v-273zM608 1283h-297v273h297v-273z" />
    <glyph glyph-name="notequal" unicode="&#x2260;" horiz-adv-x="1776" 
d="M1527 270h-667l-150 -357h-271l149 357h-338v268h451l106 248h-557v268h666l136 326h275l-138 -326h338v-268h-451l-107 -248h558v-268z" />
    <glyph glyph-name="AE" unicode="&#xc6;" horiz-adv-x="2240" 
d="M679 688h355v527h-144zM1034 404h-469l-162 -404h-399l611 1489h1493v-288h-695v-257h645v-288h-645v-368h695v-288h-1074v404z" />
    <glyph glyph-name="Oslash" unicode="&#xd8;" horiz-adv-x="1741" 
d="M1192 1049l-541 -733q45 -36 101 -55t119 -19q72 0 143.5 29.5t120.5 89.5q57 68 84.5 163t27.5 221q0 84 -15.5 168t-39.5 136zM547 445l538 732q-47 36 -101.5 53t-112.5 17q-78 0 -141 -25t-120 -89q-52 -57 -84 -154.5t-32 -234.5q0 -90 14 -166.5t39 -132.5z
M329 162q-108 102 -167 250.5t-59 331.5q0 359 204 567.5t563 208.5q119 0 217.5 -23t184.5 -69l123 164h210l-196 -261q109 -100 169 -249.5t60 -337.5q0 -356 -204 -565.5t-564 -209.5q-115 0 -219.5 25t-187.5 71l-155 -207h-207z" />
    <glyph glyph-name="infinity" unicode="&#x221e;" horiz-adv-x="2168" 
d="M1991 663q0 -141 -39.5 -249.5t-104.5 -176.5q-70 -73 -157.5 -107t-194.5 -34q-129 0 -237.5 67.5t-184.5 199.5q-84 -138 -188 -202.5t-247 -64.5q-208 0 -334.5 153t-126.5 393q0 265 136.5 416t359.5 151q131 0 238.5 -67t184.5 -200q81 135 187.5 201t246.5 66
q208 0 334.5 -153t126.5 -393zM1732 663q0 125 -54.5 195t-147.5 70q-68 0 -115 -24t-86 -76q-41 -54 -75 -118.5t-63 -132.5q54 -98 132 -149t160 -51q118 0 183.5 74t65.5 212zM977 728q-56 99 -133 149.5t-159 50.5q-120 0 -184.5 -76.5t-64.5 -209.5q0 -117 51.5 -191
t150.5 -74q97 0 149.5 46.5t102.5 129.5q30 51 46.5 85t40.5 90z" />
    <glyph glyph-name="plusminus" unicode="&#xb1;" horiz-adv-x="1776" 
d="M1558 0h-1340v268h534v416h-534v268h533v529h274v-529h533v-268h-534v-416h534v-268z" />
    <glyph glyph-name="lessequal" unicode="&#x2264;" horiz-adv-x="1776" 
d="M1558 348l-1340 432v274l1340 432v-287l-939 -283l939 -281v-287zM1558 0h-1340v268h1340v-268z" />
    <glyph glyph-name="greaterequal" unicode="&#x2265;" horiz-adv-x="1776" 
d="M1558 780l-1340 -432v287l939 281l-939 283v287l1340 -432v-274zM1558 0h-1340v268h1340v-268z" />
    <glyph glyph-name="yen" unicode="&#xa5;" horiz-adv-x="1456" 
d="M1404 1489l-495 -819v-45h315v-217h-313v-78h313v-217h-313v-113h-368v113h-313v217h313v78h-313v217h315v45l-493 819h418l265 -532l265 532h404z" />
    <glyph glyph-name="yen" unicode="&#xffe5;" horiz-adv-x="1456" 
d="M1404 1489l-495 -819v-45h315v-217h-313v-78h313v-217h-313v-113h-368v113h-313v217h313v78h-313v217h315v45l-493 819h418l265 -532l265 532h404z" />
    <glyph glyph-name="uni00B5" unicode="&#xb5;" horiz-adv-x="1477" 
d="M1307 0h-319l-16 80h-7q-44 -38 -97.5 -66.5t-126.5 -28.5q-66 0 -121.5 27t-89.5 60v-484h-360v1535h360v-799q45 -36 99 -51t109 -15q51 0 107.5 15.5t101.5 50.5v799h360v-1123z" />
    <glyph glyph-name="partialdiff" unicode="&#x2202;" horiz-adv-x="1456" 
d="M1323 847q0 -188 -54.5 -364.5t-146.5 -292.5q-91 -113 -210.5 -167.5t-271.5 -54.5q-232 0 -374 132.5t-142 341.5q0 238 142 390.5t354 152.5q93 0 177 -30.5t152 -88.5q0 9 0.5 21t0.5 34q0 169 -72 248t-224 79q-78 0 -155.5 -26.5t-176.5 -77.5h-28v286
q94 41 217 65t220 24q305 0 448.5 -160t143.5 -512zM937 650q-45 40 -92.5 61t-103.5 21q-106 0 -171 -72.5t-65 -215.5q0 -108 49 -165t131 -57q96 0 154 83.5t83 226.5l7.5 54t7.5 64z" />
    <glyph glyph-name="summation" unicode="&#x2211;" horiz-adv-x="1430" 
d="M1351 -189h-1251v279l529 547l-518 568v284h1215v-288h-740l475 -522v-85l-485 -495h775v-288z" />
    <glyph glyph-name="product" unicode="&#x220f;" horiz-adv-x="1780" 
d="M1739 1203h-233v-1396h-384v1396h-464v-1396h-384v1396h-233v286h1698v-286z" />
    <glyph glyph-name="pi1" horiz-adv-x="1452" 
d="M1409 879h-157v-879h-360v879h-332v-879h-360v879h-157v244h1366v-244z" />
    <glyph glyph-name="integral" unicode="&#x222b;" horiz-adv-x="1102" 
d="M1072 1292h-27q-24 7 -62.5 16t-82.5 9q-87 0 -128 -39t-41 -166v-1093q0 -213 -110 -327.5t-331 -114.5q-66 0 -137 5t-123 15v254h27q23 -6 63.5 -15.5t81.5 -9.5q96 0 132.5 41.5t36.5 163.5v1093q0 216 110 329t331 113q80 0 145 -5.5t115 -14.5v-254z" />
    <glyph glyph-name="ordfeminine" unicode="&#xaa;" horiz-adv-x="1224" 
d="M1028 596h-286v95q-51 -47 -122.5 -83t-177.5 -36q-122 0 -206 79t-84 203q0 94 39 157.5t123 101.5q77 36 192 51.5t237 22.5v4q0 75 -57.5 103.5t-172.5 28.5q-70 0 -148.5 -26t-111.5 -39h-25v216q44 12 141 29t196 17q238 0 350.5 -76t112.5 -237v-611zM742 831v187
q-60 -5 -127.5 -13.5t-101.5 -19.5q-41 -13 -63.5 -38.5t-22.5 -69.5q0 -28 5.5 -46t23.5 -33q19 -16 44 -23.5t81 -7.5q39 0 83.5 17.5t77.5 46.5z" />
    <glyph glyph-name="ordmasculine" unicode="&#xba;" horiz-adv-x="1224" 
d="M1097 1043q0 -221 -127.5 -349t-357.5 -128t-357.5 128t-127.5 349q0 222 128 349.5t357 127.5q232 0 358.5 -128t126.5 -349zM747 824q28 36 41 80.5t13 136.5q0 78 -13.5 132t-38.5 87q-25 32 -60.5 46t-76.5 14t-73 -11.5t-60 -44.5q-25 -30 -40.5 -86.5t-15.5 -136.5
t13.5 -131t38.5 -83q24 -31 58.5 -45.5t80.5 -14.5q40 0 74.5 12.5t58.5 44.5z" />
    <glyph glyph-name="uni2126" unicode="&#x2126;" horiz-adv-x="1728" 
d="M1675 0h-716v488q61 37 100.5 63t77.5 78q36 47 54.5 101.5t18.5 147.5q0 74 -21 140.5t-63 114.5q-43 50 -109 78t-153 28q-91 0 -154.5 -28.5t-107.5 -77.5q-43 -48 -63.5 -115.5t-20.5 -139.5q0 -87 19.5 -147t53.5 -104q34 -43 82.5 -77t95.5 -62v-488h-716v288h474
v63q-83 33 -156.5 81t-129.5 117q-56 67 -89 159.5t-33 209.5q0 128 50.5 236t147.5 191q95 82 235 128.5t312 46.5q180 0 316.5 -45.5t233.5 -127.5q94 -80 144.5 -190t50.5 -239q0 -113 -33.5 -207.5t-87.5 -160.5q-56 -68 -128 -116.5t-159 -82.5v-63h474v-288z" />
    <glyph glyph-name="ae" unicode="&#xe6;" horiz-adv-x="2085" 
d="M2001 495h-811q5 -79 35.5 -131t79.5 -83t113 -44.5t139 -13.5q111 0 215.5 40t167.5 89h40v-289q-105 -43 -212.5 -68t-249.5 -25q-153 0 -293 44.5t-248 139.5l-84.5 -60t-103.5 -60q-65 -29 -137.5 -46.5t-182.5 -17.5q-170 0 -276.5 98.5t-106.5 253.5
q0 126 56 202.5t155 121.5q96 43 240.5 63t304.5 29v6q0 93 -70.5 128.5t-219.5 35.5q-89 0 -190 -31.5t-145 -48.5h-33v271q57 15 185.5 35.5t257.5 20.5q153 0 259.5 -29.5t178.5 -81.5q77 50 178 82t216 32q271 0 406.5 -138.5t135.5 -398.5v-126zM1643 706
q-3 111 -54.5 169t-160.5 58q-101 0 -166 -54t-73 -173h454zM877 306q-26 64 -33.5 125.5t-7.5 94.5q-83 -7 -151.5 -15t-122.5 -26q-51 -16 -80.5 -48.5t-29.5 -85.5q0 -29 7 -55t28 -44q21 -20 59.5 -29.5t92.5 -9.5q60 0 121.5 25.5t116.5 67.5z" />
    <glyph glyph-name="oslash" unicode="&#xf8;" horiz-adv-x="1406" 
d="M933 745l-366 -498q28 -19 62.5 -28t76.5 -9q49 0 96.5 17.5t78.5 55.5q35 44 53.5 105.5t18.5 170.5q0 49 -5.5 101t-14.5 85zM479 356l375 509q-30 25 -67.5 36.5t-83.5 11.5q-53 0 -95.5 -14.5t-78.5 -56.5q-34 -38 -54.5 -109t-20.5 -174q0 -62 7 -113.5t18 -89.5z
M284 100q-95 80 -145.5 198t-50.5 263q0 279 162.5 438t452.5 159q94 0 172 -18.5t147 -52.5l121 166h175l-182 -242q87 -77 134.5 -192t47.5 -258q0 -277 -161.5 -436.5t-453.5 -159.5q-86 0 -162.5 16.5t-139.5 46.5l-139 -190h-174z" />
    <glyph glyph-name="questiondown" unicode="&#xbf;" horiz-adv-x="1263" 
d="M901 1225h-404v264h404v-264zM1116 56q-64 -27 -197 -56.5t-270 -29.5q-247 0 -392 109t-145 285q0 101 29.5 178.5t83.5 134.5t129.5 102t170.5 82v228h352v-337q-71 -19 -128.5 -39t-120.5 -65q-58 -41 -92 -93.5t-34 -119.5q0 -100 64.5 -142.5t181.5 -42.5
q72 0 162.5 31t165.5 80h40v-305z" />
    <glyph glyph-name="exclamdown" unicode="&#xa1;" horiz-adv-x="824" 
d="M614 1225h-404v264h404v-264zM621 0h-418l46 1060h326z" />
    <glyph glyph-name="logicalnot" unicode="&#xac;" horiz-adv-x="1776" 
d="M1545 29h-285v528h-1044v269h1329v-797z" />
    <glyph glyph-name="radical" unicode="&#x221a;" horiz-adv-x="1776" 
d="M1897 1839l-895 -2050h-177l-452 981h-239v211h497l338 -752l701 1610h227z" />
    <glyph glyph-name="florin" unicode="&#x192;" horiz-adv-x="1456" 
d="M1381 1221h-42q-26 9 -71 18t-87 9q-94 0 -150 -43.5t-73 -161.5l-23 -169h285v-217h-318l-64 -410q-23 -141 -79 -227.5t-134 -135.5q-75 -46 -160.5 -65t-182.5 -19q-47 0 -107.5 5t-106.5 13v281h32q29 -10 72.5 -18.5t85.5 -8.5q98 0 153.5 48.5t72.5 165.5l56 371
h-179v217h210l32 209q21 139 80 224t137 132q75 47 169.5 64t177.5 17q53 0 106 -4.5t108 -13.5v-281z" />
    <glyph glyph-name="approxequal" unicode="&#x2248;" horiz-adv-x="1776" 
d="M1618 1217q-19 -261 -126 -390.5t-324 -129.5q-96 0 -186.5 46.5t-158.5 102.5q-77 63 -133 89.5t-95 26.5q-76 0 -115.5 -55.5t-52.5 -195.5h-269q18 260 126.5 385.5t323.5 125.5q71 0 151 -31t194 -118q101 -75 147 -95.5t81 -20.5q85 0 122.5 70t45.5 190h269z
M1618 586q-19 -261 -126 -386t-324 -125q-96 0 -186.5 46.5t-158.5 102.5q-77 63 -133 89.5t-95 26.5q-76 0 -115.5 -60t-52.5 -200h-269q18 260 126.5 390t323.5 130q71 0 151 -31t194 -118q100 -76 146.5 -96t81.5 -20q85 0 122.5 65.5t45.5 185.5h269z" />
    <glyph glyph-name="uni2206" unicode="&#x2206;" horiz-adv-x="1650" 
d="M1616 0h-1582l570 1489h442zM1122 286l-302 822l-302 -822h604z" />
    <glyph glyph-name="guillemotleft" unicode="&#xab;" horiz-adv-x="1740" 
d="M819 128l-602 463v135l602 462v-307l-302 -223l302 -223v-307zM1446 128l-602 463v135l602 462v-307l-302 -223l302 -223v-307z" />
    <glyph glyph-name="guillemotright" unicode="&#xbb;" horiz-adv-x="1740" 
d="M1523 591l-602 -463v307l302 223l-302 223v307l602 -462v-135zM896 591l-602 -463v307l302 223l-302 223v307l602 -462v-135z" />
    <glyph glyph-name="ellipsis" unicode="&#x2026;" horiz-adv-x="2148" 
d="M533 0h-350v393h350v-393zM1249 0h-350v393h350v-393zM1965 0h-350v393h350v-393z" />
    <glyph glyph-name="Agrave" unicode="&#xc0;" horiz-adv-x="1590" 
d="M1566 0h-397l-103 301h-552l-103 -301h-387l550 1489h442zM973 574l-183 534l-183 -534h366zM1032 1656h-246l-352 373v20h351z" />
    <glyph glyph-name="Atilde" unicode="&#xc3;" horiz-adv-x="1590" 
d="M1566 0h-397l-103 301h-552l-103 -301h-387l550 1489h442zM973 574l-183 534l-183 -534h366zM1199 1991q-10 -169 -82.5 -250.5t-202.5 -81.5q-47 0 -89.5 18.5t-77.5 39.5q-31 19 -68.5 38.5t-62.5 19.5q-49 0 -65.5 -32t-19.5 -90h-219q6 151 83.5 241t200.5 90
q48 0 91 -17.5t79 -38.5l69 -37.5t59 -17.5q48 0 66 32t20 86h219z" />
    <glyph glyph-name="Otilde" unicode="&#xd5;" horiz-adv-x="1741" 
d="M1638 744q0 -356 -204 -565.5t-564 -209.5q-359 0 -563 209.5t-204 565.5q0 359 204 567.5t563 208.5q358 0 563 -208.5t205 -567.5zM1129 367q56 68 83 160.5t27 217.5q0 134 -31 228t-81 152q-51 60 -117.5 87t-138.5 27q-73 0 -137.5 -26t-118.5 -86
q-50 -56 -81.5 -154.5t-31.5 -228.5q0 -133 30.5 -226.5t80.5 -152.5t117 -87t141 -28t141 28.5t117 88.5zM1315 1991q-10 -169 -82.5 -250.5t-202.5 -81.5q-47 0 -89.5 18.5t-77.5 39.5q-31 19 -68.5 38.5t-62.5 19.5q-49 0 -65.5 -32t-19.5 -90h-219q6 151 83.5 241
t200.5 90q48 0 91 -17.5t79 -38.5l69 -37.5t59 -17.5q48 0 66 32t20 86h219z" />
    <glyph glyph-name="OE" unicode="&#x152;" horiz-adv-x="2325" 
d="M2192 1489v-288h-695v-257h645v-288h-645v-368h695v-288h-1172q-160 0 -309 21t-273 96q-157 96 -246 253.5t-89 375.5q0 202 92.5 366t246.5 258q96 60 226.5 89.5t312.5 29.5h1211zM899 282q46 -4 100 -4h118v932h-126.5t-104.5 -5q-57 -6 -93.5 -16t-86.5 -37
q-102 -57 -154 -160t-52 -249q0 -151 56.5 -254.5t169.5 -160.5q39 -19 84.5 -31t88.5 -15z" />
    <glyph glyph-name="oe" unicode="&#x153;" horiz-adv-x="2187" 
d="M2103 495h-811q5 -79 35.5 -131t79.5 -83t113 -44.5t139 -13.5q111 0 215.5 40t167.5 89h40v-289q-105 -43 -212.5 -68t-249.5 -25q-157 0 -277.5 38.5t-208.5 104.5q-82 -71 -190 -109.5t-241 -38.5q-289 0 -452 159t-163 437q0 279 162.5 438t452.5 159
q133 0 242.5 -39.5t185.5 -105.5q81 66 190 105.5t240 39.5q271 0 406.5 -138.5t135.5 -398.5v-126zM1745 706q-3 111 -54.5 169t-160.5 58q-101 0 -166 -54t-73 -173h454zM945 559q0 99 -18 166t-50 107q-32 41 -77 58t-97 17t-92.5 -14t-77.5 -56q-33 -39 -52.5 -107
t-19.5 -171q0 -92 17 -159.5t50 -108.5q32 -39 76.5 -57t101.5 -18q49 0 93.5 16.5t75.5 55.5q35 43 52.5 103.5t17.5 167.5z" />
    <glyph glyph-name="endash" unicode="&#x2013;" horiz-adv-x="1456" 
d="M1303 528h-1150v268h1150v-268z" />
    <glyph glyph-name="emdash" unicode="&#x2014;" horiz-adv-x="2048" 
d="M1895 528h-1742v268h1742v-268z" />
    <glyph glyph-name="quotedblleft" unicode="&#x201c;" horiz-adv-x="1203" 
d="M1080 967h-234l-291 589h368zM536 967h-234l-291 589h368z" />
    <glyph glyph-name="quotedblright" unicode="&#x201d;" horiz-adv-x="1203" 
d="M648 1556l-291 -589h-234l157 589h368zM1192 1556l-291 -589h-234l157 589h368z" />
    <glyph glyph-name="quoteleft" unicode="&#x2018;" horiz-adv-x="680" 
d="M557 967h-234l-291 589h368z" />
    <glyph glyph-name="quoteright" unicode="&#x2019;" horiz-adv-x="680" 
d="M648 1556l-291 -589h-234l157 589h368z" />
    <glyph glyph-name="divide" unicode="&#xf7;" horiz-adv-x="1776" 
d="M1058 1001h-340v323h340v-323zM1558 528h-1340v268h1340v-268zM1058 0h-340v323h340v-323z" />
    <glyph glyph-name="lozenge" unicode="&#x25ca;" horiz-adv-x="1776" 
d="M1669 704l-781 -845l-781 845l781 845zM1289 704l-401 433l-401 -433l401 -433z" />
    <glyph glyph-name="ydieresis" unicode="&#xff;" horiz-adv-x="1333" 
d="M677 397l256 726h370l-624 -1535h-390l178 420l-437 1115h378zM1095 1283h-297v273h297v-273zM558 1283h-297v273h297v-273z" />
    <glyph glyph-name="Ydieresis" unicode="&#x178;" horiz-adv-x="1509" 
d="M1500 1489l-549 -913v-576h-384v558l-558 931h436l322 -576l311 576h422zM1175 1656h-297v273h297v-273zM638 1656h-297v273h297v-273z" />
    <glyph glyph-name="fraction" unicode="&#x2044;" horiz-adv-x="900" 
d="M977 1498l-785 -1498h-269l785 1498h269z" />
    <glyph glyph-name="fraction" unicode="&#x2215;" horiz-adv-x="900" 
d="M977 1498l-785 -1498h-269l785 1498h269z" />
    <glyph glyph-name="Euro" unicode="&#x20ac;" horiz-adv-x="1456" 
d="M0 527l48 134h58l-2 40.5t-1 41.5q0 24 1 47.5t3 46.5h-107l48 134h79q58 255 245.5 401t475.5 146q163 0 281.5 -32t238.5 -92v-361h-44q-88 87 -190.5 142.5t-226.5 55.5q-125 0 -225.5 -69.5t-144.5 -190.5h295l-48 -134h-277q-2 -22 -3.5 -46.5t-1.5 -48.5
q0 -21 1 -41.5t3 -39.5h213l-48 -134h-138q41 -122 139.5 -195.5t236.5 -73.5q124 0 233 55t186 142h40v-356q-147 -71 -258.5 -99.5t-262.5 -28.5q-293 0 -480.5 146.5t-242.5 409.5h-124z" />
    <glyph glyph-name="guilsinglleft" unicode="&#x2039;" horiz-adv-x="1113" 
d="M819 128l-602 463v135l602 462v-307l-302 -223l302 -223v-307z" />
    <glyph glyph-name="guilsinglright" unicode="&#x203a;" horiz-adv-x="1113" 
d="M896 591l-602 -463v307l302 223l-302 223v307l602 -462v-135z" />
    <glyph glyph-name="uniFB01" unicode="&#xfb01;" horiz-adv-x="1490" 
d="M786.5 1307.5q-39.5 9.5 -75.5 9.5q-99 0 -132.5 -39t-33.5 -146v-9h775v-1123h-360v884h-403v-884h-360v879h-154v244h154v31q0 207 106.5 309.5t317.5 102.5q75 0 139 -5.5t111 -14.5v-254h-26q-19 6 -58.5 15.5zM1330 1283h-360v273h360v-273z" />
    <glyph glyph-name="uniFB02" unicode="&#xfb02;" horiz-adv-x="1496" 
d="M791 1322q-49 0 -86.5 -6t-78.5 -27q-34 -17 -57.5 -52t-23.5 -84v-30h278v-244h-266v-879h-360v879h-154v244h154v29q0 212 135.5 313t420.5 101q81 0 193 -14t150 -18l230 22v-1556h-360v1306q-31 5 -80 10.5t-95 5.5z" />
    <glyph glyph-name="daggerdbl" unicode="&#x2021;" horiz-adv-x="1456" 
d="M1214 510l-364 5l5 -380h-254l5 380l-364 -5v230l365 -5v230l-365 -5v230l364 -5l-5 371h254l-5 -371l364 5v-230l-365 5v-230l365 5v-230z" />
    <glyph glyph-name="uni2219" unicode="&#x2219;" horiz-adv-x="740" 
d="M557 464h-374v393h374v-393z" />
    <glyph glyph-name="quotesinglbase" unicode="&#x201a;" horiz-adv-x="680" 
d="M578 393l-291 -589h-234l157 589h368z" />
    <glyph glyph-name="quotedblbase" unicode="&#x201e;" horiz-adv-x="1203" 
d="M578 393l-291 -589h-234l157 589h368zM1122 393l-291 -589h-234l157 589h368z" />
    <glyph glyph-name="perthousand" unicode="&#x2030;" horiz-adv-x="3640" 
d="M1049 1036q0 -249 -115 -369t-335 -120q-227 0 -341.5 121.5t-114.5 363.5q0 247 117 366.5t339 119.5q224 0 337 -119.5t113 -362.5zM1829 1489l-780 -1489h-269l780 1489h269zM2462 458q0 -249 -115 -369t-335 -120q-227 0 -341.5 121.5t-114.5 363.5q0 247 117 366.5
t339 119.5q224 0 337 -119.5t113 -362.5zM754 1033q0 160 -37 216t-121 56t-121 -56t-37 -217t37 -217t121 -56t121 56t37 218zM2167 455q0 160 -37 216t-121 56t-121 -56t-37 -217t37 -217t121 -56t121 56t37 218zM3496 458q0 -249 -115 -369t-335 -120
q-227 0 -341.5 121.5t-114.5 363.5q0 247 117 366.5t339 119.5q224 0 337 -119.5t113 -362.5zM3201 455q0 160 -37 216t-121 56t-121 -56t-37 -217t37 -217t121 -56t121 56t37 218z" />
    <glyph glyph-name="Acircumflex" unicode="&#xc2;" horiz-adv-x="1590" 
d="M1566 0h-397l-103 301h-552l-103 -301h-387l550 1489h442zM973 574l-183 534l-183 -534h366zM1242 1646h-264l-185 219l-184 -219h-260l321 393h251z" />
    <glyph glyph-name="Ecircumflex" unicode="&#xca;" horiz-adv-x="1399" 
d="M1267 0h-1077v1489h1077v-288h-695v-257h645v-288h-645v-368h695v-288zM1175 1656h-264l-185 219l-184 -219h-260l321 393h251z" />
    <glyph glyph-name="Aacute" unicode="&#xc1;" horiz-adv-x="1590" 
d="M1566 0h-397l-103 301h-552l-103 -301h-387l550 1489h442zM973 574l-183 534l-183 -534h366zM1133 2049v-20l-352 -373h-246l247 393h351z" />
    <glyph glyph-name="Edieresis" unicode="&#xcb;" horiz-adv-x="1399" 
d="M1267 0h-1077v1489h1077v-288h-695v-257h645v-288h-645v-368h695v-288zM1145 1656h-297v273h297v-273zM608 1656h-297v273h297v-273z" />
    <glyph glyph-name="Egrave" unicode="&#xc8;" horiz-adv-x="1399" 
d="M1267 0h-1077v1489h1077v-288h-695v-257h645v-288h-645v-368h695v-288zM979 1656h-246l-352 373v20h351z" />
    <glyph glyph-name="Iacute" unicode="&#xcd;" horiz-adv-x="1118" 
d="M995 0h-872v264h244v961h-244v264h872v-264h-244v-961h244v-264zM913 2049v-20l-352 -373h-246l247 393h351z" />
    <glyph glyph-name="Icircumflex" unicode="&#xce;" horiz-adv-x="1118" 
d="M995 0h-872v264h244v961h-244v264h872v-264h-244v-961h244v-264zM1006 1656h-264l-185 219l-184 -219h-260l321 393h251z" />
    <glyph glyph-name="Idieresis" unicode="&#xcf;" horiz-adv-x="1118" 
d="M995 0h-872v264h244v961h-244v264h872v-264h-244v-961h244v-264zM976 1656h-297v273h297v-273zM439 1656h-297v273h297v-273z" />
    <glyph glyph-name="Igrave" unicode="&#xcc;" horiz-adv-x="1118" 
d="M995 0h-872v264h244v961h-244v264h872v-264h-244v-961h244v-264zM792 1656h-246l-352 373v20h351z" />
    <glyph glyph-name="Oacute" unicode="&#xd3;" horiz-adv-x="1741" 
d="M1638 744q0 -356 -204 -565.5t-564 -209.5q-359 0 -563 209.5t-204 565.5q0 359 204 567.5t563 208.5q358 0 563 -208.5t205 -567.5zM1129 367q56 68 83 160.5t27 217.5q0 134 -31 228t-81 152q-51 60 -117.5 87t-138.5 27q-73 0 -137.5 -26t-118.5 -86
q-50 -56 -81.5 -154.5t-31.5 -228.5q0 -133 30.5 -226.5t80.5 -152.5t117 -87t141 -28t141 28.5t117 88.5zM1224 2049v-20l-352 -373h-246l247 393h351z" />
    <glyph glyph-name="Ocircumflex" unicode="&#xd4;" horiz-adv-x="1741" 
d="M1638 744q0 -356 -204 -565.5t-564 -209.5q-359 0 -563 209.5t-204 565.5q0 359 204 567.5t563 208.5q358 0 563 -208.5t205 -567.5zM1129 367q56 68 83 160.5t27 217.5q0 134 -31 228t-81 152q-51 60 -117.5 87t-138.5 27q-73 0 -137.5 -26t-118.5 -86
q-50 -56 -81.5 -154.5t-31.5 -228.5q0 -133 30.5 -226.5t80.5 -152.5t117 -87t141 -28t141 28.5t117 88.5zM1318 1656h-264l-185 219l-184 -219h-260l321 393h251z" />
    <glyph glyph-name="Ograve" unicode="&#xd2;" horiz-adv-x="1741" 
d="M1638 744q0 -356 -204 -565.5t-564 -209.5q-359 0 -563 209.5t-204 565.5q0 359 204 567.5t563 208.5q358 0 563 -208.5t205 -567.5zM1129 367q56 68 83 160.5t27 217.5q0 134 -31 228t-81 152q-51 60 -117.5 87t-138.5 27q-73 0 -137.5 -26t-118.5 -86
q-50 -56 -81.5 -154.5t-31.5 -228.5q0 -133 30.5 -226.5t80.5 -152.5t117 -87t141 -28t141 28.5t117 88.5zM1115 1656h-246l-352 373v20h351z" />
    <glyph glyph-name="Uacute" unicode="&#xda;" horiz-adv-x="1663" 
d="M1494 539q0 -276 -168 -423t-495 -147t-494.5 147t-167.5 422v951h386v-929q0 -155 65 -231t211 -76q144 0 210.5 73t66.5 234v929h386v-950zM1124 2049v-20l-352 -373h-246l247 393h351z" />
    <glyph glyph-name="Ucircumflex" unicode="&#xdb;" horiz-adv-x="1663" 
d="M1494 539q0 -276 -168 -423t-495 -147t-494.5 147t-167.5 422v951h386v-929q0 -155 65 -231t211 -76q144 0 210.5 73t66.5 234v929h386v-950zM1279 1656h-264l-185 219l-184 -219h-260l321 393h251z" />
    <glyph glyph-name="Ugrave" unicode="&#xd9;" horiz-adv-x="1663" 
d="M1494 539q0 -276 -168 -423t-495 -147t-494.5 147t-167.5 422v951h386v-929q0 -155 65 -231t211 -76q144 0 210.5 73t66.5 234v929h386v-950zM1112 1656h-246l-352 373v20h351z" />
    <glyph glyph-name="dotlessi" unicode="&#x131;" horiz-adv-x="700" 
d="M530 0h-360v1123h360v-1123z" />
    <glyph glyph-name="circumflex" unicode="&#x2c6;" horiz-adv-x="1456" 
d="M1175 1283h-264l-185 219l-184 -219h-260l321 393h251z" />
    <glyph glyph-name="tilde" unicode="&#x2dc;" horiz-adv-x="1456" 
d="M1172 1618q-10 -169 -82.5 -250.5t-202.5 -81.5q-47 0 -89.5 18.5t-77.5 39.5q-31 19 -68.5 38.5t-62.5 19.5q-49 0 -65.5 -32t-19.5 -90h-219q6 151 83.5 241t200.5 90q48 0 91 -17.5t79 -38.5l69 -37.5t59 -17.5q48 0 66 32t20 86h219z" />
    <glyph glyph-name="uni02C9" unicode="&#x2c9;" horiz-adv-x="1456" 
d="M1129 1346h-802v210h802v-210z" />
    <glyph glyph-name="breve" unicode="&#x2d8;" horiz-adv-x="1456" 
d="M1115 1636q0 -178 -101 -279.5t-285 -101.5t-285.5 96.5t-101.5 284.5h223q0 -103 40.5 -153.5t123.5 -50.5q78 0 120.5 50.5t42.5 153.5h223z" />
    <glyph glyph-name="dotaccent" unicode="&#x2d9;" horiz-adv-x="1456" 
d="M913 1283h-370v273h370v-273z" />
    <glyph glyph-name="ring" unicode="&#x2da;" horiz-adv-x="1456" 
d="M1046 1421q0 -128 -92 -214.5t-226 -86.5q-133 0 -225.5 86t-92.5 215t92.5 215t225.5 86q134 0 226 -86.5t92 -214.5zM864 1420q0 62 -38.5 105t-97.5 43t-97.5 -42.5t-38.5 -105.5t38 -104.5t98 -41.5t98 42t38 104z" />
    <glyph glyph-name="cedilla" unicode="&#xb8;" horiz-adv-x="1456" 
d="M1006 -86q0 -162 -99.5 -249.5t-259.5 -87.5q-35 0 -101.5 5.5t-111.5 18.5v200h23q24 -11 70 -23t88 -12q80 0 122.5 41.5t42.5 118.5q0 23 -1 52.5t-1 41.5h223q1 -18 3 -49.5t2 -56.5z" />
    <glyph glyph-name="hungarumlaut" unicode="&#x2dd;" horiz-adv-x="1456" 
d="M1245 1676l-268 -393h-219l179 393h308zM821 1676l-268 -393h-219l179 393h308z" />
    <glyph glyph-name="ogonek" unicode="&#x2db;" horiz-adv-x="1456" 
d="M1012 -393q-48 -13 -112 -18.5t-99 -5.5q-171 0 -262 82.5t-91 235.5q0 35 2.5 63.5t3.5 45.5h214q-1 -25 -2.5 -40.5t-1.5 -53.5q0 -61 48 -102t133 -41q42 0 89.5 12t68.5 22h9v-200z" />
    <glyph glyph-name="caron" unicode="&#x2c7;" horiz-adv-x="1456" 
d="M1176 1676l-321 -393h-251l-321 393h264l185 -227l184 227h260z" />
    <glyph glyph-name="Lslash" unicode="&#x141;" horiz-adv-x="1315" 
d="M1269 0h-1074v475l-171 -140v255l171 137v762h384v-486l342 276v-255l-342 -273v-463h690v-288z" />
    <glyph glyph-name="lslash" unicode="&#x142;" horiz-adv-x="720" 
d="M697 881l-157 -126v-755h-360v550l-156 -127v233l156 124v776h360v-570l157 128v-233z" />
    <glyph glyph-name="Scaron" unicode="&#x160;" horiz-adv-x="1455" 
d="M1382 468q0 -220 -186.5 -357.5t-506.5 -137.5q-185 0 -322.5 32.5t-257.5 82.5v357h42q119 -95 266.5 -146t283.5 -51q35 0 92 6t93 20q44 18 72.5 45t28.5 80q0 49 -41.5 84.5t-121.5 54.5q-84 20 -177.5 37.5t-175.5 44.5q-188 61 -270.5 165.5t-82.5 259.5
q0 208 186.5 339.5t479.5 131.5q147 0 290.5 -28.5t248.5 -71.5v-343h-41q-90 72 -220.5 120.5t-266.5 48.5q-48 0 -95.5 -6.5t-91.5 -24.5q-39 -15 -67 -45.5t-28 -69.5q0 -59 45 -90.5t170 -57.5l157.5 -33t162.5 -44q171 -56 252.5 -152.5t81.5 -250.5zM1196 2049
l-321 -393h-251l-321 393h264l185 -227l184 227h260z" />
    <glyph glyph-name="scaron" unicode="&#x161;" horiz-adv-x="1215" 
d="M1146 356q0 -174 -156 -280.5t-427 -106.5q-150 0 -272 28t-196 62v296h33q27 -19 62.5 -41.5t100.5 -48.5q56 -23 127 -39.5t152 -16.5q106 0 157 23.5t51 69.5q0 41 -30 59.5t-114 35.5q-40 9 -108.5 19.5t-124.5 25.5q-153 40 -227 124.5t-74 210.5q0 162 153.5 269.5
t419.5 107.5q126 0 241.5 -25.5t180.5 -54.5v-284h-31q-80 55 -182.5 89.5t-207.5 34.5q-87 0 -146.5 -24t-59.5 -68q0 -40 27 -61t127 -42q55 -11 118.5 -21.5t127.5 -26.5q142 -37 210 -116.5t68 -198.5zM1078 1676l-321 -393h-251l-321 393h264l185 -227l184 227h260z
" />
    <glyph glyph-name="Zcaron" unicode="&#x17d;" horiz-adv-x="1417" 
d="M1341 0h-1251v279l742 922h-706v288h1175v-284l-741 -917h781v-288zM1154 2049l-321 -393h-251l-321 393h264l185 -227l184 227h260z" />
    <glyph glyph-name="zcaron" unicode="&#x17e;" horiz-adv-x="1222" 
d="M1139 0h-1055v231l592 629h-568v263h1020v-227l-583 -628h594v-268zM1058 1676l-321 -393h-251l-321 393h264l185 -227l184 227h260z" />
    <glyph glyph-name="brokenbar" unicode="&#xa6;" horiz-adv-x="1113" 
d="M702 758h-291v798h291v-798zM702 -392h-291v798h291v-798z" />
    <glyph glyph-name="Eth" unicode="&#xd0;" horiz-adv-x="1700" 
d="M1597 743q0 -208 -95 -372.5t-240 -252.5q-109 -66 -239 -92t-308 -26h-525v679h-162v233h162v577h540q182 0 314 -30.5t222 -86.5q154 -94 242.5 -253.5t88.5 -375.5zM1200 746q0 147 -53.5 251.5t-169.5 163.5q-59 29 -120.5 39.5t-185.5 10.5h-97v-299h317v-233h-317
v-400h97q137 0 201 12.5t125 45.5q105 60 154 160.5t49 248.5z" />
    <glyph glyph-name="eth" unicode="&#xf0;" horiz-adv-x="1391" 
d="M1213 1056q38 -83 61 -182t23 -214q0 -324 -157 -509.5t-454 -185.5q-280 0 -439.5 148t-159.5 404q0 122 43.5 217.5t119.5 163.5q75 65 176 99t213 34q77 0 140 -16.5t115 -41.5q-22 57 -70 125.5t-109 126.5l-335 -132l-77 176l254 97q-80 63 -150.5 105.5
t-123.5 59.5v25h455q11 -4 39 -23l76 -53l228 94l76 -175l-143 -59q55 -57 107 -127t92 -157zM928 607q0 26 -2.5 57.5t-5.5 47.5q-50 39 -103.5 58.5t-113.5 19.5q-120 0 -180.5 -69t-60.5 -198q0 -142 59.5 -224.5t175.5 -82.5q115 0 173 93.5t58 297.5z" />
    <glyph glyph-name="Yacute" unicode="&#xdd;" horiz-adv-x="1509" 
d="M1500 1489l-549 -913v-576h-384v558l-558 931h436l322 -576l311 576h422zM1083 2049v-20l-352 -373h-246l247 393h351z" />
    <glyph glyph-name="yacute" unicode="&#xfd;" horiz-adv-x="1333" 
d="M677 397l256 726h370l-624 -1535h-390l178 420l-437 1115h378zM1043 1676v-20l-352 -373h-246l247 393h351z" />
    <glyph glyph-name="Thorn" unicode="&#xde;" horiz-adv-x="1505" 
d="M1419 794q0 -102 -35.5 -196.5t-102.5 -159.5q-81 -79 -196.5 -127.5t-285.5 -48.5h-225v-262h-384v1489h384v-225h234q143 0 241.5 -23.5t180.5 -74.5q92 -58 140.5 -151t48.5 -221zM1022 785q0 65 -32 110t-81 63q-61 22 -115 25t-151 3h-69v-446h94q103 0 170.5 10
t113.5 49q38 33 54 74.5t16 111.5z" />
    <glyph glyph-name="thorn" unicode="&#xfe;" horiz-adv-x="1432" 
d="M1342 577q0 -139 -42.5 -253t-111.5 -188q-72 -78 -163 -118t-195 -40q-96 0 -163 20.5t-137 57.5v-468h-360v1968h360v-550q83 66 169.5 107t199.5 41q210 0 326.5 -154t116.5 -423zM971 570q0 164 -56 238t-177 74q-51 0 -105 -15.5t-103 -44.5v-565q36 -14 77 -18
t81 -4q143 0 213 83.5t70 251.5z" />
    <glyph glyph-name="minus" unicode="&#x2212;" horiz-adv-x="1776" 
d="M1540 528h-1304v268h1304v-268z" />
    <glyph glyph-name="multiply" unicode="&#xd7;" horiz-adv-x="1776" 
d="M1512 1099l-437 -437l437 -437l-187 -187l-437 437l-437 -437l-187 187l437 437l-437 437l187 187l437 -437l437 437z" />
    <glyph glyph-name="uni00B9" unicode="&#xb9;" horiz-adv-x="1224" 
d="M986 566h-698v188h217v426h-226v178q114 0 183.5 29.5t78.5 105.5h238v-739h207v-188z" />
    <glyph glyph-name="uni00B2" unicode="&#xb2;" horiz-adv-x="1224" 
d="M1037 566h-807v189l144 89t127 89q112 87 139.5 139.5t27.5 106.5q0 59 -40.5 90.5t-119.5 31.5q-57 0 -125.5 -24t-123.5 -56h-23v237q65 23 160.5 42t191.5 19q185 0 285.5 -73t100.5 -213q0 -81 -35 -155t-155 -179q-34 -30 -83.5 -65.5l-85.5 -61.5h422v-206z" />
    <glyph glyph-name="uni00B3" unicode="&#xb3;" horiz-adv-x="1224" 
d="M1012 828q0 -140 -108.5 -213t-321.5 -73q-129 0 -216 18t-142 40v216h22q42 -23 121.5 -46.5t155.5 -23.5q99 0 148.5 23t49.5 79q0 48 -32.5 70t-127.5 22h-153v195h137q75 0 113 21.5t38 71.5q0 46 -41.5 66.5t-130.5 20.5q-66 0 -143.5 -24t-118.5 -46h-23v213
q64 22 153 41.5t208 19.5q178 0 283.5 -60t105.5 -178q0 -90 -48.5 -145.5t-124.5 -80.5v-8q87 -17 141.5 -72.5t54.5 -146.5z" />
    <glyph glyph-name="onehalf" unicode="&#xbd;" horiz-adv-x="2420" 
d="M690 559h-277v607h-234v182q112 0 186.5 35.5t82.5 109.5h242v-934zM1654 1498l-785 -1498h-269l785 1498h269zM2283 -1h-807v189l144 89t127 89q112 87 139.5 139.5t27.5 106.5q0 59 -40.5 90.5t-119.5 31.5q-57 0 -125.5 -24t-123.5 -56h-23v237q65 23 160.5 42
t191.5 19q185 0 285.5 -73t100.5 -213q0 -81 -35 -155t-155 -179q-34 -30 -83.5 -65.5l-85.5 -61.5h422v-206z" />
    <glyph glyph-name="onequarter" unicode="&#xbc;" horiz-adv-x="2420" 
d="M710 559h-277v607h-234v182q112 0 186.5 35.5t82.5 109.5h242v-934zM1689 1498l-785 -1498h-269l785 1498h269zM2262 197h-167v-197h-262v197h-474v261l459 486h277v-561h167v-186zM1837 383v338l-326 -338h326z" />
    <glyph glyph-name="threequarters" unicode="&#xbe;" horiz-adv-x="2420" 
d="M965 828q0 -140 -108.5 -213t-321.5 -73q-129 0 -216 18t-142 40v216h22q42 -23 121.5 -46.5t155.5 -23.5q99 0 148.5 23t49.5 79q0 48 -32.5 70t-127.5 22h-153v195h137q75 0 113 21.5t38 71.5q0 46 -41.5 66.5t-130.5 20.5q-66 0 -143.5 -24t-118.5 -46h-23v213
q64 22 153 41.5t208 19.5q178 0 283.5 -60t105.5 -178q0 -90 -48.5 -145.5t-124.5 -80.5v-8q87 -17 141.5 -72.5t54.5 -146.5zM1784 1498l-785 -1498h-269l785 1498h269zM2311 197h-167v-197h-262v197h-474v261l459 486h277v-561h167v-186zM1886 383v338l-326 -338h326z" />
    <glyph glyph-name="franc" unicode="&#x20a3;" horiz-adv-x="1456" 
d="M1309 1201h-660v-251h620v-288h-620v-186h352v-219h-352v-257h-372v257h-176v219h176v1013h1032v-288z" />
    <glyph glyph-name="Gbreve" unicode="&#x11e;" horiz-adv-x="1661" 
d="M1507 85q-100 -39 -265 -77.5t-329 -38.5q-380 0 -595 206.5t-215 570.5q0 347 217 559.5t605 212.5q147 0 280 -26.5t296 -105.5v-349h-43l-82 59.5t-104 65.5q-58 32 -135.5 55t-164.5 23q-102 0 -185 -30t-149 -92q-63 -60 -99.5 -152.5t-36.5 -213.5q0 -247 131 -378
t387 -131q22 0 48.5 1t48.5 3v292h-297v281h687v-735zM1271 2009q0 -178 -101 -279.5t-285 -101.5t-285.5 96.5t-101.5 284.5h223q0 -103 40.5 -153.5t123.5 -50.5q78 0 120.5 50.5t42.5 153.5h223z" />
    <glyph glyph-name="gbreve" unicode="&#x11f;" horiz-adv-x="1432" 
d="M1262 129q0 -158 -45 -266t-126 -169q-81 -62 -195.5 -89.5t-258.5 -27.5q-117 0 -230.5 14t-196.5 34v281h44q66 -26 161 -47.5t170 -21.5q100 0 162.5 18.5t95.5 52.5q31 32 45 82t14 120v21q-65 -53 -144 -84t-176 -31q-236 0 -364 142t-128 432q0 139 39 240t110 176
q66 70 162.5 109t197.5 39q91 0 165.5 -21.5t135.5 -59.5l13 50h349v-994zM902 354v509q-31 13 -76 20.5t-81 7.5q-142 0 -213 -81.5t-71 -227.5q0 -162 60.5 -226t179.5 -64q54 0 106 17t95 45zM1112 1636q0 -178 -101 -279.5t-285 -101.5t-285.5 96.5t-101.5 284.5h223
q0 -103 40.5 -153.5t123.5 -50.5q78 0 120.5 50.5t42.5 153.5h223z" />
    <glyph glyph-name="Idotaccent" unicode="&#x130;" horiz-adv-x="1118" 
d="M995 0h-872v264h244v961h-244v264h872v-264h-244v-961h244v-264zM743 1656h-370v273h370v-273z" />
    <glyph glyph-name="Scedilla" unicode="&#x15e;" horiz-adv-x="1455" 
d="M793 -21q-24 -2 -51 -3t-53 -1q-185 0 -322.5 31.5t-257.5 81.5v357h42q119 -95 266.5 -146t283.5 -51q35 0 92 5.5t93 20.5q44 18 72.5 45t28.5 80q0 49 -41.5 84.5t-121.5 54.5q-84 20 -177.5 37.5t-175.5 44.5q-188 61 -270.5 165.5t-82.5 259.5q0 208 186.5 339.5
t479.5 131.5q147 0 290.5 -28.5t248.5 -71.5v-343h-41q-90 72 -220.5 120.5t-266.5 48.5q-48 0 -95.5 -6.5t-91.5 -24.5q-39 -15 -67 -45.5t-28 -69.5q0 -59 45 -90.5t170 -57.5l158 -32.5t162 -44.5q171 -56 252.5 -152.5t81.5 -250.5q0 -156 -94.5 -272t-273.5 -174
q2 -21 3.5 -53.5t1.5 -54.5q0 -162 -99.5 -249.5t-259.5 -87.5q-35 0 -101.5 5.5t-111.5 18.5v200h23q24 -11 70 -23t88 -12q80 0 122.5 41.5t42.5 118.5v53z" />
    <glyph glyph-name="scedilla" unicode="&#x15f;" horiz-adv-x="1215" 
d="M665 -25q-24 -2 -50.5 -3t-51.5 -1q-150 0 -272 27t-196 61v296h33q27 -19 62.5 -41.5t100.5 -48.5q56 -22 127 -39t152 -17q106 0 157 23.5t51 69.5q0 41 -30 59.5t-114 35.5q-41 8 -109 19t-124 26q-153 40 -227 124.5t-74 210.5q0 162 153.5 269.5t419.5 107.5
q126 0 241.5 -25.5t180.5 -54.5v-284h-31q-80 55 -182.5 89.5t-207.5 34.5q-87 0 -146.5 -24t-59.5 -68q0 -40 27 -61t127 -42q55 -11 118.5 -21.5t127.5 -26.5q142 -37 210 -116.5t68 -198.5q0 -113 -68 -199t-192 -134q1 -20 3 -53t2 -56q0 -162 -99.5 -249.5
t-259.5 -87.5q-35 0 -101.5 5.5t-111.5 18.5v200h23q24 -11 70 -23t88 -12q80 0 122.5 41.5t42.5 118.5v49z" />
    <glyph glyph-name="Cacute" unicode="&#x106;" horiz-adv-x="1482" 
d="M863 -29q-166 0 -306.5 49t-241.5 146t-156.5 242t-55.5 335q0 177 53 321t154 247q97 99 240.5 153t313.5 54q94 0 169.5 -10.5t139.5 -27.5q67 -19 121.5 -42.5t95.5 -43.5v-361h-44q-28 24 -70.5 57t-96.5 65q-55 32 -119 54t-137 22q-81 0 -154 -25.5t-135 -84.5
q-59 -57 -95.5 -151t-36.5 -228q0 -140 39.5 -234t99.5 -148q61 -55 136 -78.5t148 -23.5q70 0 138.5 21t126.5 57q49 29 91 62t69 57h40v-356l-107 -47t-107 -38q-73 -21 -137 -32t-176 -11zM1185 2049v-20l-352 -373h-246l247 393h351z" />
    <glyph glyph-name="cacute" unicode="&#x107;" horiz-adv-x="1205" 
d="M755 -30q-147 0 -268.5 35t-211.5 108q-89 73 -138 184t-49 260q0 157 52.5 271t146.5 189q91 71 210 104t247 33q115 0 212 -25t181 -65v-307h-51l-50.5 42t-72.5 47q-41 22 -90 36.5t-114 14.5q-144 0 -221.5 -91.5t-77.5 -248.5q0 -162 79.5 -246t225.5 -84
q68 0 122.5 15.5t90.5 36.5q34 20 60 42t48 43h51v-307q-85 -40 -177.5 -63.5t-204.5 -23.5zM1060 1676v-20l-352 -373h-246l247 393h351z" />
    <glyph glyph-name="Ccaron" unicode="&#x10c;" horiz-adv-x="1482" 
d="M863 -29q-166 0 -306.5 49t-241.5 146t-156.5 242t-55.5 335q0 177 53 321t154 247q97 99 240.5 153t313.5 54q94 0 169.5 -10.5t139.5 -27.5q67 -19 121.5 -42.5t95.5 -43.5v-361h-44q-28 24 -70.5 57t-96.5 65q-55 32 -119 54t-137 22q-81 0 -154 -25.5t-135 -84.5
q-59 -57 -95.5 -151t-36.5 -228q0 -140 39.5 -234t99.5 -148q61 -55 136 -78.5t148 -23.5q70 0 138.5 21t126.5 57q49 29 91 62t69 57h40v-356l-107 -47t-107 -38q-73 -21 -137 -32t-176 -11zM1292 2049l-321 -393h-251l-321 393h264l185 -227l184 227h260z" />
    <glyph glyph-name="ccaron" unicode="&#x10d;" horiz-adv-x="1205" 
d="M755 -30q-147 0 -268.5 35t-211.5 108q-89 73 -138 184t-49 260q0 157 52.5 271t146.5 189q91 71 210 104t247 33q115 0 212 -25t181 -65v-307h-51l-50.5 42t-72.5 47q-41 22 -90 36.5t-114 14.5q-144 0 -221.5 -91.5t-77.5 -248.5q0 -162 79.5 -246t225.5 -84
q68 0 122.5 15.5t90.5 36.5q34 20 60 42t48 43h51v-307q-85 -40 -177.5 -63.5t-204.5 -23.5zM1128 1676l-321 -393h-251l-321 393h264l185 -227l184 227h260z" />
    <glyph glyph-name="dcroat" unicode="&#x111;" horiz-adv-x="1432" 
d="M1262 0h-360v117q-93 -76 -174 -112t-187 -36q-205 0 -328 158t-123 426q0 143 41.5 253.5t113.5 189.5q68 75 165 116.5t194 41.5q101 0 165.5 -21.5t132.5 -54.5v159h-326v207h326v112h360v-112h129v-207h-129v-1237zM902 310v551q-38 16 -80 23t-77 7
q-142 0 -213 -88.5t-71 -245.5q0 -165 57 -239.5t183 -74.5q49 0 104 18.5t97 48.5z" />
    <glyph glyph-name="macron" unicode="&#xaf;" horiz-adv-x="1456" 
d="M1472 1628h-1488v211h1488v-211z" />
    <glyph glyph-name="periodcentered" unicode="&#xb7;" horiz-adv-x="740" 
d="M557 464h-374v393h374v-393z" />
    <glyph glyph-name="Abreve" unicode="&#x102;" horiz-adv-x="1590" 
d="M1566 0h-397l-103 301h-552l-103 -301h-387l550 1489h442zM973 574l-183 534l-183 -534h366zM1181 2009q0 -178 -101 -279.5t-285 -101.5t-285.5 96.5t-101.5 284.5h223q0 -103 40.5 -153.5t123.5 -50.5q78 0 120.5 50.5t42.5 153.5h223z" />
    <glyph glyph-name="abreve" unicode="&#x103;" horiz-adv-x="1368" 
d="M850 293v234q-73 -6 -158 -16.5t-129 -24.5q-54 -17 -82.5 -49.5t-28.5 -85.5q0 -35 6 -57t30 -42q23 -20 55 -29.5t100 -9.5q54 0 109.5 22t97.5 58zM850 119l-72 -53t-81 -49q-53 -24 -110 -35.5t-125 -11.5q-160 0 -268 99t-108 253q0 123 55 201t156 123
q100 45 248 64t307 28v6q0 93 -76 128.5t-224 35.5q-89 0 -190 -31.5t-145 -48.5h-33v271q57 15 185.5 35.5t257.5 20.5q307 0 443.5 -94.5t136.5 -296.5v-764h-357v119zM1060 1636q0 -178 -101 -279.5t-285 -101.5t-285.5 96.5t-101.5 284.5h223q0 -103 40.5 -153.5
t123.5 -50.5q78 0 120.5 50.5t42.5 153.5h223z" />
    <glyph glyph-name="Aogonek" unicode="&#x104;" horiz-adv-x="1590" 
d="M1144 73l-78 228h-552l-103 -301h-387l550 1489h442l550 -1489h-239q-2 -22 -3 -42t-1 -42q0 -61 48 -102t133 -41q42 0 89.5 12t68.5 22h9v-200q-48 -13 -112 -18.5t-99 -5.5q-171 0 -262 82.5t-91 235.5q0 59 13.5 101zM973 574l-183 534l-183 -534h366z" />
    <glyph glyph-name="aogonek" unicode="&#x105;" horiz-adv-x="1368" 
d="M850 293v234q-73 -6 -158 -16.5t-129 -24.5q-54 -17 -82.5 -49.5t-28.5 -85.5q0 -35 6 -57t30 -42q22 -20 54.5 -29.5t100.5 -9.5q54 0 109.5 22t97.5 58zM850 119l-71.5 -53t-81.5 -49q-53 -24 -110 -35.5t-125 -11.5q-160 0 -268 99t-108 253q0 123 55 201t156 123
q100 44 248 63.5t307 28.5v6q0 93 -76 128.5t-224 35.5q-89 0 -190 -31.5t-145 -48.5h-33v271q57 15 185.5 35.5t257.5 20.5q307 0 443.5 -94.5t136.5 -296.5v-764h-145q-2 -22 -3 -42t-1 -42q0 -61 48 -102t133 -41q42 0 89.5 12t68.5 22h9v-200q-48 -13 -112 -18.5
t-99 -5.5q-171 0 -262 82.5t-91 235.5q0 74 3.5 136.5z" />
    <glyph glyph-name="Dcaron" unicode="&#x10e;" horiz-adv-x="1700" 
d="M1597 743q0 -208 -95 -372.5t-240 -252.5q-109 -66 -239 -92t-308 -26h-525v1489h540q182 0 314 -30.5t222 -86.5q154 -94 242.5 -253.5t88.5 -375.5zM1200 746q0 147 -53.5 251.5t-169.5 163.5q-59 29 -120.5 39.5t-185.5 10.5h-97v-932h97q137 0 201 12.5t125 45.5
q105 60 154 160.5t49 248.5zM1267 2049l-321 -393h-251l-321 393h264l185 -227l184 227h260z" />
    <glyph glyph-name="dcaron" unicode="&#x10f;" horiz-adv-x="1802" 
d="M1262 0h-360v117q-93 -76 -174 -112t-187 -36q-205 0 -328 158t-123 426q0 143 41.5 253.5t113.5 189.5q68 75 165 116.5t194 41.5q101 0 165.5 -21.5t132.5 -54.5v478h360v-1556zM902 310v551q-38 16 -80 23t-77 7q-142 0 -213 -88.5t-71 -245.5q0 -165 57 -239.5
t183 -74.5q49 0 104 18.5t97 48.5zM1901 1556l-291 -589h-234l157 589h368z" />
    <glyph glyph-name="Dcroat" unicode="&#x110;" horiz-adv-x="1700" 
d="M1597 743q0 -208 -95 -372.5t-240 -252.5q-109 -66 -239 -92t-308 -26h-525v679h-162v233h162v577h540q182 0 314 -30.5t222 -86.5q154 -94 242.5 -253.5t88.5 -375.5zM1200 746q0 147 -53.5 251.5t-169.5 163.5q-59 29 -120.5 39.5t-185.5 10.5h-97v-299h317v-233h-317
v-400h97q137 0 201 12.5t125 45.5q105 60 154 160.5t49 248.5z" />
    <glyph glyph-name="Eogonek" unicode="&#x118;" horiz-adv-x="1399" 
d="M791 0h-601v1489h1077v-288h-695v-257h645v-288h-645v-368h695v-288h-261q-1 -12 -2.5 -35t-1.5 -49q0 -61 48 -102t133 -41q42 0 89.5 12t68.5 22h9v-200q-48 -13 -112 -18.5t-99 -5.5q-171 0 -262 82.5t-91 235.5q0 35 2 58.5t3 40.5z" />
    <glyph glyph-name="eogonek" unicode="&#x119;" horiz-adv-x="1360" 
d="M1246 -193h9v-200q-48 -13 -112 -18.5t-99 -5.5q-171 0 -262 82.5t-91 235.5q0 23 1 39l2 33q-294 21 -450 171t-156 411q0 278 170.5 440.5t467.5 162.5q274 0 412 -138.5t138 -398.5v-126h-824q8 -132 100.5 -202t272.5 -70q114 0 221 41t169 88h40v-289
q-91 -36 -174.5 -58t-172.5 -30q-1 -11 -1 -22v-37q0 -61 48 -102t133 -41q42 0 89.5 12t68.5 22zM918 706q-3 113 -56 170t-165 57q-104 0 -171 -54t-75 -173h467z" />
    <glyph glyph-name="Ecaron" unicode="&#x11a;" horiz-adv-x="1399" 
d="M1267 0h-1077v1489h1077v-288h-695v-257h645v-288h-645v-368h695v-288zM1181 2049l-321 -393h-251l-321 393h264l185 -227l184 227h260z" />
    <glyph glyph-name="ecaron" unicode="&#x11b;" horiz-adv-x="1360" 
d="M1276 495h-824q8 -132 100.5 -202t272.5 -70q114 0 221 41t169 88h40v-289q-122 -49 -230 -71t-239 -22q-338 0 -518 152t-180 433q0 278 170.5 440.5t467.5 162.5q274 0 412 -138.5t138 -398.5v-126zM918 706q-3 113 -56 170t-165 57q-104 0 -171 -54t-75 -173h467z
M1161 1676l-321 -393h-251l-321 393h264l185 -227l184 227h260z" />
    <glyph glyph-name="Lacute" unicode="&#x139;" horiz-adv-x="1305" 
d="M1264 0h-1074v1489h384v-1201h690v-288zM933 2049v-20l-352 -373h-246l247 393h351z" />
    <glyph glyph-name="lacute" unicode="&#x13a;" horiz-adv-x="700" 
d="M530 0h-360v1556h360v-1556zM719 2049v-20l-352 -373h-246l247 393h351z" />
    <glyph glyph-name="Lcaron" unicode="&#x13d;" horiz-adv-x="1305" 
d="M1264 0h-1074v1489h384v-1201h690v-288zM1291 1556l-291 -589h-234l157 589h368z" />
    <glyph glyph-name="lcaron" unicode="&#x13e;" horiz-adv-x="1070" 
d="M530 0h-360v1556h360v-1556zM1169 1556l-291 -589h-234l157 589h368z" />
    <glyph glyph-name="Ldot" unicode="&#x13f;" horiz-adv-x="1305" 
d="M1264 0h-1074v1489h384v-1201h690v-288zM1222 584h-374v393h374v-393z" />
    <glyph glyph-name="ldot" unicode="&#x140;" horiz-adv-x="1140" 
d="M530 0h-360v1556h360v-1556zM1102 584h-364v393h364v-393z" />
    <glyph glyph-name="Nacute" unicode="&#x143;" horiz-adv-x="1734" 
d="M1544 0h-370l-632 1022v-1022h-352v1489h459l543 -853v853h352v-1489zM1251 2049v-20l-352 -373h-246l247 393h351z" />
    <glyph glyph-name="nacute" unicode="&#x144;" horiz-adv-x="1459" 
d="M1298 0h-362v557q0 68 -7 135.5t-24 99.5q-20 37 -58.5 54t-107.5 17q-49 0 -99.5 -16t-109.5 -51v-796h-360v1123h360v-124q96 75 184.5 115t196.5 40q182 0 284.5 -106t102.5 -317v-731zM1099 1676v-20l-352 -373h-246l247 393h351z" />
    <glyph glyph-name="Ncaron" unicode="&#x147;" horiz-adv-x="1734" 
d="M1544 0h-370l-632 1022v-1022h-352v1489h459l543 -853v853h352v-1489zM1333 2049l-321 -393h-251l-321 393h264l185 -227l184 227h260z" />
    <glyph glyph-name="ncaron" unicode="&#x148;" horiz-adv-x="1459" 
d="M1298 0h-362v557q0 68 -7 135.5t-24 99.5q-20 37 -58.5 54t-107.5 17q-49 0 -99.5 -16t-109.5 -51v-796h-360v1123h360v-124q96 75 184.5 115t196.5 40q182 0 284.5 -106t102.5 -317v-731zM1189 1676l-321 -393h-251l-321 393h264l185 -227l184 227h260z" />
    <glyph glyph-name="Ohungarumlaut" unicode="&#x150;" horiz-adv-x="1741" 
d="M1638 744q0 -356 -204 -565.5t-564 -209.5q-359 0 -563 209.5t-204 565.5q0 359 204 567.5t563 208.5q358 0 563 -208.5t205 -567.5zM1129 367q56 68 83 160.5t27 217.5q0 134 -31 228t-81 152q-51 60 -117.5 87t-138.5 27q-73 0 -137.5 -26t-118.5 -86
q-50 -56 -81.5 -154.5t-31.5 -228.5q0 -133 30.5 -226.5t80.5 -152.5t117 -87t141 -28t141 28.5t117 88.5zM1395 2049l-268 -393h-219l179 393h308zM971 2049l-268 -393h-219l179 393h308z" />
    <glyph glyph-name="ohungarumlaut" unicode="&#x151;" horiz-adv-x="1406" 
d="M1318 561q0 -277 -161.5 -436.5t-453.5 -159.5t-453.5 159.5t-161.5 436.5q0 279 162.5 438t452.5 159q294 0 454.5 -160t160.5 -437zM875 288q35 43 52.5 103.5t17.5 167.5q0 99 -18 166t-50 107q-32 41 -77 58t-97 17t-92.5 -14t-77.5 -56q-33 -39 -52.5 -107
t-19.5 -171q0 -92 17 -159.5t50 -108.5q32 -39 76.5 -57t101.5 -18q49 0 93.5 16.5t75.5 55.5zM1234 1676l-268 -393h-219l179 393h308zM810 1676l-268 -393h-219l179 393h308z" />
    <glyph glyph-name="Racute" unicode="&#x154;" horiz-adv-x="1602" 
d="M1025 1033q0 56 -23 96t-79 63q-39 16 -91 19.5t-121 3.5h-139v-401h118q92 0 154 9t104 41q40 31 58.5 68.5t18.5 100.5zM1624 0h-469l-406 546h-177v-546h-382v1489h644q132 0 227 -15t178 -65q84 -50 133.5 -129.5t49.5 -199.5q0 -165 -76.5 -269t-218.5 -173z
M1163 2049v-20l-352 -373h-246l247 393h351z" />
    <glyph glyph-name="racute" unicode="&#x155;" horiz-adv-x="1018" 
d="M984 780h-32q-23 8 -74 12t-85 4q-77 0 -136 -10t-127 -34v-752h-360v1123h360v-165q119 102 207 135.5t162 33.5q19 0 43 -1t42 -3v-343zM923 1676v-20l-352 -373h-246l247 393h351z" />
    <glyph glyph-name="Rcaron" unicode="&#x158;" horiz-adv-x="1602" 
d="M1025 1033q0 56 -23 96t-79 63q-39 16 -91 19.5t-121 3.5h-139v-401h118q92 0 154 9t104 41q40 31 58.5 68.5t18.5 100.5zM1624 0h-469l-406 546h-177v-546h-382v1489h644q132 0 227 -15t178 -65q84 -50 133.5 -129.5t49.5 -199.5q0 -165 -76.5 -269t-218.5 -173z
M1233 2049l-321 -393h-251l-321 393h264l185 -227l184 227h260z" />
    <glyph glyph-name="rcaron" unicode="&#x159;" horiz-adv-x="1018" 
d="M984 780h-32q-23 8 -74 12t-85 4q-77 0 -136 -10t-127 -34v-752h-360v1123h360v-165q119 102 207 135.5t162 33.5q19 0 43 -1t42 -3v-343zM999 1676l-321 -393h-251l-321 393h264l185 -227l184 227h260z" />
    <glyph glyph-name="Sacute" unicode="&#x15a;" horiz-adv-x="1455" 
d="M1382 468q0 -220 -186.5 -357.5t-506.5 -137.5q-185 0 -322.5 32.5t-257.5 82.5v357h42q119 -95 266.5 -146t283.5 -51q35 0 92 6t93 20q44 18 72.5 45t28.5 80q0 49 -41.5 84.5t-121.5 54.5q-84 20 -177.5 37.5t-175.5 44.5q-188 61 -270.5 165.5t-82.5 259.5
q0 208 186.5 339.5t479.5 131.5q147 0 290.5 -28.5t248.5 -71.5v-343h-41q-90 72 -220.5 120.5t-266.5 48.5q-48 0 -95.5 -6.5t-91.5 -24.5q-39 -15 -67 -45.5t-28 -69.5q0 -59 45 -90.5t170 -57.5l157.5 -33t162.5 -44q171 -56 252.5 -152.5t81.5 -250.5zM1151 2049v-20
l-352 -373h-246l247 393h351z" />
    <glyph glyph-name="sacute" unicode="&#x15b;" horiz-adv-x="1215" 
d="M1146 356q0 -174 -156 -280.5t-427 -106.5q-150 0 -272 28t-196 62v296h33q27 -19 62.5 -41.5t100.5 -48.5q56 -23 127 -39.5t152 -16.5q106 0 157 23.5t51 69.5q0 41 -30 59.5t-114 35.5q-40 9 -108.5 19.5t-124.5 25.5q-153 40 -227 124.5t-74 210.5q0 162 153.5 269.5
t419.5 107.5q126 0 241.5 -25.5t180.5 -54.5v-284h-31q-80 55 -182.5 89.5t-207.5 34.5q-87 0 -146.5 -24t-59.5 -68q0 -40 27 -61t127 -42q55 -11 118.5 -21.5t127.5 -26.5q142 -37 210 -116.5t68 -198.5zM1010 1676v-20l-352 -373h-246l247 393h351z" />
    <glyph glyph-name="uni0162" unicode="&#x162;" horiz-adv-x="1396" 
d="M1355 1201h-465v-1181h89q1 -18 3 -49.5t2 -56.5q0 -162 -99.5 -249.5t-259.5 -87.5q-35 0 -101.5 5.5t-111.5 18.5v200h23q24 -11 70 -23t88 -12q80 0 122.5 41.5t42.5 118.5q0 23 -0.5 44t-1.5 30h-250v1201h-465v288h1314v-288z" />
    <glyph glyph-name="uni0163" unicode="&#x163;" horiz-adv-x="933" 
d="M592 -74q0 11 -0.5 25t-0.5 27q-202 3 -301 89t-99 287v525h-148v244h148v321h360v-321h337v-244h-337v-398q0 -59 1 -103t16 -79q14 -35 49.5 -55.5t103.5 -20.5q28 0 73.5 12t63.5 22h30v-247l-36.5 -8.5t-37.5 -7.5q1 -18 2.5 -40.5t1.5 -39.5q0 -162 -99.5 -249.5
t-259.5 -87.5q-35 0 -101.5 5.5t-111.5 18.5v200h23q24 -11 70 -23t88 -12q80 0 122.5 41.5t42.5 118.5z" />
    <glyph glyph-name="Tcaron" unicode="&#x164;" horiz-adv-x="1396" 
d="M1355 1201h-465v-1201h-384v1201h-465v288h1314v-288zM1144 2049l-321 -393h-251l-321 393h264l185 -227l184 227h260z" />
    <glyph glyph-name="tcaron" unicode="&#x165;" horiz-adv-x="953" 
d="M888 10q-58 -15 -123 -23.5t-159 -8.5q-210 0 -312.5 85t-102.5 291v525h-148v244h148v321h360v-321h337v-244h-337v-398q0 -59 1 -103t16 -79q14 -35 49.5 -55.5t103.5 -20.5q28 0 73.5 12t63.5 22h30v-247zM1176 1846l-233 -547h-224l119 547h338z" />
    <glyph glyph-name="Uring" unicode="&#x16e;" horiz-adv-x="1663" 
d="M1494 539q0 -276 -168 -423t-495 -147t-494.5 147t-167.5 422v951h386v-929q0 -155 65 -231t211 -76q144 0 210.5 73t66.5 234v929h386v-950zM1149 1731q0 -128 -92 -214.5t-226 -86.5q-133 0 -225.5 86t-92.5 215t92.5 215t225.5 86q134 0 226 -86.5t92 -214.5z
M967 1730q0 62 -38.5 105t-97.5 43t-97.5 -42.5t-38.5 -105.5t38 -104.5t98 -41.5t98 42t38 104z" />
    <glyph glyph-name="uring" unicode="&#x16f;" horiz-adv-x="1459" 
d="M1289 0h-360v124q-100 -76 -183 -115.5t-198 -39.5q-186 0 -286.5 107t-100.5 316v731h362v-557q0 -85 5.5 -141.5t25.5 -93.5q19 -37 57.5 -54t107.5 -17q46 0 102 17t108 50v796h360v-1123zM1044 1421q0 -128 -92 -214.5t-226 -86.5q-133 0 -225.5 86t-92.5 215
t92.5 215t225.5 86q134 0 226 -86.5t92 -214.5zM862 1420q0 62 -38.5 105t-97.5 43t-97.5 -42.5t-38.5 -105.5t38 -104.5t98 -41.5t98 42t38 104z" />
    <glyph glyph-name="Uhungarumlaut" unicode="&#x170;" horiz-adv-x="1663" 
d="M1494 539q0 -276 -168 -423t-495 -147t-494.5 147t-167.5 422v951h386v-929q0 -155 65 -231t211 -76q144 0 210.5 73t66.5 234v929h386v-950zM1354 2049l-268 -393h-219l179 393h308zM930 2049l-268 -393h-219l179 393h308z" />
    <glyph glyph-name="uhungarumlaut" unicode="&#x171;" horiz-adv-x="1459" 
d="M1289 0h-360v124q-100 -76 -183 -115.5t-198 -39.5q-186 0 -286.5 107t-100.5 316v731h362v-557q0 -85 5.5 -141.5t25.5 -93.5q19 -37 57.5 -54t107.5 -17q46 0 102 17t108 50v796h360v-1123zM1256 1676l-268 -393h-219l179 393h308zM832 1676l-268 -393h-219l179 393
h308z" />
    <glyph glyph-name="Zacute" unicode="&#x179;" horiz-adv-x="1417" 
d="M1341 0h-1251v279l742 922h-706v288h1175v-284l-741 -917h781v-288zM1120 2049v-20l-352 -373h-246l247 393h351z" />
    <glyph glyph-name="zacute" unicode="&#x17a;" horiz-adv-x="1222" 
d="M1139 0h-1055v231l592 629h-568v263h1020v-227l-583 -628h594v-268zM1023 1676v-20l-352 -373h-246l247 393h351z" />
    <glyph glyph-name="Zdotaccent" unicode="&#x17b;" horiz-adv-x="1417" 
d="M1341 0h-1251v279l742 922h-706v288h1175v-284l-741 -917h781v-288zM912 1656h-370v273h370v-273z" />
    <glyph glyph-name="zdotaccent" unicode="&#x17c;" horiz-adv-x="1222" 
d="M1139 0h-1055v231l592 629h-568v263h1020v-227l-583 -628h594v-268zM815 1283h-370v273h370v-273z" />
    <glyph glyph-name="Gamma" unicode="&#x393;" horiz-adv-x="1305" 
d="M1264 1201h-690v-1201h-384v1489h1074v-288z" />
    <glyph glyph-name="Theta" unicode="&#x398;" horiz-adv-x="1741" 
d="M1638 744q0 -356 -204 -565.5t-564 -209.5q-359 0 -563 209.5t-204 565.5q0 359 204 567.5t563 208.5q358 0 563 -208.5t205 -567.5zM1129 367q56 68 83 160.5t27 217.5q0 134 -31 228t-81 152q-51 60 -117.5 87t-138.5 27q-73 0 -137.5 -26t-118.5 -86
q-50 -56 -81.5 -154.5t-31.5 -228.5q0 -133 30.5 -226.5t80.5 -152.5t117 -87t141 -28t141 28.5t117 88.5zM1108 611h-475v308h475v-308z" />
    <glyph glyph-name="Phi" unicode="&#x3a6;" horiz-adv-x="1950" 
d="M1674 1187q88 -74 135.5 -182.5t47.5 -248.5q0 -138 -49 -247t-141 -186q-94 -77 -216.5 -120t-284.5 -54v-163h-382v163q-157 11 -284 54.5t-218 120.5t-140 185t-49 247q0 140 47 245t136 181q87 73 218 116.5t290 55.5v152h382v-152q165 -9 291.5 -50.5t216.5 -116.5z
M1460 762q0 144 -76 234t-218 109v-708q165 29 229.5 117.5t64.5 247.5zM784 397v708q-146 -22 -220 -107.5t-74 -235.5q0 -157 66.5 -246.5t227.5 -118.5z" />
    <glyph glyph-name="alpha" unicode="&#x3b1;" horiz-adv-x="1432" 
d="M1262 0h-360v117q-104 -83 -182.5 -115.5t-178.5 -32.5q-208 0 -329.5 158.5t-121.5 425.5q0 273 132 437t340 164q88 0 160 -26.5t180 -121.5v117h360v-1123zM902 310v505q-44 34 -86.5 50.5t-94.5 16.5q-132 0 -196 -79.5t-64 -236.5q0 -179 57.5 -251t182.5 -72
q49 0 104 18.5t97 48.5z" />
    <glyph glyph-name="delta" unicode="&#x3b4;" horiz-adv-x="1406" 
d="M1144 1022q77 -86 125 -195t48 -255q0 -279 -166.5 -443t-446.5 -164q-289 0 -452.5 154t-163.5 415q0 141 41.5 236t114.5 165q68 66 163 106t192 58q-97 72 -192.5 128t-184.5 100v229h1006v-248h-445v-6q86 -54 188.5 -128t172.5 -152zM943 555q0 115 -37 211.5
t-135 175.5q-50 -9 -105 -34.5t-100 -69.5q-46 -45 -75.5 -116t-29.5 -169q0 -163 67 -250t177 -87t174 86.5t64 252.5z" />
    <glyph glyph-name="epsilon" unicode="&#x3b5;" horiz-adv-x="1198" 
d="M1135 56q-117 -42 -227.5 -64.5t-262.5 -22.5q-108 0 -208 17t-177 56q-78 39 -123.5 103.5t-45.5 157.5q0 98 59 170t176 109v7q-91 26 -144.5 92t-53.5 157q0 89 49.5 149.5t122.5 96.5q71 35 170.5 53t205.5 18q141 0 247.5 -23.5t168.5 -41.5v-268h-39
q-49 24 -138.5 52.5t-186.5 28.5q-47 0 -84 -5.5t-67 -15.5q-32 -11 -53.5 -33t-21.5 -53q0 -43 24.5 -65t60.5 -29q41 -9 85.5 -9.5t97.5 -0.5h125v-228h-169q-63 0 -106 -2.5t-80 -14.5q-34 -11 -53.5 -36.5t-19.5 -66.5q0 -36 24 -60.5t63 -38.5q38 -13 83.5 -18.5
t94.5 -5.5q103 0 204 33.5t160 71.5h39v-270z" />
    <glyph glyph-name="sigma" unicode="&#x3c3;" horiz-adv-x="1486" 
d="M1318 561q0 -277 -161.5 -436.5t-453.5 -159.5t-453.5 159.5t-161.5 436.5q0 279 162.5 438t452.5 159q63 0 127 -9.5t128 -25.5h518v-244h-266q42 -67 75 -150.5t33 -167.5zM875 288q35 43 52.5 103.5t17.5 167.5q0 99 -18 166t-50 107q-32 41 -77 58t-97 17t-92.5 -14
t-77.5 -56q-33 -39 -52.5 -107t-19.5 -171q0 -92 17 -159.5t50 -108.5q32 -39 76.5 -57t101.5 -18q49 0 93.5 16.5t75.5 55.5z" />
    <glyph glyph-name="tau" unicode="&#x3c4;" horiz-adv-x="1096" 
d="M1086 879h-358v-879h-360v879h-358v244h1076v-244z" />
    <glyph glyph-name="phi" unicode="&#x3c6;" horiz-adv-x="1873" 
d="M1785 584q0 -261 -178.5 -422t-494.5 -181v-393h-358v396q-144 11 -265 53t-212 116q-89 73 -139 175t-50 231q0 162 55 301.5t169 262.5h367v-33q-98 -90 -158 -219.5t-60 -264.5q0 -175 75 -265t218 -115v922l95 4t173 3q370 0 566.5 -140.5t196.5 -430.5zM1414 592
q0 148 -73 231.5t-229 92.5v-695q165 20 233.5 113.5t68.5 257.5z" />
    <glyph glyph-name="underscoredbl" unicode="&#x2017;" horiz-adv-x="1456" 
d="M1472 -202h-1488v120h1488v-120zM1472 -423h-1488v120h1488v-120z" />
    <glyph glyph-name="exclamdbl" unicode="&#x203c;" horiz-adv-x="1440" 
d="M621 1489l-46 -1060h-326l-46 1060h418zM614 0h-404v264h404v-264zM1237 1489l-46 -1060h-326l-46 1060h418zM1230 0h-404v264h404v-264z" />
    <glyph glyph-name="uni207F" unicode="&#x207f;" horiz-adv-x="1224" 
d="M1082 596h-298v446q0 55 -5.5 109t-19.5 79q-16 29 -49.5 43t-86.5 14q-36 0 -78 -12.5t-91 -41.5v-637h-296v899h296v-99q78 59 149.5 91.5t160.5 32.5q152 0 235 -86t83 -253v-585z" />
    <glyph glyph-name="peseta" unicode="&#x20a7;" horiz-adv-x="2751" 
d="M2681 342q0 -163 -125.5 -268t-354.5 -105q-119 0 -217.5 26t-178.5 65v282h21q18 -15 54 -39.5t82 -46.5q47 -23 99.5 -39t110.5 -16q93 0 124.5 28.5t31.5 68.5q0 39 -30 65.5t-129 60.5l-62.5 21.5t-63.5 23.5q-113 44 -168.5 128.5t-55.5 202.5q0 15 1.5 26.5
t1.5 15.5h-165v-842h-347v842h-156q-16 -31 -29.5 -54t-36.5 -46q-73 -77 -169 -118t-236 -41h-134v-583h-360v1489h497q118 0 202.5 -21.5t150.5 -67.5q72 -49 113.5 -127.5t45.5 -183.5h116v215h343v-215h305q46 25 141 45t170 20q99 0 197.5 -23.5t155.5 -51.5v-274h-23
q-79 61 -144.5 89.5t-136.5 28.5q-73 0 -114 -25.5t-41 -69.5q0 -46 38 -74t103 -50l67 -23l62 -21q139 -48 191.5 -128.5t52.5 -189.5zM838 1046q0 56 -16 94t-52 64q-31 23 -75 29t-98 6h-48v-409h29q78 0 125 8t80 47q30 36 42.5 70t12.5 91z" />
    <glyph glyph-name="IJ" unicode="&#x132;" horiz-adv-x="2063" 
d="M995 0h-872v264h244v961h-244v264h872v-264h-244v-961h244v-264zM1892 437q0 -96 -30 -182t-90 -146q-61 -62 -153 -97t-219 -35q-89 0 -163 7.5t-134 21.5v292h32q37 -19 76.5 -34t110.5 -15q57 0 95 27.5t57 73.5q21 51 27.5 111t6.5 141v613h-291v274h675v-1052z" />
    <glyph glyph-name="ij" unicode="&#x133;" horiz-adv-x="1490" 
d="M530 0h-360v1123h360v-1123zM540 1283h-380v273h380v-273zM1321 -20q0 -190 -117 -296.5t-301 -106.5q-98 0 -178.5 8.5t-117.5 17.5v258h28q30 -10 75 -17t71 -7q104 0 142 62t38 204v776h-213v244h573v-1143zM1321 1283h-383v273h383v-273z" />
    <glyph glyph-name="napostrophe" unicode="&#x149;" horiz-adv-x="1690" 
d="M1529 0h-362v557q0 68 -7 135.5t-24 99.5q-20 37 -58.5 54t-107.5 17q-49 0 -99.5 -16t-109.5 -51v-796h-360v1123h360v-124q96 75 184.5 115t196.5 40q182 0 284.5 -106t102.5 -317v-731zM498 1556l-291 -589h-234l157 589h368z" />
    <glyph glyph-name="minute" unicode="&#x2032;" horiz-adv-x="722" 
d="M707 1489l-352 -639h-238l224 639h366z" />
    <glyph glyph-name="second" unicode="&#x2033;" horiz-adv-x="1262" 
d="M1247 1489l-352 -639h-238l224 639h366zM707 1489l-352 -639h-238l224 639h366z" />
    <glyph glyph-name="afii61248" unicode="&#x2105;" horiz-adv-x="2605" 
d="M948 619q-74 -37 -145 -54.5t-150 -17.5q-239 0 -373.5 126t-134.5 356q0 228 133.5 358.5t367.5 130.5q79 0 155 -18.5t147 -55.5v-248h-46q-57 58 -113.5 86t-121.5 28q-104 0 -161 -75.5t-57 -205.5q0 -140 60.5 -207t161.5 -67q77 0 133 30.5t98 81.5h46v-248z
M1816 1489l-780 -1489h-269l780 1489h269zM2462 458q0 -249 -115 -369t-335 -120q-227 0 -341.5 121.5t-114.5 363.5q0 247 117 366.5t339 119.5q224 0 337 -119.5t113 -362.5zM2167 455q0 160 -37 216t-121 56t-121 -56t-37 -217t37 -217t121 -56t121 56t37 218z" />
    <glyph glyph-name="afii61289" unicode="&#x2113;" horiz-adv-x="848" 
d="M15 455l177 192v435q0 177 95 293t258 116q120 0 182 -65t62 -174q0 -92 -66 -211t-243 -325v-466q0 -76 21 -96t48 -20q25 0 63.5 13t138.5 86v-170q-55 -44 -120 -65.5t-122 -21.5q-176 0 -246.5 71.5t-70.5 199.5v170l-71 -75zM480 946q100 144 122.5 197t22.5 108
q0 30 -5 45.5t-15 29.5q-9 12 -22 19.5t-28 7.5t-29 -11t-22 -25q-11 -21 -17.5 -77t-6.5 -144v-150z" />
    <glyph glyph-name="H22073" unicode="&#x25a1;" horiz-adv-x="1237" 
d="M146 944h944v-944h-944v944zM222 868v-792h792v792h-792z" />
    <glyph glyph-name="H18543" unicode="&#x25aa;" horiz-adv-x="726" 
d="M594 908v-463h-463v463h463z" />
    <glyph glyph-name="H18551" unicode="&#x25ab;" horiz-adv-x="726" 
d="M594 908v-463h-463v463h463zM518 832h-311v-311h311v311z" />
    <glyph glyph-name="H18533" unicode="&#x25cf;" horiz-adv-x="1237" 
d="M177 576q0 183 129 312t312 129q182 0 311 -129t129 -312q0 -182 -129 -311t-311 -129q-183 0 -312 129t-129 311z" />
    <glyph glyph-name="openbullet" unicode="&#x25e6;" horiz-adv-x="726" 
d="M363 928q104 0 177.5 -73.5t73.5 -177.5t-73.5 -177.5t-177.5 -73.5t-177.5 73.5t-73.5 177.5t73 177.5t178 73.5zM363 852q-73 0 -124 -51.5t-51 -123.5q0 -73 51.5 -124t123.5 -51t123.5 51t51.5 124q0 72 -51 123.5t-124 51.5z" />
    <glyph glyph-name="Amacron" unicode="&#x100;" horiz-adv-x="1590" 
d="M1566 0h-397l-103 301h-552l-103 -301h-387l550 1489h442zM973 574l-183 534l-183 -534h366zM1196 1719h-802v210h802v-210z" />
    <glyph glyph-name="amacron" unicode="&#x101;" horiz-adv-x="1368" 
d="M850 293v234q-73 -6 -158 -16.5t-129 -24.5q-54 -17 -82.5 -49.5t-28.5 -85.5q0 -35 6 -57t30 -42q23 -20 55 -29.5t100 -9.5q54 0 109.5 22t97.5 58zM850 119l-72 -53t-81 -49q-53 -24 -110 -35.5t-125 -11.5q-160 0 -268 99t-108 253q0 123 55 201t156 123
q100 45 248 64t307 28v6q0 93 -76 128.5t-224 35.5q-89 0 -190 -31.5t-145 -48.5h-33v271q57 15 185.5 35.5t257.5 20.5q307 0 443.5 -94.5t136.5 -296.5v-764h-357v119zM1080 1346h-802v210h802v-210z" />
    <glyph glyph-name="Ccircumflex" unicode="&#x108;" horiz-adv-x="1482" 
d="M863 -29q-166 0 -306.5 49t-241.5 146t-156.5 242t-55.5 335q0 177 53 321t154 247q97 99 240.5 153t313.5 54q94 0 169.5 -10.5t139.5 -27.5q67 -19 121.5 -42.5t95.5 -43.5v-361h-44q-28 24 -70.5 57t-96.5 65q-55 32 -119 54t-137 22q-81 0 -154 -25.5t-135 -84.5
q-59 -57 -95.5 -151t-36.5 -228q0 -140 39.5 -234t99.5 -148q61 -55 136 -78.5t148 -23.5q70 0 138.5 21t126.5 57q49 29 91 62t69 57h40v-356l-107 -47t-107 -38q-73 -21 -137 -32t-176 -11zM1287 1656h-264l-185 219l-184 -219h-260l321 393h251z" />
    <glyph glyph-name="ccircumflex" unicode="&#x109;" horiz-adv-x="1205" 
d="M755 -30q-147 0 -268.5 35t-211.5 108q-89 73 -138 184t-49 260q0 157 52.5 271t146.5 189q91 71 210 104t247 33q115 0 212 -25t181 -65v-307h-51l-50.5 42t-72.5 47q-41 22 -90 36.5t-114 14.5q-144 0 -221.5 -91.5t-77.5 -248.5q0 -162 79.5 -246t225.5 -84
q68 0 122.5 15.5t90.5 36.5q34 20 60 42t48 43h51v-307q-85 -40 -177.5 -63.5t-204.5 -23.5zM1139 1283h-264l-185 219l-184 -219h-260l321 393h251z" />
    <glyph glyph-name="Cdotaccent" unicode="&#x10a;" horiz-adv-x="1482" 
d="M863 -29q-166 0 -306.5 49t-241.5 146t-156.5 242t-55.5 335q0 177 53 321t154 247q97 99 240.5 153t313.5 54q94 0 169.5 -10.5t139.5 -27.5q67 -19 121.5 -42.5t95.5 -43.5v-361h-44q-28 24 -70.5 57t-96.5 65q-55 32 -119 54t-137 22q-81 0 -154 -25.5t-135 -84.5
q-59 -57 -95.5 -151t-36.5 -228q0 -140 39.5 -234t99.5 -148q61 -55 136 -78.5t148 -23.5q70 0 138.5 21t126.5 57q49 29 91 62t69 57h40v-356l-107 -47t-107 -38q-73 -21 -137 -32t-176 -11zM1032 1656h-370v273h370v-273z" />
    <glyph glyph-name="cdotaccent" unicode="&#x10b;" horiz-adv-x="1205" 
d="M755 -30q-147 0 -268.5 35t-211.5 108q-89 73 -138 184t-49 260q0 157 52.5 271t146.5 189q91 71 210 104t247 33q115 0 212 -25t181 -65v-307h-51l-50.5 42t-72.5 47q-41 22 -90 36.5t-114 14.5q-144 0 -221.5 -91.5t-77.5 -248.5q0 -162 79.5 -246t225.5 -84
q68 0 122.5 15.5t90.5 36.5q34 20 60 42t48 43h51v-307q-85 -40 -177.5 -63.5t-204.5 -23.5zM877 1283h-370v273h370v-273z" />
    <glyph glyph-name="Emacron" unicode="&#x112;" horiz-adv-x="1399" 
d="M1267 0h-1077v1489h1077v-288h-695v-257h645v-288h-645v-368h695v-288zM1127 1719h-802v210h802v-210z" />
    <glyph glyph-name="emacron" unicode="&#x113;" horiz-adv-x="1360" 
d="M1276 495h-824q8 -132 100.5 -202t272.5 -70q114 0 221 41t169 88h40v-289q-122 -49 -230 -71t-239 -22q-338 0 -518 152t-180 433q0 278 170.5 440.5t467.5 162.5q274 0 412 -138.5t138 -398.5v-126zM918 706q-3 113 -56 170t-165 57q-104 0 -171 -54t-75 -173h467z
M1108 1346h-802v210h802v-210z" />
    <glyph glyph-name="Ebreve" unicode="&#x114;" horiz-adv-x="1399" 
d="M1267 0h-1077v1489h1077v-288h-695v-257h645v-288h-645v-368h695v-288zM1120 2009q0 -178 -101 -279.5t-285 -101.5t-285.5 96.5t-101.5 284.5h223q0 -103 40.5 -153.5t123.5 -50.5q78 0 120.5 50.5t42.5 153.5h223z" />
    <glyph glyph-name="ebreve" unicode="&#x115;" horiz-adv-x="1360" 
d="M1276 495h-824q8 -132 100.5 -202t272.5 -70q114 0 221 41t169 88h40v-289q-122 -49 -230 -71t-239 -22q-338 0 -518 152t-180 433q0 278 170.5 440.5t467.5 162.5q274 0 412 -138.5t138 -398.5v-126zM918 706q-3 113 -56 170t-165 57q-104 0 -171 -54t-75 -173h467z
M1107 1636q0 -178 -101 -279.5t-285 -101.5t-285.5 96.5t-101.5 284.5h223q0 -103 40.5 -153.5t123.5 -50.5q78 0 120.5 50.5t42.5 153.5h223z" />
    <glyph glyph-name="Edotaccent" unicode="&#x116;" horiz-adv-x="1399" 
d="M1267 0h-1077v1489h1077v-288h-695v-257h645v-288h-645v-368h695v-288zM925 1656h-370v273h370v-273z" />
    <glyph glyph-name="edotaccent" unicode="&#x117;" horiz-adv-x="1360" 
d="M1276 495h-824q8 -132 100.5 -202t272.5 -70q114 0 221 41t169 88h40v-289q-122 -49 -230 -71t-239 -22q-338 0 -518 152t-180 433q0 278 170.5 440.5t467.5 162.5q274 0 412 -138.5t138 -398.5v-126zM918 706q-3 113 -56 170t-165 57q-104 0 -171 -54t-75 -173h467z
M894 1283h-370v273h370v-273z" />
    <glyph glyph-name="Gcircumflex" unicode="&#x11c;" horiz-adv-x="1661" 
d="M1507 85q-100 -39 -265 -77.5t-329 -38.5q-380 0 -595 206.5t-215 570.5q0 347 217 559.5t605 212.5q147 0 280 -26.5t296 -105.5v-349h-43l-82 59.5t-104 65.5q-58 32 -135.5 55t-164.5 23q-102 0 -185 -30t-149 -92q-63 -60 -99.5 -152.5t-36.5 -213.5q0 -247 131 -378
t387 -131q22 0 48.5 1t48.5 3v292h-297v281h687v-735zM1341 1656h-264l-185 219l-184 -219h-260l321 393h251z" />
    <glyph glyph-name="gcircumflex" unicode="&#x11d;" horiz-adv-x="1432" 
d="M1262 129q0 -158 -45 -266t-126 -169q-81 -62 -195.5 -89.5t-258.5 -27.5q-117 0 -230.5 14t-196.5 34v281h44q66 -26 161 -47.5t170 -21.5q100 0 162.5 18.5t95.5 52.5q31 32 45 82t14 120v21q-65 -53 -144 -84t-176 -31q-236 0 -364 142t-128 432q0 139 39 240t110 176
q66 70 162.5 109t197.5 39q91 0 165.5 -21.5t135.5 -59.5l13 50h349v-994zM902 354v509q-31 13 -76 20.5t-81 7.5q-142 0 -213 -81.5t-71 -227.5q0 -162 60.5 -226t179.5 -64q54 0 106 17t95 45zM1176 1283h-264l-185 219l-184 -219h-260l321 393h251z" />
    <glyph glyph-name="Gdotaccent" unicode="&#x120;" horiz-adv-x="1661" 
d="M1507 85q-100 -39 -265 -77.5t-329 -38.5q-380 0 -595 206.5t-215 570.5q0 347 217 559.5t605 212.5q147 0 280 -26.5t296 -105.5v-349h-43l-82 59.5t-104 65.5q-58 32 -135.5 55t-164.5 23q-102 0 -185 -30t-149 -92q-63 -60 -99.5 -152.5t-36.5 -213.5q0 -247 131 -378
t387 -131q22 0 48.5 1t48.5 3v292h-297v281h687v-735zM1074 1656h-370v273h370v-273z" />
    <glyph glyph-name="gdotaccent" unicode="&#x121;" horiz-adv-x="1432" 
d="M1262 129q0 -158 -45 -266t-126 -169q-81 -62 -195.5 -89.5t-258.5 -27.5q-117 0 -230.5 14t-196.5 34v281h44q66 -26 161 -47.5t170 -21.5q100 0 162.5 18.5t95.5 52.5q31 32 45 82t14 120v21q-65 -53 -144 -84t-176 -31q-236 0 -364 142t-128 432q0 139 39 240t110 176
q66 70 162.5 109t197.5 39q91 0 165.5 -21.5t135.5 -59.5l13 50h349v-994zM902 354v509q-31 13 -76 20.5t-81 7.5q-142 0 -213 -81.5t-71 -227.5q0 -162 60.5 -226t179.5 -64q54 0 106 17t95 45zM915 1283h-370v273h370v-273z" />
    <glyph glyph-name="uni0122" unicode="&#x122;" horiz-adv-x="1661" 
d="M915 -74v31t-2 14q-380 0 -595 205.5t-215 569.5q0 347 217 559.5t605 212.5q147 0 280 -26.5t296 -105.5v-349h-43l-82 59.5t-104 65.5q-58 32 -135.5 55t-164.5 23q-102 0 -185 -30t-149 -92q-63 -60 -99.5 -152.5t-36.5 -213.5q0 -247 131 -378t387 -131q22 0 48.5 1
t48.5 3v292h-297v281h687v-735q-66 -25 -164 -52.5t-206 -44.5q2 -20 3 -34.5t1 -39.5q0 -162 -99.5 -249.5t-259.5 -87.5q-35 0 -101.5 5.5t-111.5 18.5v200h23q24 -11 70 -23t88 -12q80 0 122.5 41.5t42.5 118.5z" />
    <glyph glyph-name="uni0123" unicode="&#x123;" horiz-adv-x="1432" 
d="M1262 129q0 -158 -45 -266t-126 -169q-81 -62 -195.5 -89.5t-258.5 -27.5q-117 0 -230.5 14t-196.5 34v281h44q66 -26 161 -47.5t170 -21.5q100 0 162.5 18.5t95.5 52.5q31 32 45 82t14 120v21q-65 -53 -144 -84t-176 -31q-236 0 -364 142t-128 432q0 139 39 240t110 176
q66 70 162.5 109t197.5 39q91 0 165.5 -21.5t135.5 -59.5l13 50h349v-994zM902 354v509q-31 13 -76 20.5t-81 7.5q-142 0 -213 -81.5t-71 -227.5q0 -162 60.5 -226t179.5 -64q54 0 106 17t95 45zM1035 1676l-227 -393h-351v20l332 373h246z" />
    <glyph glyph-name="Hcircumflex" unicode="&#x124;" horiz-adv-x="1715" 
d="M1525 0h-384v656h-567v-656h-384v1489h384v-545h567v545h384v-1489zM1304 1656h-264l-185 219l-184 -219h-260l321 393h251z" />
    <glyph glyph-name="hcircumflex" unicode="&#x125;" horiz-adv-x="1459" 
d="M1298 0h-362v557q0 68 -7 135.5t-24 99.5q-20 37 -58.5 54t-107.5 17q-49 0 -99.5 -16t-109.5 -51v-796h-360v1556h360v-557q96 75 184.5 115t196.5 40q182 0 284.5 -106t102.5 -317v-731zM1202 1656h-264l-185 219l-184 -219h-260l321 393h251z" />
    <glyph glyph-name="Hbar" unicode="&#x126;" horiz-adv-x="1715" 
d="M1661 1104h-136v-1104h-384v656h-567v-656h-384v1104h-133v216h133v169h384v-169h567v169h384v-169h136v-216zM1141 944v160h-567v-160h567z" />
    <glyph glyph-name="hbar" unicode="&#x127;" horiz-adv-x="1459" 
d="M1298 0h-362v557q0 68 -7 135.5t-24 99.5q-20 37 -58.5 54t-107.5 17q-49 0 -99.5 -16t-109.5 -51v-796h-360v1237h-129v207h129v112h360v-112h326v-207h-326v-238q96 75 184.5 115t196.5 40q182 0 284.5 -106t102.5 -317v-731z" />
    <glyph glyph-name="Itilde" unicode="&#x128;" horiz-adv-x="1118" 
d="M995 0h-872v264h244v961h-244v264h872v-264h-244v-961h244v-264zM1005 1991q-10 -169 -82.5 -250.5t-202.5 -81.5q-47 0 -89.5 18.5t-77.5 39.5q-31 19 -68.5 38.5t-62.5 19.5q-49 0 -65.5 -32t-19.5 -90h-219q6 152 84 241.5t200 89.5q48 0 91 -17.5t79 -38.5l69 -37.5
t59 -17.5q48 0 66 32t20 86h219z" />
    <glyph glyph-name="itilde" unicode="&#x129;" horiz-adv-x="700" 
d="M530 0h-360v1123h360v-1123zM712 1603q-10 -171 -64.5 -241.5t-167.5 -70.5q-42 0 -77.5 18.5t-63.5 39.5q-27 20 -56.5 39t-52.5 19q-35 0 -50.5 -25t-17.5 -97h-172q5 145 62.5 228t168.5 83q41 0 77 -17.5t67 -38.5l57.5 -39t48.5 -16q42 0 54.5 32.5t14.5 85.5h172z
" />
    <glyph glyph-name="Imacron" unicode="&#x12a;" horiz-adv-x="1118" 
d="M995 0h-872v264h244v961h-244v264h872v-264h-244v-961h244v-264zM960 1719h-802v210h802v-210z" />
    <glyph glyph-name="imacron" unicode="&#x12b;" horiz-adv-x="700" 
d="M530 0h-360v1123h360v-1123zM655 1346h-610v210h610v-210z" />
    <glyph glyph-name="Ibreve" unicode="&#x12c;" horiz-adv-x="1118" 
d="M995 0h-872v264h244v961h-244v264h872v-264h-244v-961h244v-264zM948 2009q0 -182 -102.5 -281.5t-283.5 -99.5q-192 0 -289.5 99.5t-97.5 281.5h223q0 -99 39 -151.5t125 -52.5q84 0 123.5 52.5t39.5 151.5h223z" />
    <glyph glyph-name="ibreve" unicode="&#x12d;" horiz-adv-x="700" 
d="M530 0h-360v1123h360v-1123zM673 1636q0 -181 -84.5 -278t-237.5 -97q-161 0 -242 96.5t-81 278.5h186q0 -102 29 -160.5t108 -58.5q74 0 105 59.5t31 159.5h186z" />
    <glyph glyph-name="Iogonek" unicode="&#x12e;" horiz-adv-x="1118" 
d="M505 0h-382v264h244v961h-244v264h872v-264h-244v-961h244v-264h-275q-1 -17 -2.5 -34t-1.5 -50q0 -61 48 -102t133 -41q42 0 89.5 12t68.5 22h9v-200q-48 -13 -112 -18.5t-99 -5.5q-171 0 -262 82.5t-91 235.5q0 30 2 56t3 43z" />
    <glyph glyph-name="iogonek" unicode="&#x12f;" horiz-adv-x="700" 
d="M170 119v1004h360v-1123h-150q-2 -21 -3.5 -40t-1.5 -44q0 -63 45.5 -103t124.5 -40q37 0 79.5 10t72.5 24h9v-200q-47 -13 -107.5 -18.5t-95.5 -5.5q-164 0 -253.5 82t-89.5 236q0 46 4.5 108t5.5 110zM540 1283h-380v273h380v-273z" />
    <glyph glyph-name="Jcircumflex" unicode="&#x134;" horiz-adv-x="1137" 
d="M966 437q0 -98 -35 -183.5t-104 -144.5q-73 -63 -176 -97.5t-255 -34.5q-103 0 -194 7.5t-160 21.5v302h36q48 -18 100 -33.5t133 -15.5q105 0 161.5 28t80.5 78q23 49 26 107.5t3 149.5v593h-341v274h725v-1052zM1055 1656h-264l-185 219l-184 -219h-260l321 393h251z
" />
    <glyph glyph-name="jcircumflex" unicode="&#x135;" horiz-adv-x="825" 
d="M656 -20q0 -190 -117 -296.5t-301 -106.5q-98 0 -178.5 8.5t-117.5 17.5v258h28q30 -10 75 -17t71 -7q104 0 142 62t38 204v776h-213v244h573v-1143zM770 1283h-239l-145 213l-144 -213h-235l254 393h255z" />
    <glyph glyph-name="Kcedilla" unicode="&#x136;" horiz-adv-x="1579" 
d="M1580 0h-471l-445 596l-90 -109v-487h-384v1489h384v-674l532 674h445l-582 -689zM965 -86q0 -162 -99.5 -249.5t-259.5 -87.5q-35 0 -101.5 5.5t-111.5 18.5v200h23q24 -11 70 -23t88 -12q80 0 122.5 41.5t42.5 118.5q0 23 -1 52.5t-1 41.5h223q1 -18 3 -49.5t2 -56.5z
" />
    <glyph glyph-name="kcedilla" unicode="&#x137;" horiz-adv-x="1374" 
d="M1362 0h-419l-315 489l-98 -119v-370h-360v1556h360v-929l388 496h415l-404 -484zM864 -86q0 -162 -99.5 -249.5t-259.5 -87.5q-35 0 -101.5 5.5t-111.5 18.5v200h23q24 -11 70 -23t88 -12q80 0 122.5 41.5t42.5 118.5q0 23 -1 52.5t-1 41.5h223q1 -18 3 -49.5t2 -56.5z
" />
    <glyph glyph-name="kgreenlandic" unicode="&#x138;" horiz-adv-x="1374" 
d="M1362 0h-419l-315 489l-98 -119v-370h-360v1121h360v-494l388 496h415l-404 -484z" />
    <glyph glyph-name="Lcedilla" unicode="&#x13b;" horiz-adv-x="1305" 
d="M741 0h-551v1489h384v-1201h690v-288h-299l2.5 -38t1.5 -48q0 -162 -99.5 -249.5t-259.5 -87.5q-35 0 -101.5 5.5t-111.5 18.5v200h23q24 -11 70 -23t88 -12q80 0 122.5 41.5t42.5 118.5q0 23 -0.5 43t-1.5 31z" />
    <glyph glyph-name="lcedilla" unicode="&#x13c;" horiz-adv-x="700" 
d="M396 0h-226v1556h360v-1536h89q1 -18 3 -49.5t2 -56.5q0 -162 -99.5 -249.5t-259.5 -87.5q-35 0 -101.5 5.5t-111.5 18.5v200h23q24 -11 70 -23t88 -12q80 0 122.5 41.5t42.5 118.5q0 16 -0.5 37.5t-1.5 36.5z" />
    <glyph glyph-name="Ncedilla" unicode="&#x145;" horiz-adv-x="1734" 
d="M1544 0h-370l-632 1022v-1022h-352v1489h459l543 -853v853h352v-1489zM1001 -86q0 -162 -99.5 -249.5t-259.5 -87.5q-35 0 -101.5 5.5t-111.5 18.5v200h23q24 -11 70 -23t88 -12q80 0 122.5 41.5t42.5 118.5q0 23 -1 52.5t-1 41.5h223q1 -18 3 -49.5t2 -56.5z" />
    <glyph glyph-name="ncedilla" unicode="&#x146;" horiz-adv-x="1459" 
d="M1298 0h-362v557q0 68 -7 135.5t-24 99.5q-20 37 -58.5 54t-107.5 17q-49 0 -99.5 -16t-109.5 -51v-796h-360v1123h360v-124q96 75 184.5 115t196.5 40q182 0 284.5 -106t102.5 -317v-731zM865 -86q0 -162 -99.5 -249.5t-259.5 -87.5q-35 0 -101.5 5.5t-111.5 18.5v200
h23q24 -11 70 -23t88 -12q80 0 122.5 41.5t42.5 118.5q0 23 -1 52.5t-1 41.5h223q1 -18 3 -49.5t2 -56.5z" />
    <glyph glyph-name="Eng" unicode="&#x14a;" horiz-adv-x="1734" 
d="M1183 -3v14l-641 1011v-1022h-352v1489h459l543 -841v841h352v-1503q0 -190 -115.5 -299.5t-305.5 -109.5q-109 0 -186 9.5t-108 16.5v264h27q36 -12 86 -19.5t76 -7.5q25 0 59.5 5t53.5 19q25 18 38.5 44t13.5 89z" />
    <glyph glyph-name="eng" unicode="&#x14b;" horiz-adv-x="1459" 
d="M936 100v457q0 68 -7 135.5t-24 99.5q-20 37 -58.5 54t-107.5 17q-49 0 -99.5 -16t-109.5 -51v-796h-360v1123h360v-124q96 75 184.5 115t196.5 40q182 0 284.5 -106t102.5 -317v-723q0 -195 -117 -313t-300 -118q-99 0 -179.5 9t-106.5 15v257h28q24 -8 59.5 -15.5
t77.5 -7.5q96 0 136 57.5t40 207.5z" />
    <glyph glyph-name="Omacron" unicode="&#x14c;" horiz-adv-x="1741" 
d="M1638 744q0 -356 -204 -565.5t-564 -209.5q-359 0 -563 209.5t-204 565.5q0 359 204 567.5t563 208.5q358 0 563 -208.5t205 -567.5zM1129 367q56 68 83 160.5t27 217.5q0 134 -31 228t-81 152q-51 60 -117.5 87t-138.5 27q-73 0 -137.5 -26t-118.5 -86
q-50 -56 -81.5 -154.5t-31.5 -228.5q0 -133 30.5 -226.5t80.5 -152.5t117 -87t141 -28t141 28.5t117 88.5zM1272 1719h-802v210h802v-210z" />
    <glyph glyph-name="omacron" unicode="&#x14d;" horiz-adv-x="1406" 
d="M1318 561q0 -277 -161.5 -436.5t-453.5 -159.5t-453.5 159.5t-161.5 436.5q0 279 162.5 438t452.5 159q294 0 454.5 -160t160.5 -437zM875 288q35 43 52.5 103.5t17.5 167.5q0 99 -18 166t-50 107q-32 41 -77 58t-97 17t-92.5 -14t-77.5 -56q-33 -39 -52.5 -107
t-19.5 -171q0 -92 17 -159.5t50 -108.5q32 -39 76.5 -57t101.5 -18q49 0 93.5 16.5t75.5 55.5zM1104 1346h-802v210h802v-210z" />
    <glyph glyph-name="Obreve" unicode="&#x14e;" horiz-adv-x="1741" 
d="M1638 744q0 -356 -204 -565.5t-564 -209.5q-359 0 -563 209.5t-204 565.5q0 359 204 567.5t563 208.5q358 0 563 -208.5t205 -567.5zM1129 367q56 68 83 160.5t27 217.5q0 134 -31 228t-81 152q-51 60 -117.5 87t-138.5 27q-73 0 -137.5 -26t-118.5 -86
q-50 -56 -81.5 -154.5t-31.5 -228.5q0 -133 30.5 -226.5t80.5 -152.5t117 -87t141 -28t141 28.5t117 88.5zM1256 2009q0 -178 -101 -279.5t-285 -101.5t-285.5 96.5t-101.5 284.5h223q0 -103 40.5 -153.5t123.5 -50.5q78 0 120.5 50.5t42.5 153.5h223z" />
    <glyph glyph-name="obreve" unicode="&#x14f;" horiz-adv-x="1406" 
d="M1318 561q0 -277 -161.5 -436.5t-453.5 -159.5t-453.5 159.5t-161.5 436.5q0 279 162.5 438t452.5 159q294 0 454.5 -160t160.5 -437zM875 288q35 43 52.5 103.5t17.5 167.5q0 99 -18 166t-50 107q-32 41 -77 58t-97 17t-92.5 -14t-77.5 -56q-33 -39 -52.5 -107
t-19.5 -171q0 -92 17 -159.5t50 -108.5q32 -39 76.5 -57t101.5 -18q49 0 93.5 16.5t75.5 55.5zM1089 1636q0 -178 -101 -279.5t-285 -101.5t-285.5 96.5t-101.5 284.5h223q0 -103 40.5 -153.5t123.5 -50.5q78 0 120.5 50.5t42.5 153.5h223z" />
    <glyph glyph-name="Rcedilla" unicode="&#x156;" horiz-adv-x="1602" 
d="M1025 1033q0 56 -23 96t-79 63q-39 16 -91 19.5t-121 3.5h-139v-401h118q92 0 154 9t104 41q40 31 58.5 68.5t18.5 100.5zM1624 0h-469l-406 546h-177v-546h-382v1489h644q132 0 227 -15t178 -65q84 -50 133.5 -129.5t49.5 -199.5q0 -165 -76.5 -269t-218.5 -173z
M984 -86q0 -162 -99.5 -249.5t-259.5 -87.5q-35 0 -101.5 5.5t-111.5 18.5v200h23q24 -11 70 -23t88 -12q80 0 122.5 41.5t42.5 118.5q0 23 -1 52.5t-1 41.5h223q1 -18 3 -49.5t2 -56.5z" />
    <glyph glyph-name="rcedilla" unicode="&#x157;" horiz-adv-x="1018" 
d="M196 -222q46 -12 88 -12q80 0 122.5 41.5t42.5 118.5q0 16 -0.5 37.5t-1.5 36.5h-277v1123h360v-165q119 102 207 135.5t162 33.5q19 0 43 -1t42 -3v-343h-32q-23 8 -74 12t-85 4q-77 0 -136 -10t-127 -34v-732h140q1 -18 3 -49.5t2 -56.5q0 -162 -99.5 -249.5
t-259.5 -87.5q-35 0 -101.5 5.5t-111.5 18.5v200h23q24 -11 70 -23z" />
    <glyph glyph-name="Scircumflex" unicode="&#x15c;" horiz-adv-x="1455" 
d="M1382 468q0 -220 -186.5 -357.5t-506.5 -137.5q-185 0 -322.5 32.5t-257.5 82.5v357h42q119 -95 266.5 -146t283.5 -51q35 0 92 6t93 20q44 18 72.5 45t28.5 80q0 49 -41.5 84.5t-121.5 54.5q-84 20 -177.5 37.5t-175.5 44.5q-188 61 -270.5 165.5t-82.5 259.5
q0 208 186.5 339.5t479.5 131.5q147 0 290.5 -28.5t248.5 -71.5v-343h-41q-90 72 -220.5 120.5t-266.5 48.5q-48 0 -95.5 -6.5t-91.5 -24.5q-39 -15 -67 -45.5t-28 -69.5q0 -59 45 -90.5t170 -57.5l157.5 -33t162.5 -44q171 -56 252.5 -152.5t81.5 -250.5zM1218 1656h-264
l-185 219l-184 -219h-260l321 393h251z" />
    <glyph glyph-name="scircumflex" unicode="&#x15d;" horiz-adv-x="1215" 
d="M1146 356q0 -174 -156 -280.5t-427 -106.5q-150 0 -272 28t-196 62v296h33q27 -19 62.5 -41.5t100.5 -48.5q56 -23 127 -39.5t152 -16.5q106 0 157 23.5t51 69.5q0 41 -30 59.5t-114 35.5q-40 9 -108.5 19.5t-124.5 25.5q-153 40 -227 124.5t-74 210.5q0 162 153.5 269.5
t419.5 107.5q126 0 241.5 -25.5t180.5 -54.5v-284h-31q-80 55 -182.5 89.5t-207.5 34.5q-87 0 -146.5 -24t-59.5 -68q0 -40 27 -61t127 -42q55 -11 118.5 -21.5t127.5 -26.5q142 -37 210 -116.5t68 -198.5zM1077 1283h-264l-185 219l-184 -219h-260l321 393h251z" />
    <glyph glyph-name="Tbar" unicode="&#x166;" horiz-adv-x="1396" 
d="M506 605h-281v229h281v367h-465v288h1314v-288h-465v-367h281v-229h-281v-605h-384v605z" />
    <glyph glyph-name="tbar" unicode="&#x167;" horiz-adv-x="933" 
d="M888 10q-58 -15 -123 -23.5t-159 -8.5q-210 0 -312.5 85t-102.5 291v114h-138v212h138v199h-148v244h148v321h360v-321h337v-244h-337v-199h229v-212h-229q0 -55 1 -94.5t16 -74.5q14 -35 49.5 -55.5t103.5 -20.5q28 0 73.5 12t63.5 22h30v-247z" />
    <glyph glyph-name="Utilde" unicode="&#x168;" horiz-adv-x="1663" 
d="M1494 539q0 -276 -168 -423t-495 -147t-494.5 147t-167.5 422v951h386v-929q0 -155 65 -231t211 -76q144 0 210.5 73t66.5 234v929h386v-950zM1275 1991q-10 -169 -82.5 -250.5t-202.5 -81.5q-47 0 -89.5 18.5t-77.5 39.5q-31 19 -68.5 38.5t-62.5 19.5q-49 0 -65.5 -32
t-19.5 -90h-219q6 151 83.5 241t200.5 90q48 0 91 -17.5t79 -38.5l69 -37.5t59 -17.5q48 0 66 32t20 86h219z" />
    <glyph glyph-name="utilde" unicode="&#x169;" horiz-adv-x="1459" 
d="M1289 0h-360v124q-100 -76 -183 -115.5t-198 -39.5q-186 0 -286.5 107t-100.5 316v731h362v-557q0 -85 5.5 -141.5t25.5 -93.5q19 -37 57.5 -54t107.5 -17q46 0 102 17t108 50v796h360v-1123zM1190 1618q-10 -169 -82.5 -250.5t-202.5 -81.5q-47 0 -89.5 18.5t-77.5 39.5
q-31 19 -68.5 38.5t-62.5 19.5q-49 0 -65.5 -32t-19.5 -90h-219q6 151 83.5 241t200.5 90q48 0 91 -17.5t79 -38.5l69 -37.5t59 -17.5q48 0 66 32t20 86h219z" />
    <glyph glyph-name="Umacron" unicode="&#x16a;" horiz-adv-x="1663" 
d="M1494 539q0 -276 -168 -423t-495 -147t-494.5 147t-167.5 422v951h386v-929q0 -155 65 -231t211 -76q144 0 210.5 73t66.5 234v929h386v-950zM1233 1719h-802v210h802v-210z" />
    <glyph glyph-name="umacron" unicode="&#x16b;" horiz-adv-x="1459" 
d="M1289 0h-360v124q-100 -76 -183 -115.5t-198 -39.5q-186 0 -286.5 107t-100.5 316v731h362v-557q0 -85 5.5 -141.5t25.5 -93.5q19 -37 57.5 -54t107.5 -17q46 0 102 17t108 50v796h360v-1123zM1133 1346h-802v210h802v-210z" />
    <glyph glyph-name="Ubreve" unicode="&#x16c;" horiz-adv-x="1663" 
d="M1494 539q0 -276 -168 -423t-495 -147t-494.5 147t-167.5 422v951h386v-929q0 -155 65 -231t211 -76q144 0 210.5 73t66.5 234v929h386v-950zM1220 2009q0 -178 -101 -279.5t-285 -101.5t-285.5 96.5t-101.5 284.5h223q0 -103 40.5 -153.5t123.5 -50.5q78 0 120.5 50.5
t42.5 153.5h223z" />
    <glyph glyph-name="ubreve" unicode="&#x16d;" horiz-adv-x="1459" 
d="M1289 0h-360v124q-100 -76 -183 -115.5t-198 -39.5q-186 0 -286.5 107t-100.5 316v731h362v-557q0 -85 5.5 -141.5t25.5 -93.5q19 -37 57.5 -54t107.5 -17q46 0 102 17t108 50v796h360v-1123zM1114 1636q0 -178 -101 -279.5t-285 -101.5t-285.5 96.5t-101.5 284.5h223
q0 -103 40.5 -153.5t123.5 -50.5q78 0 120.5 50.5t42.5 153.5h223z" />
    <glyph glyph-name="Uogonek" unicode="&#x172;" horiz-adv-x="1663" 
d="M912 -27q-15 0 -36 -1t-45 -1q-327 0 -494.5 146t-167.5 421v951h386v-929q0 -155 65 -231t211 -76q144 0 210.5 73t66.5 234v929h386v-950q0 -204 -93 -337.5t-273 -190.5q-1 -25 -2 -41t-1 -54q0 -61 48 -102t133 -41q42 0 89.5 12t68.5 22h9v-200q-48 -13 -112 -18.5
t-99 -5.5q-171 0 -262 82.5t-91 235.5q0 24 1.5 42t1.5 30z" />
    <glyph glyph-name="uogonek" unicode="&#x173;" horiz-adv-x="1459" 
d="M922.5 26.5q5.5 73.5 6.5 97.5q-100 -76 -183 -115.5t-198 -39.5q-186 0 -286.5 107t-100.5 316v731h362v-557q0 -85 5.5 -141.5t25.5 -93.5q19 -37 57.5 -54t107.5 -17q46 0 102 17t108 50v796h360v-1123h-151l-3.5 -40t-1.5 -44q0 -61 48 -102t133 -41q42 0 89.5 12
t68.5 22h9v-200q-48 -13 -112 -18.5t-99 -5.5q-171 0 -262 82.5t-91 235.5q0 52 5.5 125.5z" />
    <glyph glyph-name="Wcircumflex" unicode="&#x174;" horiz-adv-x="2311" 
d="M2245 1489l-401 -1489h-425l-267 970l-260 -970h-425l-401 1489h401l229 -1025l274 1025h383l261 -1025l240 1025h391zM1608 1656h-264l-185 219l-184 -219h-260l321 393h251z" />
    <glyph glyph-name="wcircumflex" unicode="&#x175;" horiz-adv-x="2006" 
d="M1961 1123l-348 -1123h-382l-229 757l-225 -757h-387l-345 1123h378l192 -774l240 774h319l228 -774l189 774h370zM1463 1283h-264l-185 219l-184 -219h-260l321 393h251z" />
    <glyph glyph-name="Ycircumflex" unicode="&#x176;" horiz-adv-x="1509" 
d="M1500 1489l-549 -913v-576h-384v558l-558 931h436l322 -576l311 576h422zM1208 1656h-264l-185 219l-184 -219h-260l321 393h251z" />
    <glyph glyph-name="ycircumflex" unicode="&#x177;" horiz-adv-x="1333" 
d="M677 397l256 726h370l-624 -1535h-390l178 420l-437 1115h378zM1116 1283h-264l-185 219l-184 -219h-260l321 393h251z" />
    <glyph glyph-name="longs" unicode="&#x17f;" horiz-adv-x="706" 
d="M871 1292h-27q-24 7 -62.5 16t-82.5 9q-94 0 -131.5 -37.5t-37.5 -147.5v-1132h-360v1154q0 206 109.5 309t331.5 103q80 0 145 -5.5t115 -14.5v-254z" />
    <glyph glyph-name="Aringacute" unicode="&#x1fa;" horiz-adv-x="1590" 
d="M1566 0h-397l-123 301h-522l-113 -301h-387l524 1299q-42 40 -68.5 94t-26.5 114q0 92 55 166t144 110l189 265h337v-20l-270 -234q99 -30 164 -108t65 -179q0 -62 -27.5 -116.5t-67.5 -91.5zM953 574l-163 434l-173 -434h336zM931 1515q0 63 -38.5 104t-97.5 41
t-97.5 -41t-38.5 -104t38 -104.5t98 -41.5t98 42t38 104z" />
    <glyph glyph-name="aringacute" unicode="&#x1fb;" horiz-adv-x="1368" 
d="M850 293v234q-73 -6 -158 -16.5t-129 -24.5q-54 -17 -82.5 -49.5t-28.5 -85.5q0 -35 6 -57t30 -42q23 -20 55 -29.5t100 -9.5q54 0 109.5 22t97.5 58zM850 119l-72 -53t-81 -49q-53 -24 -110 -35.5t-125 -11.5q-160 0 -268 99t-108 253q0 123 55 201t156 123
q100 45 248 64t307 28v6q0 93 -76 128.5t-224 35.5q-89 0 -190 -31.5t-145 -48.5h-33v271q54 14 138.5 29t213.5 22q-79 36 -127.5 105t-48.5 160q0 95 52 167t135 105l187 291h334v-20l-291 -259q96 -27 157.5 -103.5t61.5 -180.5q0 -95 -52.5 -167t-137.5 -104
q200 -23 300.5 -112.5t100.5 -267.5v-764h-357v119zM814 1405q0 62 -38.5 107.5t-97.5 45.5t-97.5 -45t-38.5 -108t38 -102t98 -39q61 0 98.5 40t37.5 101z" />
    <glyph glyph-name="AEacute" unicode="&#x1fc;" horiz-adv-x="2240" 
d="M679 688h355v527h-144zM1034 404h-469l-162 -404h-399l611 1489h1493v-288h-695v-257h645v-288h-645v-368h695v-288h-1074v404zM1688 2049v-20l-352 -373h-246l247 393h351z" />
    <glyph glyph-name="aeacute" unicode="&#x1fd;" horiz-adv-x="2085" 
d="M2001 495h-811q5 -79 35.5 -131t79.5 -83t113 -44.5t139 -13.5q111 0 215.5 40t167.5 89h40v-289q-105 -43 -212.5 -68t-249.5 -25q-153 0 -293 44.5t-248 139.5l-84.5 -60t-103.5 -60q-65 -29 -137.5 -46.5t-182.5 -17.5q-170 0 -276.5 98.5t-106.5 253.5
q0 126 56 202.5t155 121.5q96 43 240.5 63t304.5 29v6q0 93 -70.5 128.5t-219.5 35.5q-89 0 -190 -31.5t-145 -48.5h-33v271q57 15 185.5 35.5t257.5 20.5q153 0 259.5 -29.5t178.5 -81.5q77 50 178 82t216 32q271 0 406.5 -138.5t135.5 -398.5v-126zM1643 706
q-3 111 -54.5 169t-160.5 58q-101 0 -166 -54t-73 -173h454zM877 306q-26 64 -33.5 125.5t-7.5 94.5q-83 -7 -151.5 -15t-122.5 -26q-51 -16 -80.5 -48.5t-29.5 -85.5q0 -29 7 -55t28 -44q21 -20 59.5 -29.5t92.5 -9.5q60 0 121.5 25.5t116.5 67.5zM1493 1676v-20l-352 -373
h-246l247 393h351z" />
    <glyph glyph-name="Oslashacute" unicode="&#x1fe;" horiz-adv-x="1741" 
d="M1192 1049l-541 -733q45 -36 101 -55t119 -19q72 0 143.5 29.5t120.5 89.5q57 68 84.5 163t27.5 221q0 84 -15.5 168t-39.5 136zM547 445l538 732q-47 36 -101.5 53t-112.5 17q-78 0 -141 -25t-120 -89q-52 -57 -84 -154.5t-32 -234.5q0 -90 14 -166.5t39 -132.5z
M329 162q-108 102 -167 250.5t-59 331.5q0 359 204 567.5t563 208.5q119 0 217.5 -23t184.5 -69l123 164h210l-196 -261q109 -100 169 -249.5t60 -337.5q0 -356 -204 -565.5t-564 -209.5q-115 0 -219.5 25t-187.5 71l-155 -207h-207zM1224 2049v-20l-352 -373h-246l247 393
h351z" />
    <glyph glyph-name="oslashacute" unicode="&#x1ff;" horiz-adv-x="1406" 
d="M933 745l-366 -498q28 -19 62.5 -28t76.5 -9q49 0 96.5 17.5t78.5 55.5q35 44 53.5 105.5t18.5 170.5q0 49 -5.5 101t-14.5 85zM479 356l375 509q-30 25 -67.5 36.5t-83.5 11.5q-53 0 -95.5 -14.5t-78.5 -56.5q-34 -38 -54.5 -109t-20.5 -174q0 -62 7 -113.5t18 -89.5z
M284 100q-95 80 -145.5 198t-50.5 263q0 279 162.5 438t452.5 159q94 0 172 -18.5t147 -52.5l121 166h175l-182 -242q87 -77 134.5 -192t47.5 -258q0 -277 -161.5 -436.5t-453.5 -159.5q-86 0 -162.5 16.5t-139.5 46.5l-139 -190h-174zM1058 1676v-20l-352 -373h-246
l247 393h351z" />
    <glyph glyph-name="anoteleia" unicode="&#x387;" horiz-adv-x="824" 
d="M599 730h-374v393h374v-393z" />
    <glyph glyph-name="Wgrave" unicode="&#x1e80;" horiz-adv-x="2311" 
d="M2245 1489l-401 -1489h-425l-267 970l-260 -970h-425l-401 1489h401l229 -1025l274 1025h383l261 -1025l240 1025h391zM1392 1656h-246l-352 373v20h351z" />
    <glyph glyph-name="wgrave" unicode="&#x1e81;" horiz-adv-x="2006" 
d="M1961 1123l-348 -1123h-382l-229 757l-225 -757h-387l-345 1123h378l192 -774l240 774h319l228 -774l189 774h370zM1217 1283h-246l-352 373v20h351z" />
    <glyph glyph-name="Wacute" unicode="&#x1e82;" horiz-adv-x="2311" 
d="M2245 1489l-401 -1489h-425l-267 970l-260 -970h-425l-401 1489h401l229 -1025l274 1025h383l261 -1025l240 1025h391zM1529 2049v-20l-352 -373h-246l247 393h351z" />
    <glyph glyph-name="wacute" unicode="&#x1e83;" horiz-adv-x="2006" 
d="M1961 1123l-348 -1123h-382l-229 757l-225 -757h-387l-345 1123h378l192 -774l240 774h319l228 -774l189 774h370zM1409 1676v-20l-352 -373h-246l247 393h351z" />
    <glyph glyph-name="Wdieresis" unicode="&#x1e84;" horiz-adv-x="2311" 
d="M2245 1489l-401 -1489h-425l-267 970l-260 -970h-425l-401 1489h401l229 -1025l274 1025h383l261 -1025l240 1025h391zM1579 1656h-297v273h297v-273zM1042 1656h-297v273h297v-273z" />
    <glyph glyph-name="wdieresis" unicode="&#x1e85;" horiz-adv-x="2006" 
d="M1961 1123l-348 -1123h-382l-229 757l-225 -757h-387l-345 1123h378l192 -774l240 774h319l228 -774l189 774h370zM1432 1283h-297v273h297v-273zM895 1283h-297v273h297v-273z" />
    <glyph glyph-name="Ygrave" unicode="&#x1ef2;" horiz-adv-x="1509" 
d="M1500 1489l-549 -913v-576h-384v558l-558 931h436l322 -576l311 576h422zM1037 1656h-246l-352 373v20h351z" />
    <glyph glyph-name="ygrave" unicode="&#x1ef3;" horiz-adv-x="1333" 
d="M677 397l256 726h370l-624 -1535h-390l178 420l-437 1115h378zM922 1283h-246l-352 373v20h351z" />
    <glyph glyph-name="quotereversed" unicode="&#x201b;" horiz-adv-x="680" 
d="M557 1556l-157 -589h-368l291 589h234z" />
    <glyph glyph-name="uni203E" unicode="&#x203e;" horiz-adv-x="1456" 
d="M1472 1628h-1488v211h1488v-211z" />
    <glyph glyph-name="lira" unicode="&#x20a4;" horiz-adv-x="1456" 
d="M1325 0h-1171v278q98 26 141 73t59 126h-169v174h181v136h-181v174h179v120q0 191 146.5 314t388.5 123q136 0 225.5 -16.5t142.5 -31.5v-312h-45q-76 47 -143 66.5t-125 19.5q-104 0 -168 -59.5t-64 -166.5v-57h437v-174h-439v-136h439v-174h-458q-15 -58 -58.5 -108
t-92.5 -76v-11h775v-282z" />
    <glyph glyph-name="estimated" unicode="&#x212e;" horiz-adv-x="1532" 
d="M1406 575h-899q6 -93 41.5 -155t88.5 -98t125.5 -54t157.5 -18q72 0 142 18t117 40q54 25 93.5 49.5t67.5 44.5h45v-322l-93.5 -36t-108.5 -34q-75 -19 -148 -27.5t-154 -8.5q-364 0 -558 175t-194 492q0 318 186.5 502.5t499.5 184.5q296 0 443.5 -158t147.5 -454v-141z
M1023 809q-3 131 -61.5 202t-179.5 71q-113 0 -187.5 -66t-83.5 -207h512z" />
    <glyph glyph-name="oneeighth" unicode="&#x215b;" horiz-adv-x="2420" 
d="M690 559h-277v607h-234v182q112 0 186.5 35.5t82.5 109.5h242v-934zM1654 1498l-785 -1498h-269l785 1498h269zM2277 249q0 -121 -112.5 -201t-322.5 -80q-208 0 -320.5 77t-112.5 201q0 79 44 133.5t141 93.5v6q-82 42 -116 93t-34 121q0 121 114.5 191t292.5 70
q194 0 296.5 -68t102.5 -183q0 -70 -38.5 -130.5t-121.5 -96.5v-6q97 -37 142 -86.5t45 -134.5zM1976 678q0 46 -35 76t-94 30q-52 0 -89.5 -27.5t-37.5 -69.5q0 -30 23 -57t84 -52q24 -10 51.5 -19t43.5 -13q31 29 42.5 64.5t11.5 67.5zM1997 246q0 47 -31.5 71t-104.5 51
q-21 8 -54 18.5t-44 14.5q-32 -22 -53.5 -57t-21.5 -75q0 -58 47 -94t112 -36q56 0 103 24.5t47 82.5z" />
    <glyph glyph-name="threeeighths" unicode="&#x215c;" horiz-adv-x="2420" 
d="M965 828q0 -140 -108.5 -213t-321.5 -73q-129 0 -216 18t-142 40v216h22q42 -23 121.5 -46.5t155.5 -23.5q99 0 148.5 23t49.5 79q0 48 -32.5 70t-127.5 22h-153v195h137q75 0 113 21.5t38 71.5q0 46 -41.5 66.5t-130.5 20.5q-66 0 -143.5 -24t-118.5 -46h-23v213
q64 22 153 41.5t208 19.5q178 0 283.5 -60t105.5 -178q0 -90 -48.5 -145.5t-124.5 -80.5v-8q87 -17 141.5 -72.5t54.5 -146.5zM1774 1498l-785 -1498h-269l785 1498h269zM2365 249q0 -121 -112.5 -201t-322.5 -80q-208 0 -320.5 77t-112.5 201q0 79 44 133.5t141 93.5v6
q-82 42 -116 93t-34 121q0 121 114.5 191t292.5 70q194 0 296.5 -68t102.5 -183q0 -70 -38.5 -130.5t-121.5 -96.5v-6q97 -37 142 -86.5t45 -134.5zM2064 678q0 46 -35 76t-94 30q-52 0 -89.5 -27.5t-37.5 -69.5q0 -30 23 -57t84 -52q24 -10 51.5 -19t43.5 -13
q31 29 42.5 64.5t11.5 67.5zM2085 246q0 47 -31.5 71t-104.5 51q-21 8 -54 18.5t-44 14.5q-32 -22 -53.5 -57t-21.5 -75q0 -58 47 -94t112 -36q56 0 103 24.5t47 82.5z" />
    <glyph glyph-name="fiveeighths" unicode="&#x215d;" horiz-adv-x="2420" 
d="M958 882q0 -162 -110.5 -252t-326.5 -90q-103 0 -197 16.5t-157 37.5v216h23q62 -26 137 -45t132 -19q101 0 153.5 28t52.5 99q0 57 -53.5 85.5t-186.5 28.5q-62 0 -113.5 -5.5t-90.5 -8.5v525h720v-206h-458v-120q19 2 50.5 2.5t52.5 0.5q180 0 276 -74t96 -219z
M1769 1498l-785 -1498h-269l785 1498h269zM2365 249q0 -121 -112.5 -201t-322.5 -80q-208 0 -320.5 77t-112.5 201q0 79 44 133.5t141 93.5v6q-82 42 -116 93t-34 121q0 121 114.5 191t292.5 70q194 0 296.5 -68t102.5 -183q0 -70 -38.5 -130.5t-121.5 -96.5v-6
q97 -37 142 -86.5t45 -134.5zM2064 678q0 46 -35 76t-94 30q-52 0 -89.5 -27.5t-37.5 -69.5q0 -30 23 -57t84 -52q24 -10 51.5 -19t43.5 -13q31 29 42.5 64.5t11.5 67.5zM2085 246q0 47 -31.5 71t-104.5 51q-21 8 -54 18.5t-44 14.5q-32 -22 -53.5 -57t-21.5 -75
q0 -58 47 -94t112 -36q56 0 103 24.5t47 82.5z" />
    <glyph glyph-name="seveneighths" unicode="&#x215e;" horiz-adv-x="2420" 
d="M998 1298l-475 -733h-304l482 718h-521v215h818v-200zM1670 1498l-785 -1498h-269l785 1498h269zM2298 249q0 -121 -112.5 -201t-322.5 -80q-208 0 -320.5 77t-112.5 201q0 79 44 133.5t141 93.5v6q-82 42 -116 93t-34 121q0 121 114.5 191t292.5 70q194 0 296.5 -68
t102.5 -183q0 -70 -38.5 -130.5t-121.5 -96.5v-6q97 -37 142 -86.5t45 -134.5zM1997 678q0 46 -35 76t-94 30q-52 0 -89.5 -27.5t-37.5 -69.5q0 -30 23 -57t84 -52q24 -10 51.5 -19t43.5 -13q31 29 42.5 64.5t11.5 67.5zM2018 246q0 47 -31.5 71t-104.5 51q-21 8 -54 18.5
t-44 14.5q-32 -22 -53.5 -57t-21.5 -75q0 -58 47 -94t112 -36q56 0 103 24.5t47 82.5z" />
    <glyph glyph-name="uniF004" horiz-adv-x="680" 
d="M685 166l-291 -589h-234l157 589h368z" />
    <glyph glyph-name="uniF005" horiz-adv-x="1456" 
d="M1006 -86q0 -162 -99.5 -249.5t-259.5 -87.5q-35 0 -101.5 5.5t-111.5 18.5v200h23q24 -11 70 -23t88 -12q80 0 122.5 41.5t42.5 118.5q0 23 -1 52.5t-1 41.5h223q1 -18 3 -49.5t2 -56.5z" />
    <glyph glyph-name="tonos" unicode="&#x384;" horiz-adv-x="1456" 
d="M919 1676l-73 -393h-236l-73 393h382z" />
    <glyph glyph-name="dieresistonos" unicode="&#x385;" horiz-adv-x="1456" 
d="M898 1676l-73 -393h-195l-73 393h341zM1257 1283h-267v273h267v-273zM466 1283h-267v273h267v-273z" />
    <glyph glyph-name="Alphatonos" unicode="&#x386;" horiz-adv-x="1633" 
d="M1609 0h-397l-103 301h-552l-103 -301h-387l550 1489h442zM1016 574l-183 534l-183 -534h366zM361 1489l-73 -393h-236l-73 393h382z" />
    <glyph glyph-name="Epsilontonos" unicode="&#x388;" horiz-adv-x="1736" 
d="M1603 0h-1077v1489h1077v-288h-695v-257h645v-288h-645v-368h695v-288zM361 1489l-73 -393h-236l-73 393h382z" />
    <glyph glyph-name="Etatonos" unicode="&#x389;" horiz-adv-x="2050" 
d="M1860 0h-384v656h-567v-656h-384v1489h384v-545h567v545h384v-1489zM361 1489l-73 -393h-236l-73 393h382z" />
    <glyph glyph-name="Iotatonos" unicode="&#x38a;" horiz-adv-x="1444" 
d="M1321 0h-872v264h244v961h-244v264h872v-264h-244v-961h244v-264zM361 1489l-73 -393h-236l-73 393h382z" />
    <glyph glyph-name="Omicrontonos" unicode="&#x38c;" horiz-adv-x="1983" 
d="M1880 744q0 -356 -204 -565.5t-564 -209.5q-359 0 -563 209.5t-204 565.5q0 359 204 567.5t563 208.5q358 0 563 -208.5t205 -567.5zM1371 367q56 68 83 160.5t27 217.5q0 134 -31 228t-81 152q-51 60 -117.5 87t-138.5 27q-73 0 -137.5 -26t-118.5 -86
q-50 -56 -81.5 -154.5t-31.5 -228.5q0 -133 30.5 -226.5t80.5 -152.5t117 -87t141 -28t141 28.5t117 88.5zM361 1489l-73 -393h-236l-73 393h382z" />
    <glyph glyph-name="Upsilontonos" unicode="&#x38e;" horiz-adv-x="1924" 
d="M1915 1489l-549 -913v-576h-384v558l-558 931h436l322 -576l311 576h422zM361 1489l-73 -393h-236l-73 393h382z" />
    <glyph glyph-name="Omegatonos" unicode="&#x38f;" horiz-adv-x="1987" 
d="M1934 0h-716v488q61 37 100.5 63t77.5 78q36 47 54.5 101.5t18.5 147.5q0 168 -93 264.5t-253 96.5t-253 -96.5t-93 -264.5q0 -87 19.5 -147t53.5 -104q34 -43 82.5 -77t95.5 -62v-488h-716v288h474v63q-204 81 -306 224t-102 343q0 262 204 432t541 170t541 -170
t204 -432q0 -200 -102 -343t-306 -224v-63h474v-288zM361 1489l-73 -393h-236l-73 393h382z" />
    <glyph glyph-name="iotadieresistonos" unicode="&#x390;" horiz-adv-x="700" 
d="M530 0h-360v1123h360v-1123zM486 1676l-59 -393h-155l-59 393h273zM799 1283h-227v273h227v-273zM128 1283h-227v273h227v-273z" />
    <glyph glyph-name="Alpha" unicode="&#x391;" horiz-adv-x="1590" 
d="M1566 0h-397l-103 301h-552l-103 -301h-387l550 1489h442zM973 574l-183 534l-183 -534h366z" />
    <glyph glyph-name="Beta" unicode="&#x392;" horiz-adv-x="1560" 
d="M1464 456q0 -108 -43.5 -193t-119.5 -141q-88 -66 -193.5 -94t-267.5 -28h-650v1489h578q180 0 263.5 -12t165.5 -53q85 -43 126.5 -115.5t41.5 -165.5q0 -108 -57 -190.5t-161 -128.5v-8q146 -29 231.5 -120t85.5 -240zM972 1068q0 37 -18.5 74t-65.5 55
q-42 16 -104.5 17.5t-175.5 1.5h-36v-315h60q91 0 155 3t101 20q52 23 68 59.5t16 84.5zM1066 462q0 71 -27.5 109.5t-93.5 57.5q-45 13 -124 14t-165 1h-84v-371h28q162 0 232 1t129 26q60 25 82.5 66.5t22.5 95.5z" />
    <glyph glyph-name="Delta" unicode="&#x394;" horiz-adv-x="1650" 
d="M1616 0h-1582l570 1489h442zM1122 286l-302 822l-302 -822h604z" />
    <glyph glyph-name="Epsilon" unicode="&#x395;" horiz-adv-x="1399" 
d="M1267 0h-1077v1489h1077v-288h-695v-257h645v-288h-645v-368h695v-288z" />
    <glyph glyph-name="Zeta" unicode="&#x396;" horiz-adv-x="1417" 
d="M1341 0h-1251v279l742 922h-706v288h1175v-284l-741 -917h781v-288z" />
    <glyph glyph-name="Eta" unicode="&#x397;" horiz-adv-x="1715" 
d="M1525 0h-384v656h-567v-656h-384v1489h384v-545h567v545h384v-1489z" />
    <glyph glyph-name="Iota" unicode="&#x399;" horiz-adv-x="1118" 
d="M995 0h-872v264h244v961h-244v264h872v-264h-244v-961h244v-264z" />
    <glyph glyph-name="Kappa" unicode="&#x39a;" horiz-adv-x="1579" 
d="M1580 0h-471l-445 596l-90 -109v-487h-384v1489h384v-674l532 674h445l-582 -689z" />
    <glyph glyph-name="Lambda" unicode="&#x39b;" horiz-adv-x="1590" 
d="M1566 0h-400l-376 1077l-376 -1077h-390l559 1489h424z" />
    <glyph glyph-name="Mu" unicode="&#x39c;" horiz-adv-x="1941" 
d="M1751 0h-382v997l-276 -647h-265l-276 647v-997h-362v1489h446l335 -747l334 747h446v-1489z" />
    <glyph glyph-name="Nu" unicode="&#x39d;" horiz-adv-x="1734" 
d="M1544 0h-370l-632 1022v-1022h-352v1489h459l543 -853v853h352v-1489z" />
    <glyph glyph-name="Xi" unicode="&#x39e;" horiz-adv-x="1464" 
d="M1327 1181h-1190v308h1190v-308zM1277 618h-1090v308h1090v-308zM1327 0h-1190v308h1190v-308z" />
    <glyph glyph-name="Omicron" unicode="&#x39f;" horiz-adv-x="1741" 
d="M1638 744q0 -356 -204 -565.5t-564 -209.5q-359 0 -563 209.5t-204 565.5q0 359 204 567.5t563 208.5q358 0 563 -208.5t205 -567.5zM1129 367q56 68 83 160.5t27 217.5q0 134 -31 228t-81 152q-51 60 -117.5 87t-138.5 27q-73 0 -137.5 -26t-118.5 -86
q-50 -56 -81.5 -154.5t-31.5 -228.5q0 -133 30.5 -226.5t80.5 -152.5t117 -87t141 -28t141 28.5t117 88.5z" />
    <glyph glyph-name="Pi" unicode="&#x3a0;" horiz-adv-x="1715" 
d="M1525 0h-384v1201h-567v-1201h-384v1489h1335v-1489z" />
    <glyph glyph-name="Rho" unicode="&#x3a1;" horiz-adv-x="1501" 
d="M1419 1019q0 -100 -35 -195.5t-100 -160.5q-89 -88 -198.5 -133t-272.5 -45h-239v-485h-384v1489h632q142 0 239.5 -24.5t172.5 -73.5q90 -59 137.5 -151t47.5 -221zM1022 1010q0 63 -34 108.5t-79 63.5q-60 24 -117 26.5t-152 2.5h-66v-446h110q98 0 161.5 12t106.5 48
q37 32 53.5 76.5t16.5 108.5z" />
    <glyph glyph-name="Sigma" unicode="&#x3a3;" horiz-adv-x="1400" 
d="M1325 0h-1221v288l527 485l-509 433v283h1170v-288h-690l466 -392v-77l-492 -444h749v-288z" />
    <glyph glyph-name="Tau" unicode="&#x3a4;" horiz-adv-x="1396" 
d="M1355 1201h-465v-1201h-384v1201h-465v288h1314v-288z" />
    <glyph glyph-name="Upsilon" unicode="&#x3a5;" horiz-adv-x="1509" 
d="M1500 1489l-549 -913v-576h-384v558l-558 931h436l322 -576l311 576h422z" />
    <glyph glyph-name="Chi" unicode="&#x3a7;" horiz-adv-x="1564" 
d="M1540 0h-444l-321 490l-327 -490h-424l528 750l-517 739h443l310 -464l319 464h425l-520 -724z" />
    <glyph glyph-name="Psi" unicode="&#x3a8;" horiz-adv-x="1999" 
d="M1860 937q0 -150 -43.5 -260t-127.5 -181q-85 -72 -208.5 -113t-291.5 -56v-327h-379v327q-165 15 -291 56t-209 113q-85 73 -128 182t-43 259v552h379v-552q0 -86 19 -147t57 -104q37 -41 92 -66.5t124 -37.5v907h379v-907q70 13 125 37.5t91 66.5q39 45 57.5 101.5
t18.5 149.5v552h379v-552z" />
    <glyph glyph-name="Omega" unicode="&#x3a9;" horiz-adv-x="1728" 
d="M1675 0h-716v488q61 37 100.5 63t77.5 78q36 47 54.5 101.5t18.5 147.5q0 168 -93 264.5t-253 96.5t-253 -96.5t-93 -264.5q0 -87 19.5 -147t53.5 -104q34 -43 82.5 -77t95.5 -62v-488h-716v288h474v63q-204 81 -306 224t-102 343q0 262 204 432t541 170t541 -170
t204 -432q0 -200 -102 -343t-306 -224v-63h474v-288z" />
    <glyph glyph-name="Iotadieresis" unicode="&#x3aa;" horiz-adv-x="1118" 
d="M995 0h-872v264h244v961h-244v264h872v-264h-244v-961h244v-264zM976 1656h-297v273h297v-273zM439 1656h-297v273h297v-273z" />
    <glyph glyph-name="Upsilondieresis" unicode="&#x3ab;" horiz-adv-x="1509" 
d="M1500 1489l-549 -913v-576h-384v558l-558 931h436l322 -576l311 576h422zM1175 1656h-297v273h297v-273zM638 1656h-297v273h297v-273z" />
    <glyph glyph-name="alphatonos" unicode="&#x3ac;" horiz-adv-x="1432" 
d="M1262 0h-360v117q-104 -83 -182.5 -115.5t-178.5 -32.5q-208 0 -329.5 158.5t-121.5 425.5q0 273 132 437t340 164q88 0 160 -26.5t180 -121.5v117h360v-1123zM902 310v505q-44 34 -86.5 50.5t-94.5 16.5q-132 0 -196 -79.5t-64 -236.5q0 -179 57.5 -251t182.5 -72
q49 0 104 18.5t97 48.5zM890 1676l-73 -393h-236l-73 393h382z" />
    <glyph glyph-name="epsilontonos" unicode="&#x3ad;" horiz-adv-x="1198" 
d="M1135 56q-117 -42 -227.5 -64.5t-262.5 -22.5q-108 0 -208 17t-177 56q-78 39 -123.5 103.5t-45.5 157.5q0 98 59 170t176 109v7q-91 26 -144.5 92t-53.5 157q0 89 49.5 149.5t122.5 96.5q71 35 170.5 53t205.5 18q141 0 247.5 -23.5t168.5 -41.5v-268h-39
q-49 24 -138.5 52.5t-186.5 28.5q-47 0 -84 -5.5t-67 -15.5q-32 -11 -53.5 -33t-21.5 -53q0 -43 24.5 -65t60.5 -29q41 -9 85.5 -9.5t97.5 -0.5h125v-228h-169q-63 0 -106 -2.5t-80 -14.5q-34 -11 -53.5 -36.5t-19.5 -66.5q0 -36 24 -60.5t63 -38.5q38 -13 83.5 -18.5
t94.5 -5.5q103 0 204 33.5t160 71.5h39v-270zM846 1676l-73 -393h-236l-73 393h382z" />
    <glyph glyph-name="etatonos" unicode="&#x3ae;" horiz-adv-x="1459" 
d="M1298 -412h-362v969q0 68 -7 135.5t-24 99.5q-20 37 -58.5 54t-107.5 17q-49 0 -99.5 -16t-109.5 -51v-796h-360v1123h360v-124q96 75 184.5 115t196.5 40q182 0 284.5 -106t102.5 -317v-1143zM950 1676l-73 -393h-236l-73 393h382z" />
    <glyph glyph-name="iotatonos" unicode="&#x3af;" horiz-adv-x="700" 
d="M530 0h-360v1123h360v-1123zM543 1676l-73 -393h-236l-73 393h382z" />
    <glyph glyph-name="upsilondieresistonos" unicode="&#x3b0;" horiz-adv-x="1446" 
d="M1287 412q0 -218 -145.5 -332.5t-419.5 -114.5q-268 0 -415.5 113t-147.5 334v711h362v-599q0 -91 5.5 -140.5t29.5 -92.5q23 -41 64 -58t103 -17q67 0 107.5 19.5t60.5 57.5q19 37 26.5 91t7.5 140v599h362v-711zM893 1676l-73 -393h-195l-73 393h341zM1252 1283h-267
v273h267v-273zM461 1283h-267v273h267v-273z" />
    <glyph glyph-name="beta" unicode="&#x3b2;" horiz-adv-x="1467" 
d="M1377 445q0 -201 -141 -333.5t-360 -132.5q-99 0 -187 20t-159 59v-470h-360v1480q0 240 154.5 367.5t444.5 127.5q123 0 217.5 -24.5t166.5 -73.5q73 -49 110 -120.5t37 -156.5q0 -119 -68 -212.5t-188 -131.5v-17q156 -29 244.5 -127.5t88.5 -254.5zM1007 472
q0 68 -24.5 111t-71.5 70q-45 25 -108.5 34t-135.5 9h-38v234q153 0 227.5 44.5t74.5 166.5q0 84 -54 129.5t-132 45.5q-58 0 -99.5 -20t-68.5 -55q-25 -34 -36 -79.5t-11 -90.5v-806q37 -14 90 -22t96 -8q139 0 215 60.5t76 176.5z" />
    <glyph glyph-name="gamma" unicode="&#x3b3;" horiz-adv-x="1333" 
d="M1303 1123l-465 -1096v-439h-360v439l-448 1096h378l269 -692l256 692h370z" />
    <glyph glyph-name="zeta" unicode="&#x3b6;" horiz-adv-x="1125" 
d="M1074 162q35 -44 53.5 -99t18.5 -112q0 -96 -45 -193.5t-112 -169.5h-306v24q80 73 113 134.5t33 122.5q0 56 -39 94.5t-98 38.5h-136q-236 0 -350.5 108.5t-114.5 324.5q0 130 44.5 249t123.5 231q73 104 172 200t208 185v8h-464v248h939v-225q-122 -72 -234 -161
t-207 -197q-93 -106 -149 -222t-56 -228q0 -31 2 -59t14 -63q11 -33 33.5 -62t64.5 -51q36 -19 91 -21.5t122 -2.5h61q71 0 126.5 -28.5t91.5 -73.5z" />
    <glyph glyph-name="eta" unicode="&#x3b7;" horiz-adv-x="1459" 
d="M1298 -412h-362v969q0 68 -7 135.5t-24 99.5q-20 37 -58.5 54t-107.5 17q-49 0 -99.5 -16t-109.5 -51v-796h-360v1123h360v-124q96 75 184.5 115t196.5 40q182 0 284.5 -106t102.5 -317v-1143z" />
    <glyph glyph-name="theta" unicode="&#x3b8;" horiz-adv-x="1434" 
d="M1315 759q0 -116 -20 -266t-78 -257q-63 -118 -179 -194t-321 -76q-201 0 -319.5 76.5t-181.5 196.5q-62 119 -79.5 263t-17.5 266q0 128 18 266t81 256q61 117 180.5 193t318.5 76q202 0 320.5 -77.5t180.5 -196.5q61 -118 79 -258.5t18 -267.5zM955 902
q-3 85 -18.5 167t-43.5 138q-29 56 -73.5 81t-102.5 25q-59 0 -103 -25.5t-73 -80.5q-32 -64 -45.5 -146.5t-16.5 -158.5h476zM955 653h-476q1 -85 13.5 -173t46.5 -157q28 -56 73 -83.5t105 -27.5q59 0 105.5 27.5t73.5 86.5q29 65 43.5 155t15.5 172z" />
    <glyph glyph-name="iota" unicode="&#x3b9;" horiz-adv-x="700" 
d="M530 0h-360v1123h360v-1123z" />
    <glyph glyph-name="kappa" unicode="&#x3ba;" horiz-adv-x="1374" 
d="M1362 0h-419l-315 489l-98 -123v-366h-360v1123h360v-496l277 346q54 69 131 110.5t171 41.5q31 0 79 -1t70 -1v-317h-17q-10 2 -30.5 4t-39.5 2q-53 0 -93.5 -18.5t-71.5 -59.5l-77 -95z" />
    <glyph glyph-name="lambda" unicode="&#x3bb;" horiz-adv-x="1333" 
d="M1312 0h-383l-248 728l-287 -728h-372l462 1112l-182 444h401z" />
    <glyph glyph-name="mu" unicode="&#x3bc;" horiz-adv-x="1477" 
d="M988 0l-16 80h-7q-44 -38 -97.5 -66.5t-126.5 -28.5q-66 0 -121.5 27t-89.5 60v-484h-360v1535h360v-799q45 -36 99 -51t109 -15q51 0 107.5 15.5t101.5 50.5v799h360v-1123h-319z" />
    <glyph glyph-name="nu" unicode="&#x3bd;" horiz-adv-x="1331" 
d="M1301 1123l-433 -1123h-408l-430 1123h381l260 -772l257 772h373z" />
    <glyph glyph-name="xi" unicode="&#x3be;" horiz-adv-x="1189" 
d="M1198 -49q0 -96 -45 -193.5t-112 -169.5h-306v24q87 82 116.5 141t29.5 116q0 53 -37.5 93t-99.5 40h-153q-111 0 -204 26.5t-160 78.5t-104 128t-37 173q0 155 93 254t254 138v11q-114 25 -190 92.5t-76 164.5q0 79 51 137t133 97v10h-234v244h992v-248h-271
q-73 0 -119.5 -10t-92.5 -36q-39 -23 -62 -61t-23 -87q0 -59 27.5 -97t70.5 -59q45 -21 98.5 -29t110.5 -8h215v-259h-319q-133 0 -208 -52t-75 -146q0 -72 28 -111.5t78 -59.5q48 -19 111 -24t139 -5h91q71 0 126.5 -28.5t91.5 -73.5q35 -44 53.5 -99t18.5 -112z" />
    <glyph glyph-name="omicron" unicode="&#x3bf;" horiz-adv-x="1406" 
d="M1318 561q0 -277 -161.5 -436.5t-453.5 -159.5t-453.5 159.5t-161.5 436.5q0 279 162.5 438t452.5 159q294 0 454.5 -160t160.5 -437zM875 288q35 43 52.5 103.5t17.5 167.5q0 99 -18 166t-50 107q-32 41 -77 58t-97 17t-92.5 -14t-77.5 -56q-33 -39 -52.5 -107
t-19.5 -171q0 -92 17 -159.5t50 -108.5q32 -39 76.5 -57t101.5 -18q49 0 93.5 16.5t75.5 55.5z" />
    <glyph glyph-name="rho" unicode="&#x3c1;" horiz-adv-x="1432" 
d="M1342 581q0 -244 -133.5 -423.5t-377.5 -179.5q-99 0 -172.5 24t-128.5 55v-469h-360v1061q0 128 42 219.5t121 158.5q73 62 180 96.5t237 34.5q280 0 436 -149t156 -428zM971 568q0 181 -57 260t-169 79q-104 0 -159.5 -67.5t-55.5 -175.5v-407q44 -16 92.5 -19t68.5 -3
q141 0 210.5 84t69.5 249z" />
    <glyph glyph-name="sigma1" unicode="&#x3c2;" horiz-adv-x="1151" 
d="M1146 -49q0 -103 -48 -199.5t-109 -163.5h-307v24q83 79 115 138.5t32 118.5q0 54 -38 93.5t-97 39.5h-55q-114 0 -214.5 33t-174.5 101q-74 67 -118 173.5t-44 247.5q0 153 52.5 266.5t145.5 189.5q85 70 201.5 105.5t244.5 35.5q145 0 243.5 -33.5t140.5 -53.5v-300
h-47q-23 21 -50.5 43t-70.5 44q-40 21 -92 34.5t-111 13.5q-141 0 -212.5 -83t-71.5 -218q0 -172 81.5 -254.5t265.5 -82.5h50q125 0 206.5 -90.5t81.5 -222.5z" />
    <glyph glyph-name="upsilon" unicode="&#x3c5;" horiz-adv-x="1446" 
d="M1287 412q0 -218 -145.5 -332.5t-419.5 -114.5q-268 0 -415.5 113t-147.5 334v711h362v-599q0 -91 5.5 -140.5t29.5 -92.5q23 -41 64 -58t103 -17q67 0 107.5 19.5t60.5 57.5q19 37 26.5 91t7.5 140v599h362v-711z" />
    <glyph glyph-name="chi" unicode="&#x3c7;" horiz-adv-x="1301" 
d="M1296 -412h-377l-270 529l-274 -529h-370l425 777l-410 758h377l255 -503l260 503h369l-411 -751z" />
    <glyph glyph-name="psi" unicode="&#x3c8;" horiz-adv-x="1928" 
d="M1770 482q0 -124 -47.5 -215.5t-133.5 -150.5q-81 -57 -195.5 -90.5t-248.5 -44.5v-393h-362v393q-140 13 -246 42t-197 93q-85 59 -133.5 149.5t-48.5 216.5v641h362v-607q0 -87 20.5 -141t55.5 -86q34 -30 84.5 -46t102.5 -21v901h362v-901q53 6 103 21t84 46
q37 35 56.5 84.5t19.5 142.5v607h362v-641z" />
    <glyph glyph-name="omega" unicode="&#x3c9;" horiz-adv-x="1831" 
d="M1740 501q0 -96 -26 -192.5t-83 -171.5q-60 -77 -147 -123.5t-221 -46.5q-107 0 -193 42t-149 119h-12q-63 -77 -149 -119t-193 -42q-128 0 -219 47t-148 123t-83 171.5t-26 192.5q0 183 65.5 330t195.5 292h386v-23q-139 -119 -210.5 -271.5t-71.5 -320.5
q0 -56 6.5 -100.5t27.5 -92.5q18 -42 50.5 -69.5t78.5 -27.5q38 0 68.5 8t47.5 19v593h360v-593q17 -11 43.5 -19t72.5 -8t78.5 28.5t50.5 70.5q18 40 26.5 90.5t8.5 100.5q0 168 -71 319t-212 273v23h386q128 -137 195 -287t67 -335z" />
    <glyph glyph-name="iotadieresis" unicode="&#x3ca;" horiz-adv-x="700" 
d="M530 0h-360v1123h360v-1123zM718 1283h-277v273h277v-273zM259 1283h-277v273h277v-273z" />
    <glyph glyph-name="upsilondieresis" unicode="&#x3cb;" horiz-adv-x="1446" 
d="M1287 412q0 -218 -145.5 -332.5t-419.5 -114.5q-268 0 -415.5 113t-147.5 334v711h362v-599q0 -91 5.5 -140.5t29.5 -92.5q23 -41 64 -58t103 -17q67 0 107.5 19.5t60.5 57.5q19 37 26.5 91t7.5 140v599h362v-711zM1140 1283h-297v273h297v-273zM603 1283h-297v273h297
v-273z" />
    <glyph glyph-name="omicrontonos" unicode="&#x3cc;" horiz-adv-x="1406" 
d="M1318 561q0 -277 -161.5 -436.5t-453.5 -159.5t-453.5 159.5t-161.5 436.5q0 279 162.5 438t452.5 159q294 0 454.5 -160t160.5 -437zM875 288q35 43 52.5 103.5t17.5 167.5q0 99 -18 166t-50 107q-32 41 -77 58t-97 17t-92.5 -14t-77.5 -56q-33 -39 -52.5 -107
t-19.5 -171q0 -92 17 -159.5t50 -108.5q32 -39 76.5 -57t101.5 -18q49 0 93.5 16.5t75.5 55.5zM895 1676l-73 -393h-236l-73 393h382z" />
    <glyph glyph-name="upsilontonos" unicode="&#x3cd;" horiz-adv-x="1446" 
d="M1287 412q0 -218 -145.5 -332.5t-419.5 -114.5q-268 0 -415.5 113t-147.5 334v711h362v-599q0 -91 5.5 -140.5t29.5 -92.5q23 -41 64 -58t103 -17q67 0 107.5 19.5t60.5 57.5q19 37 26.5 91t7.5 140v599h362v-711zM914 1676l-73 -393h-236l-73 393h382z" />
    <glyph glyph-name="omegatonos" unicode="&#x3ce;" horiz-adv-x="1831" 
d="M1740 501q0 -96 -26 -192.5t-83 -171.5q-60 -77 -147 -123.5t-221 -46.5q-107 0 -193 42t-149 119h-12q-63 -77 -149 -119t-193 -42q-128 0 -219 47t-148 123t-83 171.5t-26 192.5q0 183 65.5 330t195.5 292h386v-23q-139 -119 -210.5 -271.5t-71.5 -320.5
q0 -56 6.5 -100.5t27.5 -92.5q18 -42 50.5 -69.5t78.5 -27.5q38 0 68.5 8t47.5 19v593h360v-593q17 -11 43.5 -19t72.5 -8t78.5 28.5t50.5 70.5q18 40 26.5 90.5t8.5 100.5q0 168 -71 319t-212 273v23h386q128 -137 195 -287t67 -335zM1108 1676l-73 -393h-236l-73 393h382z
" />
    <glyph glyph-name="afii10023" unicode="&#x401;" horiz-adv-x="1399" 
d="M1267 0h-1077v1489h1077v-288h-695v-257h645v-288h-645v-368h695v-288zM1145 1656h-297v273h297v-273zM608 1656h-297v273h297v-273z" />
    <glyph glyph-name="afii10051" unicode="&#x402;" horiz-adv-x="1865" 
d="M1773 478q0 -109 -41.5 -200.5t-113.5 -149.5q-88 -70 -175.5 -99t-245.5 -29h-112v282h54q67 0 114 15t72 40q29 27 40 58t11 72q0 37 -8 70t-35 61q-27 27 -74 43t-130 16h-270v-657h-384v1201h-434v288h1283v-288h-465v-267h337q157 0 254.5 -22t175.5 -83
q77 -60 112 -151.5t35 -199.5z" />
    <glyph glyph-name="afii10052" unicode="&#x403;" horiz-adv-x="1305" 
d="M1264 1201h-690v-1201h-384v1489h1074v-288zM1119 2049v-20l-352 -373h-246l247 393h351z" />
    <glyph glyph-name="afii10053" unicode="&#x404;" horiz-adv-x="1519" 
d="M1417 86l-95.5 -39t-122.5 -37q-72 -18 -145.5 -28.5t-174.5 -10.5q-171 0 -314 49t-245 146q-103 97 -160 241.5t-57 335.5q0 177 54 321t158 247q102 101 246.5 154t318.5 53q89 0 166.5 -10t145.5 -26q69 -16 125.5 -37t99.5 -41v-342h-41l-71.5 54.5t-104.5 60.5
q-54 27 -130.5 47.5t-153.5 20.5q-72 0 -135.5 -16.5t-125.5 -57.5q-59 -39 -100.5 -100.5t-59.5 -150.5h652v-284h-666q10 -114 54 -190t106 -121q59 -42 130 -61.5t147 -19.5q84 0 159.5 19.5t132.5 48.5q52 26 96 57t72 54h39v-337z" />
    <glyph glyph-name="afii10054" unicode="&#x405;" horiz-adv-x="1455" 
d="M1382 468q0 -220 -186.5 -357.5t-506.5 -137.5q-185 0 -322.5 32.5t-257.5 82.5v357h42q119 -95 266.5 -146t283.5 -51q35 0 92 6t93 20q44 18 72.5 45t28.5 80q0 49 -41.5 84.5t-121.5 54.5q-84 20 -177.5 37.5t-175.5 44.5q-188 61 -270.5 165.5t-82.5 259.5
q0 208 186.5 339.5t479.5 131.5q147 0 290.5 -28.5t248.5 -71.5v-343h-41q-90 72 -220.5 120.5t-266.5 48.5q-48 0 -95.5 -6.5t-91.5 -24.5q-39 -15 -67 -45.5t-28 -69.5q0 -59 45 -90.5t170 -57.5l157.5 -33t162.5 -44q171 -56 252.5 -152.5t81.5 -250.5z" />
    <glyph glyph-name="afii10055" unicode="&#x406;" horiz-adv-x="1118" 
d="M995 0h-872v264h244v961h-244v264h872v-264h-244v-961h244v-264z" />
    <glyph glyph-name="afii10056" unicode="&#x407;" horiz-adv-x="1118" 
d="M995 0h-872v264h244v961h-244v264h872v-264h-244v-961h244v-264zM976 1656h-297v273h297v-273zM439 1656h-297v273h297v-273z" />
    <glyph glyph-name="afii10057" unicode="&#x408;" horiz-adv-x="1137" 
d="M966 437q0 -98 -35 -183.5t-104 -144.5q-73 -63 -176 -97.5t-255 -34.5q-103 0 -194 7.5t-160 21.5v302h36q48 -18 100 -33.5t133 -15.5q105 0 161.5 28t80.5 78q23 49 26 107.5t3 149.5v593h-341v274h725v-1052z" />
    <glyph glyph-name="afii10058" unicode="&#x409;" horiz-adv-x="2503" 
d="M2014 467q0 37 -8 70t-35 61q-27 27 -74 43t-130 16h-242v-379h242q63 0 113.5 16t77.5 41q27 24 41.5 57.5t14.5 74.5zM2411 478q0 -109 -41.5 -200.5t-113.5 -149.5q-91 -73 -189.5 -100.5t-238.5 -27.5h-687v1201h-410l-8 -154t-9 -148q-13 -202 -39.5 -339.5
t-59.5 -226.5q-34 -90 -72 -147t-76 -93q-49 -47 -122 -75t-155 -28q-50 0 -103.5 4t-68.5 6v333h14q9 -1 20.5 -2t26.5 -1q60 0 86 8t45 24q76 67 104.5 212.5t42.5 407.5q6 104 9.5 226.5t6.5 280.5h1152v-555h309q153 0 253.5 -22t176.5 -83q77 -60 112 -151.5t35 -199.5
z" />
    <glyph glyph-name="afii10059" unicode="&#x40a;" horiz-adv-x="2487" 
d="M1998 467q0 37 -8 70t-35 61q-27 27 -74 43t-130 16h-242v-379h242q63 0 113.5 16t77.5 41q27 24 41.5 57.5t14.5 74.5zM2395 478q0 -109 -41.5 -200.5t-113.5 -149.5q-91 -73 -189.5 -100.5t-238.5 -27.5h-687v657h-551v-657h-384v1489h384v-555h551v555h384v-555h309
q153 0 253 -22.5t177 -82.5t112 -151.5t35 -199.5z" />
    <glyph glyph-name="afii10060" unicode="&#x40b;" horiz-adv-x="1917" 
d="M879 0h-384v1201h-454v288h1303v-288h-465v-303q81 17 198.5 33t215.5 16q106 0 193 -25t156 -80q66 -52 105 -135t39 -197v-510h-386v313q0 83 -8.5 144.5t-41.5 108.5q-32 45 -94.5 68t-168.5 23q-52 0 -100 -4.5t-108 -13.5v-639z" />
    <glyph glyph-name="afii10061" unicode="&#x40c;" horiz-adv-x="1579" 
d="M1579 0h-471l-440 601h-94v-601h-384v1489h384v-607q47 2 78 9.5t57 26.5q27 20 58 59.5t65 97.5l47.5 85.5l44.5 81.5q77 135 162 192.5t257 57.5q51 0 91 -1.5t59 -1.5v-323h-111q-82 0 -127.5 -42t-100.5 -148q-55 -105 -90 -147.5t-68 -60.5zM1179 2049v-20
l-352 -373h-246l247 393h351z" />
    <glyph glyph-name="afii10062" unicode="&#x40e;" horiz-adv-x="1509" 
d="M1501 1489l-542 -1191q-47 -103 -108 -166t-126 -93q-65 -31 -128.5 -40t-126.5 -9q-70 0 -166 3.5t-127 6.5v325h23q21 -6 74 -12.5t105 -6.5q99 0 160.5 19t75.5 50l-605 1114h417l370 -706l305 706h399zM1299 1980q-1 -186 -141 -292t-395 -106t-395 106t-141 292h336
q2 -109 46 -157.5t154 -48.5t154 49t46 157h336z" />
    <glyph glyph-name="afii10145" unicode="&#x40f;" horiz-adv-x="1715" 
d="M681 0h-491v1489h384v-1203h567v1203h384v-1489h-491v-352h-353v352z" />
    <glyph glyph-name="afii10017" unicode="&#x410;" horiz-adv-x="1590" 
d="M1566 0h-397l-103 301h-552l-103 -301h-387l550 1489h442zM973 574l-183 534l-183 -534h366z" />
    <glyph glyph-name="afii10018" unicode="&#x411;" horiz-adv-x="1552" 
d="M1460 478q0 -109 -41.5 -200.5t-113.5 -149.5q-91 -73 -189.5 -100.5t-238.5 -27.5h-687v1489h1157v-288h-775v-267h311q156 0 255 -22.5t175 -82.5q77 -60 112 -151.5t35 -199.5zM1063 467q0 37 -8 70t-35 61q-27 27 -74 43t-130 16h-244v-379h244q63 0 113.5 16
t77.5 41q27 24 41.5 57.5t14.5 74.5z" />
    <glyph glyph-name="afii10019" unicode="&#x412;" horiz-adv-x="1560" 
d="M1464 456q0 -108 -43.5 -193t-119.5 -141q-88 -66 -193.5 -94t-267.5 -28h-650v1489h578q180 0 263.5 -12t165.5 -53q85 -43 126.5 -115.5t41.5 -165.5q0 -108 -57 -190.5t-161 -128.5v-8q146 -29 231.5 -120t85.5 -240zM972 1068q0 37 -18.5 74t-65.5 55
q-42 16 -104.5 17.5t-175.5 1.5h-36v-315h60q91 0 155 3t101 20q52 23 68 59.5t16 84.5zM1066 462q0 71 -27.5 109.5t-93.5 57.5q-45 13 -124 14t-165 1h-84v-371h28q162 0 232 1t129 26q60 25 82.5 66.5t22.5 95.5z" />
    <glyph glyph-name="afii10020" unicode="&#x413;" horiz-adv-x="1305" 
d="M1264 1201h-690v-1201h-384v1489h1074v-288z" />
    <glyph glyph-name="afii10021" unicode="&#x414;" horiz-adv-x="1723" 
d="M1652 -342h-353v347h-904v-347h-353v631h113q116 243 177.5 548t61.5 652h1111v-1200h147v-631zM1121 289v912h-372q-19 -272 -79.5 -502.5t-146.5 -409.5h598z" />
    <glyph glyph-name="afii10022" unicode="&#x415;" horiz-adv-x="1399" 
d="M1267 0h-1077v1489h1077v-288h-695v-257h645v-288h-645v-368h695v-288z" />
    <glyph glyph-name="afii10024" unicode="&#x416;" horiz-adv-x="2284" 
d="M2266 0h-461l-379 611h-93v-611h-382v611h-98l-379 -611h-456l499 762q-34 20 -64 65t-68 145q-17 44 -35.5 78.5t-43.5 60.5q-25 25 -56 38t-71 13h-88v327q22 0 62.5 1.5t94.5 1.5q156 0 245.5 -58.5t151.5 -191.5q14 -30 35 -83t39 -89q57 -117 105 -158t127 -41v618
h382v-618q85 1 131 39t105 160q18 39 38 87.5l36 84.5q60 130 149.5 190t243.5 60q51 0 94.5 -1.5t62.5 -1.5v-323h-88q-45 0 -72 -10.5t-51 -33.5q-23 -23 -42 -62l-39 -83q-43 -97 -71.5 -143t-65.5 -68z" />
    <glyph glyph-name="afii10025" unicode="&#x417;" horiz-adv-x="1447" 
d="M1338 444q0 -107 -44.5 -196t-132.5 -149q-92 -63 -219 -95.5t-310 -32.5q-161 0 -299.5 26.5t-254.5 70.5v336h36q28 -16 84.5 -45.5t113.5 -50.5q72 -27 133.5 -42.5t142.5 -15.5q79 0 144 13t109 40q49 29 73 67.5t24 99.5q0 58 -17.5 94t-54.5 59q-37 21 -92.5 29
t-130.5 8h-274v266h264q75 0 129 11.5t82 32.5q31 24 42.5 53t11.5 73q0 75 -74.5 109t-203.5 34q-77 0 -143 -15t-126 -35q-65 -23 -104 -42.5l-82 -39.5h-37v313q102 37 249.5 67.5t307.5 30.5q306 0 459.5 -95.5t153.5 -265.5q0 -127 -82.5 -219t-213.5 -123v-15
q54 -9 113.5 -31.5t108.5 -63.5q50 -42 82 -103.5t32 -157.5z" />
    <glyph glyph-name="afii10026" unicode="&#x418;" horiz-adv-x="1732" 
d="M1548 0h-374v991l-618 -991h-366v1489h374v-897l575 897h409v-1489z" />
    <glyph glyph-name="afii10027" unicode="&#x419;" horiz-adv-x="1732" 
d="M1548 0h-374v991l-618 -991h-366v1489h374v-897l575 897h409v-1489zM1407 1980q-1 -186 -141 -292t-395 -106t-395 106t-141 292h336q2 -109 46 -157.5t154 -48.5t154 49t46 157h336z" />
    <glyph glyph-name="afii10028" unicode="&#x41a;" horiz-adv-x="1579" 
d="M1579 0h-471l-440 601h-94v-601h-384v1489h384v-607q47 2 78 9.5t57 26.5q27 20 58 59.5t65 97.5l47.5 85.5l44.5 81.5q77 135 162 192.5t257 57.5q51 0 91 -1.5t59 -1.5v-323h-111q-82 0 -127.5 -42t-100.5 -148q-55 -105 -90 -147.5t-68 -60.5z" />
    <glyph glyph-name="afii10029" unicode="&#x41b;" horiz-adv-x="1731" 
d="M1541 0h-384v1201h-426l-8 -154t-9 -148q-13 -202 -39.5 -339.5t-59.5 -226.5q-34 -90 -72 -147t-76 -93q-49 -47 -122 -75t-155 -28q-50 0 -103.5 4t-68.5 6v333h14q9 -1 20.5 -2t26.5 -1q56 0 83 7t48 25q76 67 104.5 212.5t42.5 407.5q6 104 9.5 226.5t6.5 280.5h1168
v-1489z" />
    <glyph glyph-name="afii10030" unicode="&#x41c;" horiz-adv-x="1941" 
d="M1751 0h-382v997l-276 -647h-265l-276 647v-997h-362v1489h446l335 -747l334 747h446v-1489z" />
    <glyph glyph-name="afii10031" unicode="&#x41d;" horiz-adv-x="1715" 
d="M1525 0h-384v656h-567v-656h-384v1489h384v-545h567v545h384v-1489z" />
    <glyph glyph-name="afii10032" unicode="&#x41e;" horiz-adv-x="1741" 
d="M1638 744q0 -356 -204 -565.5t-564 -209.5q-359 0 -563 209.5t-204 565.5q0 359 204 567.5t563 208.5q358 0 563 -208.5t205 -567.5zM1129 367q56 68 83 160.5t27 217.5q0 134 -31 228t-81 152q-51 60 -117.5 87t-138.5 27q-73 0 -137.5 -26t-118.5 -86
q-50 -56 -81.5 -154.5t-31.5 -228.5q0 -133 30.5 -226.5t80.5 -152.5t117 -87t141 -28t141 28.5t117 88.5z" />
    <glyph glyph-name="afii10033" unicode="&#x41f;" horiz-adv-x="1715" 
d="M1525 0h-384v1201h-567v-1201h-384v1489h1335v-1489z" />
    <glyph glyph-name="afii10034" unicode="&#x420;" horiz-adv-x="1501" 
d="M1419 1019q0 -100 -35 -195.5t-100 -160.5q-89 -88 -198.5 -133t-272.5 -45h-239v-485h-384v1489h632q142 0 239.5 -24.5t172.5 -73.5q90 -59 137.5 -151t47.5 -221zM1022 1010q0 63 -34 108.5t-79 63.5q-60 24 -117 26.5t-152 2.5h-66v-446h110q98 0 161.5 12t106.5 48
q37 32 53.5 76.5t16.5 108.5z" />
    <glyph glyph-name="afii10035" unicode="&#x421;" horiz-adv-x="1482" 
d="M863 -29q-166 0 -306.5 49t-241.5 146t-156.5 242t-55.5 335q0 177 53 321t154 247q97 99 240.5 153t313.5 54q94 0 169.5 -10.5t139.5 -27.5q67 -19 121.5 -42.5t95.5 -43.5v-361h-44q-28 24 -70.5 57t-96.5 65q-55 32 -119 54t-137 22q-81 0 -154 -25.5t-135 -84.5
q-59 -57 -95.5 -151t-36.5 -228q0 -140 39.5 -234t99.5 -148q61 -55 136 -78.5t148 -23.5q70 0 138.5 21t126.5 57q49 29 91 62t69 57h40v-356l-107 -47t-107 -38q-73 -21 -137 -32t-176 -11z" />
    <glyph glyph-name="afii10036" unicode="&#x422;" horiz-adv-x="1396" 
d="M1355 1201h-465v-1201h-384v1201h-465v288h1314v-288z" />
    <glyph glyph-name="afii10037" unicode="&#x423;" horiz-adv-x="1509" 
d="M1501 1489l-542 -1191q-47 -103 -108 -166t-126 -93q-65 -31 -128.5 -40t-126.5 -9q-70 0 -166 3.5t-127 6.5v325h23q21 -6 74 -12.5t105 -6.5q99 0 160.5 19t75.5 50l-605 1114h417l370 -706l305 706h399z" />
    <glyph glyph-name="afii10038" unicode="&#x424;" horiz-adv-x="1950" 
d="M1674 1187q88 -74 135.5 -182.5t47.5 -248.5q0 -138 -49 -247t-141 -186q-94 -77 -216.5 -120t-284.5 -54v-163h-382v163q-157 11 -284 54.5t-218 120.5t-140 185t-49 247q0 140 47 245t136 181q87 73 218 116.5t290 55.5v152h382v-152q165 -9 291.5 -50.5t216.5 -116.5z
M1460 762q0 144 -76 234t-218 109v-708q165 29 229.5 117.5t64.5 247.5zM784 397v708q-146 -22 -220 -107.5t-74 -235.5q0 -157 66.5 -246.5t227.5 -118.5z" />
    <glyph glyph-name="afii10039" unicode="&#x425;" horiz-adv-x="1564" 
d="M1540 0h-444l-321 490l-327 -490h-424l528 750l-517 739h443l310 -464l319 464h425l-520 -724z" />
    <glyph glyph-name="afii10040" unicode="&#x426;" horiz-adv-x="1740" 
d="M1316 0h-1126v1489h384v-1204h564v1204h384v-1204h147v-627h-353v342z" />
    <glyph glyph-name="afii10041" unicode="&#x427;" horiz-adv-x="1612" 
d="M1422 0h-384v551q-114 -24 -196.5 -36.5t-217.5 -12.5q-104 0 -192.5 25t-155.5 79q-68 54 -106.5 137t-38.5 196v550h386v-353q0 -87 8 -146.5t42 -105.5q32 -45 92.5 -68t170.5 -23q40 0 104 5t104 12v679h384v-1489z" />
    <glyph glyph-name="afii10042" unicode="&#x428;" horiz-adv-x="2383" 
d="M2193 0h-2003v1489h383v-1206h427v1206h383v-1206h427v1206h383v-1489z" />
    <glyph glyph-name="afii10043" unicode="&#x429;" horiz-adv-x="2411" 
d="M1988 0h-1798v1489h383v-1206h427v1206h383v-1206h427v1206h383v-1204h148v-627h-353v342z" />
    <glyph glyph-name="afii10044" unicode="&#x42a;" horiz-adv-x="1858" 
d="M1369 467q0 37 -8 70t-35 61q-27 27 -74 43t-130 16h-242v-379h242q63 0 113.5 16t77.5 41q27 24 41.5 57.5t14.5 74.5zM1766 478q0 -109 -41.5 -200.5t-113.5 -149.5q-91 -73 -189.5 -100.5t-238.5 -27.5h-687v1201h-455v288h839v-555h309q161 0 259 -23.5t171 -81.5
q77 -60 112 -151.5t35 -199.5z" />
    <glyph glyph-name="afii10045" unicode="&#x42b;" horiz-adv-x="2176" 
d="M1063 467q0 37 -8 70t-35 61q-27 27 -74 43t-130 16h-242v-379h242q63 0 113.5 16t77.5 41q27 24 41.5 57.5t14.5 74.5zM1460 478q0 -109 -41.5 -200.5t-113.5 -149.5q-91 -73 -189.5 -100.5t-238.5 -27.5h-687v1489h384v-555h309q155 0 254.5 -22.5t175.5 -82.5
q77 -60 112 -151.5t35 -199.5zM1986 0h-384v1489h384v-1489z" />
    <glyph glyph-name="afii10046" unicode="&#x42c;" horiz-adv-x="1552" 
d="M1063 467q0 37 -8 70t-35 61q-27 27 -74 43t-130 16h-242v-379h242q63 0 113.5 16t77.5 41q27 24 41.5 57.5t14.5 74.5zM1460 478q0 -109 -41.5 -200.5t-113.5 -149.5q-91 -73 -189.5 -100.5t-238.5 -27.5h-687v1489h384v-555h309q155 0 254.5 -22.5t175.5 -82.5
q77 -60 112 -151.5t35 -199.5z" />
    <glyph glyph-name="afii10047" unicode="&#x42d;" horiz-adv-x="1519" 
d="M1209 1317q100 -97 153.5 -235t53.5 -316q0 -191 -59 -343.5t-162 -249.5t-247.5 -149.5t-322.5 -52.5q-95 0 -176.5 12.5t-146.5 30.5q-69 19 -125 39.5t-85 32.5v337h37q30 -25 73 -55.5t94 -55.5q61 -29 130 -48.5t164 -19.5q67 0 143 18.5t136 62.5q63 45 108.5 120
t57.5 191h-663v284h654q-16 90 -57 151t-98 100t-124.5 56.5t-134.5 17.5q-83 0 -153.5 -19.5t-132.5 -49.5q-56 -28 -99.5 -60l-72.5 -54h-42v340q55 24 103 41.5t124 37.5q61 16 144 26.5t170 10.5q172 0 313 -51t243 -150z" />
    <glyph glyph-name="afii10048" unicode="&#x42e;" horiz-adv-x="2448" 
d="M1840 367q54 68 80 160.5t26 217.5q0 130 -29.5 225.5t-78.5 154.5t-113 86.5t-135 27.5t-133.5 -26t-114.5 -86q-49 -56 -79.5 -154.5t-30.5 -228.5q0 -133 29.5 -227t78.5 -152q49 -59 113.5 -87t136.5 -28q73 0 138 29t112 88zM846 659h-272v-659h-384v1489h384v-544
h287q51 270 242 422.5t490 152.5q351 0 551.5 -208t200.5 -568q0 -172 -49 -315.5t-144 -244.5q-97 -103 -235 -159t-324 -56q-327 0 -524.5 183.5t-222.5 506.5z" />
    <glyph glyph-name="afii10049" unicode="&#x42f;" horiz-adv-x="1628" 
d="M1438 0h-382v546h-209l-375 -546h-455l445 617q-135 58 -211.5 164t-76.5 278q0 114 50.5 199t128.5 139q68 47 165.5 69.5t223.5 22.5h696v-1489zM1056 814v401h-190q-87 0 -134 -5.5t-91 -38.5q-34 -25 -52 -65.5t-18 -89.5q0 -51 19 -91.5t53 -66.5q38 -30 89.5 -37
t135.5 -7h188z" />
    <glyph glyph-name="afii10065" unicode="&#x430;" horiz-adv-x="1368" 
d="M850 293v234q-73 -6 -158 -16.5t-129 -24.5q-54 -17 -82.5 -49.5t-28.5 -85.5q0 -35 6 -57t30 -42q23 -20 55 -29.5t100 -9.5q54 0 109.5 22t97.5 58zM850 119l-72 -53t-81 -49q-53 -24 -110 -35.5t-125 -11.5q-160 0 -268 99t-108 253q0 123 55 201t156 123
q100 45 248 64t307 28v6q0 93 -76 128.5t-224 35.5q-89 0 -190 -31.5t-145 -48.5h-33v271q57 15 185.5 35.5t257.5 20.5q307 0 443.5 -94.5t136.5 -296.5v-764h-357v119z" />
    <glyph glyph-name="afii10066" unicode="&#x431;" horiz-adv-x="1427" 
d="M1191 945q68 -64 108 -161.5t40 -236.5q0 -265 -165.5 -423.5t-447.5 -158.5q-310 0 -460.5 189t-150.5 566q0 63 8.5 145.5t33.5 181.5q25 98 61.5 177t102.5 142q83 81 210 121t287 55q99 9 237 15t203 8v-267l-121 -5.5t-129 -7.5l-118 -9t-127 -15q-62 -11 -116 -36
t-88 -66q-25 -30 -43 -82.5t-25 -124.5q79 54 167.5 85.5t192.5 31.5q98 0 185 -30t155 -94zM887 279q36 39 57 95.5t21 160.5q0 121 -68.5 194.5t-179.5 73.5q-56 0 -109.5 -10.5t-120.5 -45.5q0 -10 -0.5 -28.5t-0.5 -33.5q0 -137 11.5 -217.5t43.5 -141.5
q28 -53 77 -81.5t112 -28.5q38 0 81.5 14.5t75.5 48.5z" />
    <glyph glyph-name="afii10067" unicode="&#x432;" horiz-adv-x="1387" 
d="M1296 339q0 -81 -32.5 -144t-86.5 -105q-68 -53 -143.5 -71.5t-179.5 -18.5h-684v1123h655q123 0 181 -8t114 -39q59 -32 88.5 -85t29.5 -126q0 -83 -47.5 -145.5t-114.5 -95.5v-11q93 -23 156.5 -92.5t63.5 -181.5zM875 785q0 62 -37.5 88t-120.5 26h-190v-224h196
q73 0 112.5 29.5t39.5 80.5zM925 350q0 73 -41.5 102.5t-122.5 29.5h-234v-257h240q74 0 116 33.5t42 91.5z" />
    <glyph glyph-name="afii10068" unicode="&#x433;" horiz-adv-x="1088" 
d="M1078 873h-548v-873h-360v1123h908v-250z" />
    <glyph glyph-name="afii10069" unicode="&#x434;" horiz-adv-x="1416" 
d="M1341 -278h-321v282h-662v-282h-321v529h93q76 158 121.5 386.5t45.5 485.5h928v-872h116v-529zM867 251v621h-247q-17 -185 -57.5 -344t-97.5 -277h402z" />
    <glyph glyph-name="afii10070" unicode="&#x435;" horiz-adv-x="1360" 
d="M1276 495h-824q8 -132 100.5 -202t272.5 -70q114 0 221 41t169 88h40v-289q-122 -49 -230 -71t-239 -22q-338 0 -518 152t-180 433q0 278 170.5 440.5t467.5 162.5q274 0 412 -138.5t138 -398.5v-126zM918 706q-3 113 -56 170t-165 57q-104 0 -171 -54t-75 -173h467z" />
    <glyph glyph-name="afii10072" unicode="&#x436;" horiz-adv-x="2046" 
d="M2001 0h-414l-283 445h-102v-445h-358v445h-102l-283 -445h-414l387 578q-28 21 -45 46t-41 80q-30 67 -66 93t-91 26h-98v300q17 0 56.5 1t81.5 1q139 0 209.5 -50t123.5 -143l32.5 -62t36.5 -68q53 -92 88 -111t125 -19v451h358v-451q99 1 131.5 22t81.5 108
q15 26 36 67l33 63q45 85 119 139t214 54q38 0 80.5 -1t57.5 -1v-300h-98q-56 0 -92.5 -27.5t-64.5 -91.5q-22 -49 -40 -77.5t-46 -48.5z" />
    <glyph glyph-name="afii10073" unicode="&#x437;" horiz-adv-x="1204" 
d="M1112 318q0 -96 -47 -164.5t-127 -109.5q-81 -41 -180 -58t-211 -17q-147 0 -260.5 25t-221.5 62v273h40q79 -44 177 -76.5t200 -32.5q38 0 90.5 5t83.5 17q42 16 63.5 37t21.5 67q0 43 -19.5 67t-53.5 35q-29 10 -73.5 13t-112.5 3h-172v228h138q40 0 95.5 1t87.5 9
q47 11 67.5 35t20.5 62q0 31 -21 52t-55 33q-29 10 -68 15t-82 5q-71 0 -165.5 -25t-167.5 -62h-39v269q62 19 184.5 44t250.5 25q112 0 204 -17t163 -51q75 -37 121 -96t46 -147q0 -90 -61.5 -161t-147.5 -95v-9q99 -26 165 -90.5t66 -170.5z" />
    <glyph glyph-name="afii10074" unicode="&#x438;" horiz-adv-x="1475" 
d="M1305 0h-349v687l-488 -687h-298v1123h349v-615l452 615h334v-1123z" />
    <glyph glyph-name="afii10075" unicode="&#x439;" horiz-adv-x="1475" 
d="M1305 0h-349v687l-488 -687h-298v1123h349v-615l452 615h334v-1123zM1181 1621q0 -163 -111.5 -266t-330.5 -103q-218 0 -330 103.5t-112 265.5h278q2 -99 38 -147.5t126 -48.5q91 0 126.5 47.5t37.5 148.5h278z" />
    <glyph glyph-name="afii10076" unicode="&#x43a;" horiz-adv-x="1374" 
d="M1362 0h-416l-301 445h-115v-445h-360v1123h360v-451q100 1 138 21.5t88 108.5q15 26 36 67l33 63q55 98 128.5 145.5t204.5 47.5q38 0 80.5 -1t57.5 -1v-300h-98q-60 0 -95.5 -30t-61.5 -89q-22 -49 -40 -77.5t-46 -48.5z" />
    <glyph glyph-name="afii10077" unicode="&#x43b;" horiz-adv-x="1453" 
d="M1283 0h-360v872h-297q-3 -75 -4.5 -116.5l-3.5 -96.5q-7 -161 -27 -262t-51 -165q-30 -65 -64.5 -103t-69.5 -66q-40 -32 -104.5 -51t-124.5 -19q-47 0 -95 3.5t-57 3.5v288h11q4 0 14 -1t20 -1q26 0 53.5 5t45.5 22q67 64 89.5 160.5t32.5 285.5q4 70 8 160t7 204h977
v-1123z" />
    <glyph glyph-name="afii10078" unicode="&#x43c;" horiz-adv-x="1700" 
d="M1530 0h-351v697l-255 -460h-158l-255 460v-697h-341v1123h391l289 -510l289 510h391v-1123z" />
    <glyph glyph-name="afii10079" unicode="&#x43d;" horiz-adv-x="1474" 
d="M1304 0h-360v479h-414v-479h-360v1123h360v-387h414v387h360v-1123z" />
    <glyph glyph-name="afii10080" unicode="&#x43e;" horiz-adv-x="1406" 
d="M1318 561q0 -277 -161.5 -436.5t-453.5 -159.5t-453.5 159.5t-161.5 436.5q0 279 162.5 438t452.5 159q294 0 454.5 -160t160.5 -437zM875 288q35 43 52.5 103.5t17.5 167.5q0 99 -18 166t-50 107q-32 41 -77 58t-97 17t-92.5 -14t-77.5 -56q-33 -39 -52.5 -107
t-19.5 -171q0 -92 17 -159.5t50 -108.5q32 -39 76.5 -57t101.5 -18q49 0 93.5 16.5t75.5 55.5z" />
    <glyph glyph-name="afii10081" unicode="&#x43f;" horiz-adv-x="1474" 
d="M1304 0h-360v879h-414v-879h-360v1123h1134v-1123z" />
    <glyph glyph-name="afii10082" unicode="&#x440;" horiz-adv-x="1432" 
d="M1342 577q0 -139 -42.5 -253t-111.5 -188q-72 -78 -163 -118t-195 -40q-96 0 -163 20.5t-137 57.5v-468h-360v1535h360v-117q83 66 169.5 107t199.5 41q210 0 326.5 -154t116.5 -423zM971 570q0 164 -56 238t-177 74q-51 0 -105 -15.5t-103 -44.5v-565q36 -14 77 -18
t81 -4q143 0 213 83.5t70 251.5z" />
    <glyph glyph-name="afii10083" unicode="&#x441;" horiz-adv-x="1225" 
d="M755 -30q-147 0 -268.5 35t-211.5 108q-89 73 -138 184t-49 260q0 157 52.5 271t146.5 189q91 71 210 104t247 33q115 0 212 -25t181 -65v-307h-51l-50.5 42t-72.5 47q-41 22 -90 36.5t-114 14.5q-144 0 -221.5 -91.5t-77.5 -248.5q0 -162 79.5 -246t225.5 -84
q68 0 122.5 15.5t90.5 36.5q34 20 60 42t48 43h51v-307q-85 -40 -177.5 -63.5t-204.5 -23.5z" />
    <glyph glyph-name="afii10084" unicode="&#x442;" horiz-adv-x="1096" 
d="M1086 879h-358v-879h-360v879h-358v244h1076v-244z" />
    <glyph glyph-name="afii10085" unicode="&#x443;" horiz-adv-x="1333" 
d="M677 397l256 726h370l-624 -1535h-390l178 420l-437 1115h378z" />
    <glyph glyph-name="afii10086" unicode="&#x444;" horiz-adv-x="1978" 
d="M1888 587q0 -145 -37 -258.5t-106 -190.5q-70 -78 -157.5 -115.5t-198.5 -37.5q-82 0 -136 20t-86 36v-453h-356v454q-41 -24 -99 -40.5t-142 -16.5q-226 0 -353 151t-127 418q0 143 38.5 251.5t106.5 185.5q66 74 157 113t192 39q82 0 136.5 -19t90.5 -40v472h356v-471
q42 21 108.5 39.5t143.5 18.5q225 0 347 -144.5t122 -411.5zM1523 568q0 168 -64.5 244.5t-201.5 76.5q-25 0 -45.5 -2t-44.5 -7v-634q21 -4 42 -6t46 -2q137 0 202.5 81t65.5 249zM811 246v635q-15 3 -38.5 5.5t-51.5 2.5q-137 0 -201.5 -81t-64.5 -249t65.5 -244.5
t202.5 -76.5q20 0 45.5 2t42.5 6z" />
    <glyph glyph-name="afii10087" unicode="&#x445;" horiz-adv-x="1370" 
d="M1344 0h-420l-240 336l-246 -336h-412l443 561l-436 562h420l236 -330l237 330h413l-437 -553z" />
    <glyph glyph-name="afii10088" unicode="&#x446;" horiz-adv-x="1493" 
d="M1097 0h-927v1123h360v-876h412v876h360v-876h116v-525h-321v278z" />
    <glyph glyph-name="afii10089" unicode="&#x447;" horiz-adv-x="1401" 
d="M1231 0h-360v386q-90 -19 -176 -31.5t-187 -12.5q-183 0 -287.5 91.5t-104.5 255.5v434h362v-258q0 -74 5 -116.5t35 -81.5q28 -35 76 -52t144 -17q25 0 66 2.5t67 6.5v516h360v-1123z" />
    <glyph glyph-name="afii10090" unicode="&#x448;" horiz-adv-x="2053" 
d="M1883 0h-1713v1123h359v-876h318v876h359v-876h318v876h359v-1123z" />
    <glyph glyph-name="afii10091" unicode="&#x449;" horiz-adv-x="2074" 
d="M1678 0h-1508v1123h359v-876h318v876h359v-876h318v876h359v-876h116v-525h-321v278z" />
    <glyph glyph-name="afii10092" unicode="&#x44a;" horiz-adv-x="1522" 
d="M1084 376q0 72 -43 108t-124 36h-196v-293h196q54 0 88 15.5t50 38.5q17 22 23 46t6 49zM1454 379q0 -86 -34 -159t-89 -119q-68 -55 -140.5 -78t-195.5 -23h-633v879h-352v244h711v-375h275q121 0 195.5 -17.5t141.5 -67.5q60 -45 90.5 -120.5t30.5 -163.5z" />
    <glyph glyph-name="afii10093" unicode="&#x44b;" horiz-adv-x="1919" 
d="M892 376q0 72 -43 108t-124 36h-196v-293h196q54 0 88 15.5t50 38.5q17 22 23 46t6 49zM1262 379q0 -86 -34 -159t-89 -119q-68 -55 -140.5 -78t-195.5 -23h-633v1123h359v-375h275q121 0 195.5 -17.5t141.5 -67.5q60 -45 90.5 -120.5t30.5 -163.5zM1748 0h-360v1123h360
v-1123z" />
    <glyph glyph-name="afii10094" unicode="&#x44c;" horiz-adv-x="1330" 
d="M892 376q0 72 -43 108t-124 36h-196v-293h196q54 0 88 15.5t50 38.5q17 22 23 46t6 49zM1262 379q0 -86 -34 -159t-89 -119q-68 -55 -140.5 -78t-195.5 -23h-633v1123h359v-375h275q121 0 195.5 -17.5t141.5 -67.5q60 -45 90.5 -120.5t30.5 -163.5z" />
    <glyph glyph-name="afii10095" unicode="&#x44d;" horiz-adv-x="1241" 
d="M960 1022q89 -69 141 -177t52 -267q0 -152 -51 -268t-141 -190q-90 -75 -214 -112.5t-276 -37.5q-110 0 -202.5 22.5t-181.5 59.5v285h49l44.5 -36t72.5 -44q44 -21 98 -35.5t135 -14.5q145 0 227 70.5t94 186.5h-515v229h510q-19 112 -102 167.5t-195 55.5
q-68 0 -120.5 -13.5t-99.5 -34.5q-43 -20 -77.5 -45l-53.5 -39h-49v285q98 41 204 63t202 22q135 0 249 -32.5t200 -99.5z" />
    <glyph glyph-name="afii10096" unicode="&#x44e;" horiz-adv-x="2036" 
d="M749 482h-219v-482h-360v1123h360v-390h233q43 201 191 313t388 112q288 0 447 -160t159 -437t-160 -436.5t-446 -159.5q-258 0 -414.5 133t-178.5 384zM1507 288q33 43 50.5 103.5t17.5 167.5q0 99 -17.5 166.5t-48.5 106.5q-30 40 -73.5 57.5t-96.5 17.5q-50 0 -90 -14
t-76 -56q-33 -39 -51.5 -109t-18.5 -169q0 -100 18 -165t47 -103q30 -38 73.5 -56.5t100.5 -18.5q47 0 91 16.5t74 55.5z" />
    <glyph glyph-name="afii10097" unicode="&#x44f;" horiz-adv-x="1396" 
d="M1226 0h-359v390h-161l-269 -390h-403l322 440q-113 51 -171.5 128.5t-58.5 214.5q0 93 36.5 156t98.5 108q55 38 129.5 57t166.5 19h669v-1123zM867 610v280h-213q-74 0 -115.5 -33.5t-41.5 -97.5q0 -79 41 -114t122 -35h207z" />
    <glyph glyph-name="afii10071" unicode="&#x451;" horiz-adv-x="1360" 
d="M1276 495h-824q8 -132 100.5 -202t272.5 -70q114 0 221 41t169 88h40v-289q-122 -49 -230 -71t-239 -22q-338 0 -518 152t-180 433q0 278 170.5 440.5t467.5 162.5q274 0 412 -138.5t138 -398.5v-126zM918 706q-3 113 -56 170t-165 57q-104 0 -171 -54t-75 -173h467z
M1124 1283h-297v273h297v-273zM587 1283h-297v273h297v-273z" />
    <glyph glyph-name="afii10099" unicode="&#x452;" horiz-adv-x="1459" 
d="M530 796v-796h-360v1237h-129v207h129v112h360v-112h326v-207h-326v-238q95 74 185 114.5t197 40.5q82 0 152.5 -23.5t122.5 -76.5q50 -50 80 -131t30 -193q0 -47 1.5 -105.5t1.5 -133.5q0 -52 -1 -111t-3 -137q-4 -180 -47.5 -302.5t-117.5 -200.5
q-76 -80 -165.5 -114.5t-192.5 -34.5q-57 0 -105.5 0.5t-92.5 3.5v262h39q85 0 145.5 12.5t96.5 57.5q39 48 56.5 139.5t21.5 245.5q1 34 1.5 76.5t0.5 88.5v62.5t-2 89.5q-2 47 -7.5 89.5t-25.5 75.5q-21 32 -58 50.5t-102 18.5q-50 0 -102.5 -16.5t-108.5 -50.5z" />
    <glyph glyph-name="afii10100" unicode="&#x453;" horiz-adv-x="1088" 
d="M1078 873h-548v-873h-360v1123h908v-250zM1013 1676v-20l-352 -373h-246l247 393h351z" />
    <glyph glyph-name="afii10101" unicode="&#x454;" horiz-adv-x="1240" 
d="M1144 52q-73 -33 -172.5 -57.5t-214.5 -24.5q-147 0 -269.5 35.5t-211.5 107.5q-90 73 -139 184t-49 260q0 162 54 274.5t146 185.5q90 71 210 104t249 33q111 0 215 -24.5t182 -60.5v-285h-49q-19 16 -57 41t-75 43q-43 20 -100 34t-121 14q-113 0 -194 -54.5
t-104 -168.5h508v-229h-517q13 -121 92 -189t221 -68q74 0 133 14.5t98 34.5q40 20 70.5 43.5t45.5 37.5h49v-285z" />
    <glyph glyph-name="afii10102" unicode="&#x455;" horiz-adv-x="1215" 
d="M1146 356q0 -174 -156 -280.5t-427 -106.5q-150 0 -272 28t-196 62v296h33q27 -19 62.5 -41.5t100.5 -48.5q56 -23 127 -39.5t152 -16.5q106 0 157 23.5t51 69.5q0 41 -30 59.5t-114 35.5q-40 9 -108.5 19.5t-124.5 25.5q-153 40 -227 124.5t-74 210.5q0 162 153.5 269.5
t419.5 107.5q126 0 241.5 -25.5t180.5 -54.5v-284h-31q-80 55 -182.5 89.5t-207.5 34.5q-87 0 -146.5 -24t-59.5 -68q0 -40 27 -61t127 -42q55 -11 118.5 -21.5t127.5 -26.5q142 -37 210 -116.5t68 -198.5z" />
    <glyph glyph-name="afii10103" unicode="&#x456;" horiz-adv-x="700" 
d="M530 0h-360v1123h360v-1123zM540 1283h-380v273h380v-273z" />
    <glyph glyph-name="afii10104" unicode="&#x457;" horiz-adv-x="700" 
d="M530 0h-360v1123h360v-1123zM718 1283h-277v273h277v-273zM259 1283h-277v273h277v-273z" />
    <glyph glyph-name="afii10105" unicode="&#x458;" horiz-adv-x="825" 
d="M656 -20q0 -190 -117 -296.5t-301 -106.5q-98 0 -178.5 8.5t-117.5 17.5v258h28q30 -10 75 -17t71 -7q104 0 142 62t38 204v776h-213v244h573v-1143zM656 1283h-383v273h383v-273z" />
    <glyph glyph-name="afii10106" unicode="&#x459;" horiz-adv-x="2073" 
d="M1635 376q0 72 -43 108t-124 36h-196v-293h196q54 0 88 15.5t50 38.5q17 22 23 46t6 49zM2005 379q0 -86 -34 -159t-89 -119q-68 -55 -140.5 -78t-195.5 -23h-633v872h-287q-3 -75 -4.5 -116.5l-3.5 -96.5q-7 -161 -27 -262t-51 -165q-30 -65 -64.5 -103t-69.5 -66
q-40 -32 -104.5 -51t-124.5 -19q-47 0 -95 3.5t-57 3.5v288h11q4 0 14 -1t20 -1q26 0 53.5 5t45.5 22q67 64 89.5 160.5t32.5 285.5q4 70 8 160t7 204h966v-375h275q121 0 195.5 -17.5t141.5 -67.5q60 -45 90.5 -120.5t30.5 -163.5z" />
    <glyph glyph-name="afii10107" unicode="&#x45a;" horiz-adv-x="2088" 
d="M1650 376q0 72 -43 108t-124 36h-196v-293h196q54 0 88 15.5t50 38.5q17 22 23 46t6 49zM2020 379q0 -86 -34 -159t-89 -119q-68 -55 -140.5 -78t-195.5 -23h-633v514h-398v-514h-360v1123h360v-379h398v379h359v-375h275q121 0 195.5 -17.5t141.5 -67.5
q60 -45 90.5 -120.5t30.5 -163.5z" />
    <glyph glyph-name="afii10108" unicode="&#x45b;" horiz-adv-x="1459" 
d="M1298 0h-362v557q0 68 -7 135.5t-24 99.5q-20 37 -58.5 54t-107.5 17q-49 0 -99.5 -16t-109.5 -51v-796h-360v1237h-129v207h129v112h360v-112h326v-207h-326v-238q96 75 184.5 115t196.5 40q182 0 284.5 -106t102.5 -317v-731z" />
    <glyph glyph-name="afii10109" unicode="&#x45c;" horiz-adv-x="1374" 
d="M1362 0h-416l-301 445h-115v-445h-360v1123h360v-451q100 1 138 21.5t88 108.5q15 26 36 67l33 63q55 98 128.5 145.5t204.5 47.5q38 0 80.5 -1t57.5 -1v-300h-98q-60 0 -95.5 -30t-61.5 -89q-22 -49 -40 -77.5t-46 -48.5zM1118 1676v-20l-352 -373h-246l247 393h351z
" />
    <glyph glyph-name="afii10110" unicode="&#x45e;" horiz-adv-x="1333" 
d="M677 397l256 726h370l-624 -1535h-390l178 420l-437 1115h378zM1122 1621q0 -163 -111.5 -266t-330.5 -103q-218 0 -330 103.5t-112 265.5h278q2 -99 38 -147.5t126 -48.5q91 0 126.5 47.5t37.5 148.5h278z" />
    <glyph glyph-name="afii10193" unicode="&#x45f;" horiz-adv-x="1474" 
d="M1304 0h-407v-280h-320v280h-407v1123h360v-881h414v881h360v-1123z" />
    <glyph glyph-name="afii10050" unicode="&#x490;" horiz-adv-x="1305" 
d="M574 1201v-1201h-384v1489h733v410h341v-698h-690z" />
    <glyph glyph-name="afii10098" unicode="&#x491;" horiz-adv-x="1088" 
d="M530 873v-873h-360v1123h601v363h307v-613h-548z" />
    <glyph glyph-name="afii00208" unicode="&#x2015;" horiz-adv-x="2048" 
d="M1845 528h-1641v268h1641v-268z" />
    <glyph glyph-name="afii61352" unicode="&#x2116;" horiz-adv-x="2650" 
d="M1396 0h-350l-514 1018v-1018h-342v1489h449l415 -833v833h342v-1489zM2525 1043q0 -221 -127.5 -349t-357.5 -128t-357.5 128t-127.5 349q0 222 128 349.5t357 127.5q232 0 358.5 -128t126.5 -349zM2229 1041q0 141 -46 210t-143 69t-143 -69t-46 -210q0 -142 47 -208
t144 -66q93 0 140 66t47 208zM1688 388h704v-212h-704v212z" />
    <glyph glyph-name="pi" unicode="&#x3c0;" horiz-adv-x="1474" 
d="M1304 0h-360v879h-414v-879h-360v1123h1134v-1123z" />
    <glyph glyph-name="uni2074" unicode="&#x2074;" horiz-adv-x="1224" 
d="M1069 763h-167v-197h-262v197h-474v261l459 486h277v-561h167v-186zM644 949v338l-326 -338h326z" />
    <glyph glyph-name="uni2075" unicode="&#x2075;" horiz-adv-x="1224" 
d="M1008 882q0 -162 -110.5 -252t-326.5 -90q-103 0 -197 16.5t-157 37.5v216h23q62 -26 137 -45t132 -19q101 0 153.5 28t52.5 99q0 57 -53.5 85.5t-186.5 28.5q-62 0 -113.5 -5.5t-90.5 -8.5v525h720v-206h-458v-120q19 2 50.5 2.5t52.5 0.5q180 0 276 -74t96 -219z" />
    <glyph glyph-name="uni2077" unicode="&#x2077;" horiz-adv-x="1224" 
d="M1035 1298l-475 -733h-304l482 718h-521v215h818v-200z" />
    <glyph glyph-name="uni2078" unicode="&#x2078;" horiz-adv-x="1224" 
d="M1046 819q0 -121 -112.5 -201t-322.5 -80q-208 0 -320.5 77t-112.5 201q0 79 44 133.5t141 93.5v6q-82 42 -116 93t-34 121q0 121 114.5 191t292.5 70q194 0 296.5 -68t102.5 -183q0 -70 -38.5 -130.5t-121.5 -96.5v-6q97 -37 142 -86.5t45 -134.5zM745 1248q0 46 -35 76
t-94 30q-52 0 -89.5 -27.5t-37.5 -69.5q0 -30 23 -57t84 -52q24 -10 51.5 -19t43.5 -13q31 29 42.5 64.5t11.5 67.5zM766 816q0 47 -31.5 71t-104.5 51q-21 8 -54 18.5t-44 14.5q-32 -22 -53.5 -57t-21.5 -75q0 -58 47 -94t112 -36q56 0 103 24.5t47 82.5z" />
    <glyph glyph-name="glyph575" horiz-adv-x="1224" 
d="M780 559h-277v607h-234v182q112 0 186.5 35.5t82.5 109.5h242v-934z" />
    <glyph glyph-name="glyph576" 
 />
    <glyph glyph-name="glyph577" 
 />
    <glyph glyph-name="glyph578" 
 />
    <glyph glyph-name="glyph579" 
 />
    <glyph glyph-name="glyph580" 
 />
    <glyph glyph-name="glyph581" 
 />
    <glyph glyph-name="Ohorn" unicode="&#x1a0;" horiz-adv-x="1871" 
d="M1638 744q0 -356 -204 -565.5t-564 -209.5q-359 0 -563 209.5t-204 565.5q0 359 204 567.5t563 208.5q223 0 385 -80.5t259 -227.5h21q81 0 115.5 36.5t34.5 102.5q0 40 -12 83t-23 67v19h232q10 -34 17 -95.5t7 -97.5q0 -159 -88.5 -227t-217.5 -77q19 -63 28.5 -133.5
t9.5 -145.5zM1129 367q56 68 83 160.5t27 217.5q0 134 -31 228t-81 152q-51 60 -117.5 87t-138.5 27q-73 0 -137.5 -26t-118.5 -86q-50 -56 -81.5 -154.5t-31.5 -228.5q0 -133 30.5 -226.5t80.5 -152.5t117 -87t141 -28t141 28.5t117 88.5z" />
    <glyph glyph-name="ohorn" unicode="&#x1a1;" horiz-adv-x="1406" 
d="M1318 561q0 -277 -161.5 -436.5t-453.5 -159.5t-453.5 159.5t-161.5 436.5q0 279 162.5 438t452.5 159q68 0 130 -9t115 -26h104q81 0 115.5 39t34.5 105q0 40 -12 83t-23 67v19h232q10 -34 17 -95.5t7 -97.5q0 -147 -71.5 -213t-150.5 -82q59 -75 88 -173.5t29 -213.5z
M945 559q0 99 -18 166t-50 107q-32 41 -77 58t-97 17t-92.5 -14t-77.5 -56q-33 -39 -52.5 -107t-19.5 -171q0 -92 17 -159.5t50 -108.5q32 -39 76.5 -57t101.5 -18q49 0 93.5 16.5t75.5 55.5q35 43 52.5 103.5t17.5 167.5z" />
    <glyph glyph-name="Uhorn" unicode="&#x1af;" horiz-adv-x="1733" 
d="M1494 539q0 -276 -168 -423t-495 -147t-494.5 147t-167.5 422v951h386v-929q0 -155 65 -231t211 -76q144 0 210.5 73t66.5 234v929h321q81 0 115.5 39t34.5 105q0 40 -12 83t-23 67v19h232q10 -34 17 -95.5t7 -97.5q0 -159 -88.5 -229.5t-217.5 -79.5v-761z" />
    <glyph glyph-name="uhorn" unicode="&#x1b0;" horiz-adv-x="1519" 
d="M1289 0h-360v124q-100 -76 -183 -115.5t-198 -39.5q-186 0 -286.5 107t-100.5 316v731h362v-557q0 -85 5.5 -141.5t25.5 -93.5q19 -37 57.5 -54t107.5 -17q46 0 102 17t108 50v796h295q81 0 115.5 39t34.5 105q0 40 -12 83t-23 67v19h232q10 -34 17 -95.5t7 -97.5
q0 -159 -88.5 -229.5t-217.5 -79.5v-934z" />
    <glyph glyph-name="hookabovecomb" unicode="&#x309;" 
d="M-407 1522q0 -73 -37.5 -109.5t-94.5 -56.5v-59h-178v112q47 12 71 36t24 63q0 24 -19 38.5t-52 14.5q-31 0 -49.5 -4.5t-42.5 -13.5h-3v115q19 6 58 12t82 6q120 0 180.5 -46t60.5 -108z" />
    <glyph glyph-name="dotbelowcomb" unicode="&#x323;" 
d="M-473 -423h-370v273h370v-273z" />
    <glyph glyph-name="gravecomb" unicode="&#x300;" 
d="M-428 1283h-246l-352 373v20h351z" />
    <glyph glyph-name="acutecomb" unicode="&#x301;" 
d="M-317 1676v-20l-352 -373h-246l247 393h351z" />
    <glyph glyph-name="glyph590" horiz-adv-x="1456" 
d="M1175 1283h-264l-185 219l-184 -219h-260l321 393h251zM1537 1676l-208 -266h-179l124 266h263z" />
    <glyph glyph-name="glyph591" horiz-adv-x="1456" 
d="M1175 1283h-264l-185 219l-184 -219h-260l321 393h251zM307 1410h-179l-208 266h263z" />
    <glyph glyph-name="glyph592" horiz-adv-x="1456" 
d="M1175 1283h-264l-185 219l-184 -219h-260l321 393h251zM1409 1720q0 -73 -37.5 -109.5t-94.5 -56.5v-59h-178v112q47 12 71 36t24 63q0 24 -19 38.5t-52 14.5q-31 0 -49.5 -4.5t-42.5 -13.5h-3v115q19 6 58 12t82 6q120 0 180.5 -46t60.5 -108z" />
    <glyph glyph-name="glyph593" horiz-adv-x="1456" 
d="M1175 1283h-264l-185 219l-184 -219h-260l321 393h251zM1172 2049q-10 -169 -82.5 -250.5t-202.5 -81.5q-47 0 -89.5 18.5t-77.5 39.5q-32 19 -69 38.5t-62 19.5q-49 0 -65.5 -32t-19.5 -90h-219q6 151 83.5 241t200.5 90q48 0 91 -18t79 -38l69 -37.5t59 -17.5
q48 0 66 32t20 86h219z" />
    <glyph glyph-name="glyph594" horiz-adv-x="1456" 
d="M1115 1636q0 -178 -101 -279.5t-285 -101.5t-285.5 96.5t-101.5 284.5h223q0 -103 40.5 -153.5t123.5 -50.5q78 0 120.5 50.5t42.5 153.5h223zM1010 1932l-208 -266h-179l124 266h263z" />
    <glyph glyph-name="glyph595" horiz-adv-x="1456" 
d="M1115 1636q0 -178 -101 -279.5t-285 -101.5t-285.5 96.5t-101.5 284.5h223q0 -103 40.5 -153.5t123.5 -50.5q78 0 120.5 50.5t42.5 153.5h223zM834 1666h-179l-208 266h263z" />
    <glyph glyph-name="glyph596" horiz-adv-x="1456" 
d="M1115 1636q0 -178 -101 -279.5t-285 -101.5t-285.5 96.5t-101.5 284.5h223q0 -103 40.5 -153.5t123.5 -50.5q78 0 120.5 50.5t42.5 153.5h223zM949 1831q0 -73 -37.5 -109.5t-94.5 -56.5v-59h-178v112q47 12 71 36t24 63q0 24 -19 38.5t-52 14.5q-31 0 -49.5 -4.5
t-42.5 -13.5h-3v115q19 6 58 12t82 6q120 0 180.5 -46t60.5 -108z" />
    <glyph glyph-name="glyph597" horiz-adv-x="1456" 
d="M1115 1636q0 -178 -101 -279.5t-285 -101.5t-285.5 96.5t-101.5 284.5h223q0 -103 40.5 -153.5t123.5 -50.5q78 0 120.5 50.5t42.5 153.5h223zM1172 2049q-10 -169 -82.5 -250.5t-202.5 -81.5q-47 0 -89.5 18.5t-77.5 39.5q-32 19 -69 38.5t-62 19.5q-49 0 -65.5 -32
t-19.5 -90h-219q6 151 83.5 241t200.5 90q48 0 91 -18t79 -38l69 -37.5t59 -17.5q48 0 66 32t20 86h219z" />
    <glyph glyph-name="glyph598" horiz-adv-x="1456" 
d="M939 1522q0 -73 -37.5 -109.5t-94.5 -56.5v-59h-178v112q47 12 71 36t24 63q0 24 -19 38.5t-52 14.5q-31 0 -49.5 -4.5t-42.5 -13.5h-3v115q19 6 58 12t82 6q120 0 180.5 -46t60.5 -108z" />
    <glyph glyph-name="glyph599" horiz-adv-x="1456" 
d="M1110 1596h-249l-135 79l-134 -79h-245l248 173h267zM1108 2049q-10 -81 -70.5 -147t-182.5 -66q-37 0 -73.5 10t-73.5 26q-41 18 -60.5 24.5t-39.5 6.5q-29 0 -48 -16t-27 -51h-184q10 81 70.5 147t182.5 66q37 0 73.5 -10t73.5 -26q41 -18 60.5 -24.5t39.5 -6.5
q29 0 48 16t27 51h184z" />
    <glyph glyph-name="glyph600" horiz-adv-x="1456" 
d="M1108 1858q0 -88 -95.5 -175t-285.5 -87t-284 87.5t-94 174.5h212q0 -35 37.5 -75.5t130.5 -40.5q90 0 128.5 40.5t38.5 75.5h212zM995 2049l-188 -206h-169l94 206h263z" />
    <glyph glyph-name="glyph601" horiz-adv-x="1456" 
d="M1108 1858q0 -88 -95.5 -175t-285.5 -87t-284 87.5t-94 174.5h212q0 -35 37.5 -75.5t130.5 -40.5q90 0 128.5 40.5t38.5 75.5h212zM819 1843h-169l-188 206h263z" />
    <glyph glyph-name="glyph602" horiz-adv-x="1456" 
d="M1108 1858q0 -88 -95.5 -175t-285.5 -87t-284 87.5t-94 174.5h212q0 -35 37.5 -75.5t130.5 -40.5q90 0 128.5 40.5t38.5 75.5h212zM868 1945q0 -43 -23 -71t-69 -43v-47h-107v84q24 5 44 17.5t20 35.5q0 18 -13 26.5t-34 8.5q-25 0 -38 -4t-27 -9h-2v93q14 5 39 9t52 4
q72 0 115 -28.5t43 -75.5z" />
    <glyph glyph-name="glyph603" horiz-adv-x="1456" 
d="M1108 1798q0 -88 -95.5 -145t-285.5 -57t-284 57.5t-94 144.5h212q0 -26 37.5 -46t130.5 -20q90 0 128.5 20t38.5 46h212zM1108 2049q-10 -81 -70.5 -142t-182.5 -61q-37 0 -73.5 10t-73.5 26q-41 18 -60.5 24.5t-39.5 6.5q-29 0 -48 -16t-27 -51h-184q10 81 70.5 142
t182.5 61q37 0 73.5 -10t73.5 -26q41 -18 60.5 -24.5t39.5 -6.5q29 0 48 16t27 51h184z" />
    <glyph glyph-name="glyph604" horiz-adv-x="1456" 
d="M1160 1638h-259l-175 171l-174 -171h-255l311 331h241zM1505 1895q0 -73 -37.5 -109.5t-94.5 -56.5v-59h-178v112q47 12 71 36t24 63q0 24 -19 38.5t-52 14.5q-31 0 -49.5 -4.5t-42.5 -13.5h-3v115q19 6 58 12t82 6q120 0 180.5 -46t60.5 -108z" />
    <glyph glyph-name="uni1EA0" unicode="&#x1ea0;" horiz-adv-x="1590" 
d="M1566 0h-397l-103 301h-552l-103 -301h-387l550 1489h442zM973 574l-183 534l-183 -534h366zM994 -423h-370v273h370v-273z" />
    <glyph glyph-name="uni1EA1" unicode="&#x1ea1;" horiz-adv-x="1368" 
d="M850 293v234q-73 -6 -158 -16.5t-129 -24.5q-54 -17 -82.5 -49.5t-28.5 -85.5q0 -35 6 -57t30 -42q23 -20 55 -29.5t100 -9.5q54 0 109.5 22t97.5 58zM850 119l-72 -53t-81 -49q-53 -24 -110 -35.5t-125 -11.5q-160 0 -268 99t-108 253q0 123 55 201t156 123
q100 45 248 64t307 28v6q0 93 -76 128.5t-224 35.5q-89 0 -190 -31.5t-145 -48.5h-33v271q57 15 185.5 35.5t257.5 20.5q307 0 443.5 -94.5t136.5 -296.5v-764h-357v119zM857 -423h-370v273h370v-273z" />
    <glyph glyph-name="uni1EA2" unicode="&#x1ea2;" horiz-adv-x="1590" 
d="M1566 0h-397l-103 301h-552l-103 -301h-387l550 1489h442zM973 574l-183 534l-183 -534h366zM1006 1895q0 -73 -37.5 -109.5t-94.5 -56.5v-59h-178v112q47 12 71 36t24 63q0 24 -19 38.5t-52 14.5q-31 0 -49.5 -4.5t-42.5 -13.5h-3v115q19 6 58 12t82 6q120 0 180.5 -46
t60.5 -108z" />
    <glyph glyph-name="uni1EA3" unicode="&#x1ea3;" horiz-adv-x="1368" 
d="M850 293v234q-73 -6 -158 -16.5t-129 -24.5q-54 -17 -82.5 -49.5t-28.5 -85.5q0 -35 6 -57t30 -42q23 -20 55 -29.5t100 -9.5q54 0 109.5 22t97.5 58zM850 119l-72 -53t-81 -49q-53 -24 -110 -35.5t-125 -11.5q-160 0 -268 99t-108 253q0 123 55 201t156 123
q100 45 248 64t307 28v6q0 93 -76 128.5t-224 35.5q-89 0 -190 -31.5t-145 -48.5h-33v271q57 15 185.5 35.5t257.5 20.5q307 0 443.5 -94.5t136.5 -296.5v-764h-357v119zM893 1522q0 -73 -37.5 -109.5t-94.5 -56.5v-59h-178v112q47 12 71 36t24 63q0 24 -19 38.5t-52 14.5
q-31 0 -49.5 -4.5t-42.5 -13.5h-3v115q19 6 58 12t82 6q120 0 180.5 -46t60.5 -108z" />
    <glyph glyph-name="uni1EA4" unicode="&#x1ea4;" horiz-adv-x="1590" 
d="M1566 0h-397l-103 301h-552l-103 -301h-387l550 1489h442zM973 574l-183 534l-183 -534h366zM1242 1636h-264l-185 219l-184 -219h-260l321 393h251zM1604 2029l-208 -266h-179l124 266h263z" />
    <glyph glyph-name="uni1EA5" unicode="&#x1ea5;" horiz-adv-x="1368" 
d="M850 293v234q-73 -6 -158 -16.5t-129 -24.5q-54 -17 -82.5 -49.5t-28.5 -85.5q0 -35 6 -57t30 -42q23 -20 55 -29.5t100 -9.5q54 0 109.5 22t97.5 58zM850 119l-72 -53t-81 -49q-53 -24 -110 -35.5t-125 -11.5q-160 0 -268 99t-108 253q0 123 55 201t156 123
q100 45 248 64t307 28v6q0 93 -76 128.5t-224 35.5q-89 0 -190 -31.5t-145 -48.5h-33v271q57 15 185.5 35.5t257.5 20.5q307 0 443.5 -94.5t136.5 -296.5v-764h-357v119zM1105 1283h-264l-185 219l-184 -219h-260l321 393h251zM1467 1676l-208 -266h-179l124 266h263z" />
    <glyph glyph-name="uni1EA6" unicode="&#x1ea6;" horiz-adv-x="1590" 
d="M1566 0h-397l-103 301h-552l-103 -301h-387l550 1489h442zM973 574l-183 534l-183 -534h366zM1242 1636h-264l-185 219l-184 -219h-260l321 393h251zM374 1763h-179l-208 266h263z" />
    <glyph glyph-name="uni1EA7" unicode="&#x1ea7;" horiz-adv-x="1368" 
d="M850 293v234q-73 -6 -158 -16.5t-129 -24.5q-54 -17 -82.5 -49.5t-28.5 -85.5q0 -35 6 -57t30 -42q23 -20 55 -29.5t100 -9.5q54 0 109.5 22t97.5 58zM850 119l-72 -53t-81 -49q-53 -24 -110 -35.5t-125 -11.5q-160 0 -268 99t-108 253q0 123 55 201t156 123
q100 45 248 64t307 28v6q0 93 -76 128.5t-224 35.5q-89 0 -190 -31.5t-145 -48.5h-33v271q57 15 185.5 35.5t257.5 20.5q307 0 443.5 -94.5t136.5 -296.5v-764h-357v119zM1105 1283h-264l-185 219l-184 -219h-260l321 393h251zM237 1410h-179l-208 266h263z" />
    <glyph glyph-name="uni1EA8" unicode="&#x1ea8;" horiz-adv-x="1590" 
d="M1566 0h-397l-103 301h-552l-103 -301h-387l550 1489h442zM973 574l-183 534l-183 -534h366zM1227 1638h-259l-175 171l-174 -171h-255l311 331h241zM1572 1895q0 -73 -37.5 -109.5t-94.5 -56.5v-59h-178v112q47 12 71 36t24 63q0 24 -19 38.5t-52 14.5q-31 0 -49.5 -4.5
t-42.5 -13.5h-3v115q19 6 58 12t82 6q120 0 180.5 -46t60.5 -108z" />
    <glyph glyph-name="uni1EA9" unicode="&#x1ea9;" horiz-adv-x="1368" 
d="M850 293v234q-73 -6 -158 -16.5t-129 -24.5q-54 -17 -82.5 -49.5t-28.5 -85.5q0 -35 6 -57t30 -42q23 -20 55 -29.5t100 -9.5q54 0 109.5 22t97.5 58zM850 119l-72 -53t-81 -49q-53 -24 -110 -35.5t-125 -11.5q-160 0 -268 99t-108 253q0 123 55 201t156 123
q100 45 248 64t307 28v6q0 93 -76 128.5t-224 35.5q-89 0 -190 -31.5t-145 -48.5h-33v271q57 15 185.5 35.5t257.5 20.5q307 0 443.5 -94.5t136.5 -296.5v-764h-357v119zM1105 1283h-264l-185 219l-184 -219h-260l321 393h251zM1339 1720q0 -73 -37.5 -109.5t-94.5 -56.5
v-59h-178v112q47 12 71 36t24 63q0 24 -19 38.5t-52 14.5q-31 0 -49.5 -4.5t-42.5 -13.5h-3v115q19 6 58 12t82 6q120 0 180.5 -46t60.5 -108z" />
    <glyph glyph-name="uni1EAA" unicode="&#x1eaa;" horiz-adv-x="1590" 
d="M1566 0h-397l-103 301h-552l-103 -301h-387l550 1489h442zM973 574l-183 534l-183 -534h366zM1177 1596h-249l-135 79l-134 -79h-245l248 173h267zM1175 2049q-10 -81 -70.5 -147t-182.5 -66q-37 0 -73.5 10t-73.5 26q-41 18 -60.5 24.5t-39.5 6.5q-29 0 -48 -16t-27 -51
h-184q10 81 70.5 147t182.5 66q37 0 73.5 -10t73.5 -26q41 -18 60.5 -24.5t39.5 -6.5q29 0 48 16t27 51h184z" />
    <glyph glyph-name="uni1EAB" unicode="&#x1eab;" horiz-adv-x="1368" 
d="M850 293v234q-73 -6 -158 -16.5t-129 -24.5q-54 -17 -82.5 -49.5t-28.5 -85.5q0 -35 6 -57t30 -42q23 -20 55 -29.5t100 -9.5q54 0 109.5 22t97.5 58zM850 119l-72 -53t-81 -49q-53 -24 -110 -35.5t-125 -11.5q-160 0 -268 99t-108 253q0 123 55 201t156 123
q100 45 248 64t307 28v6q0 93 -76 128.5t-224 35.5q-89 0 -190 -31.5t-145 -48.5h-33v271q57 15 185.5 35.5t257.5 20.5q307 0 443.5 -94.5t136.5 -296.5v-764h-357v119zM1105 1283h-264l-185 219l-184 -219h-260l321 393h251zM1102 2049q-10 -169 -82.5 -250.5
t-202.5 -81.5q-47 0 -89.5 18.5t-77.5 39.5q-32 19 -69 38.5t-62 19.5q-49 0 -65.5 -32t-19.5 -90h-219q6 151 83.5 241t200.5 90q48 0 91 -18t79 -38l69 -37.5t59 -17.5q48 0 66 32t20 86h219z" />
    <glyph glyph-name="uni1EAC" unicode="&#x1eac;" horiz-adv-x="1590" 
d="M1566 0h-397l-103 301h-552l-103 -301h-387l550 1489h442zM973 574l-183 534l-183 -534h366zM1242 1636h-264l-185 219l-184 -219h-260l321 393h251zM994 -423h-370v273h370v-273z" />
    <glyph glyph-name="uni1EAD" unicode="&#x1ead;" horiz-adv-x="1368" 
d="M850 293v234q-73 -6 -158 -16.5t-129 -24.5q-54 -17 -82.5 -49.5t-28.5 -85.5q0 -35 6 -57t30 -42q23 -20 55 -29.5t100 -9.5q54 0 109.5 22t97.5 58zM850 119l-72 -53t-81 -49q-53 -24 -110 -35.5t-125 -11.5q-160 0 -268 99t-108 253q0 123 55 201t156 123
q100 45 248 64t307 28v6q0 93 -76 128.5t-224 35.5q-89 0 -190 -31.5t-145 -48.5h-33v271q57 15 185.5 35.5t257.5 20.5q307 0 443.5 -94.5t136.5 -296.5v-764h-357v119zM1105 1283h-264l-185 219l-184 -219h-260l321 393h251zM857 -423h-370v273h370v-273z" />
    <glyph glyph-name="uni1EAE" unicode="&#x1eae;" horiz-adv-x="1590" 
d="M1566 0h-397l-103 301h-552l-103 -301h-387l550 1489h442zM973 574l-183 534l-183 -534h366zM1175 1858q0 -88 -95.5 -175t-285.5 -87t-284 87.5t-94 174.5h212q0 -35 37.5 -75.5t130.5 -40.5q90 0 128.5 40.5t38.5 75.5h212zM1062 2049l-188 -206h-169l94 206h263z" />
    <glyph glyph-name="uni1EAF" unicode="&#x1eaf;" horiz-adv-x="1368" 
d="M850 293v234q-73 -6 -158 -16.5t-129 -24.5q-54 -17 -82.5 -49.5t-28.5 -85.5q0 -35 6 -57t30 -42q23 -20 55 -29.5t100 -9.5q54 0 109.5 22t97.5 58zM850 119l-72 -53t-81 -49q-53 -24 -110 -35.5t-125 -11.5q-160 0 -268 99t-108 253q0 123 55 201t156 123
q100 45 248 64t307 28v6q0 93 -76 128.5t-224 35.5q-89 0 -190 -31.5t-145 -48.5h-33v271q57 15 185.5 35.5t257.5 20.5q307 0 443.5 -94.5t136.5 -296.5v-764h-357v119zM1045 1636q0 -178 -101 -279.5t-285 -101.5t-285.5 96.5t-101.5 284.5h223q0 -103 40.5 -153.5
t123.5 -50.5q78 0 120.5 50.5t42.5 153.5h223zM940 1932l-208 -266h-179l124 266h263z" />
    <glyph glyph-name="uni1EB0" unicode="&#x1eb0;" horiz-adv-x="1590" 
d="M1566 0h-397l-103 301h-552l-103 -301h-387l550 1489h442zM973 574l-183 534l-183 -534h366zM1175 1858q0 -88 -95.5 -175t-285.5 -87t-284 87.5t-94 174.5h212q0 -35 37.5 -75.5t130.5 -40.5q90 0 128.5 40.5t38.5 75.5h212zM886 1843h-169l-188 206h263z" />
    <glyph glyph-name="uni1EB1" unicode="&#x1eb1;" horiz-adv-x="1368" 
d="M850 293v234q-73 -6 -158 -16.5t-129 -24.5q-54 -17 -82.5 -49.5t-28.5 -85.5q0 -35 6 -57t30 -42q23 -20 55 -29.5t100 -9.5q54 0 109.5 22t97.5 58zM850 119l-72 -53t-81 -49q-53 -24 -110 -35.5t-125 -11.5q-160 0 -268 99t-108 253q0 123 55 201t156 123
q100 45 248 64t307 28v6q0 93 -76 128.5t-224 35.5q-89 0 -190 -31.5t-145 -48.5h-33v271q57 15 185.5 35.5t257.5 20.5q307 0 443.5 -94.5t136.5 -296.5v-764h-357v119zM1045 1636q0 -178 -101 -279.5t-285 -101.5t-285.5 96.5t-101.5 284.5h223q0 -103 40.5 -153.5
t123.5 -50.5q78 0 120.5 50.5t42.5 153.5h223zM764 1666h-179l-208 266h263z" />
    <glyph glyph-name="uni1EB2" unicode="&#x1eb2;" horiz-adv-x="1590" 
d="M1566 0h-397l-103 301h-552l-103 -301h-387l550 1489h442zM973 574l-183 534l-183 -534h366zM1175 1858q0 -88 -95.5 -175t-285.5 -87t-284 87.5t-94 174.5h212q0 -35 37.5 -75.5t130.5 -40.5q90 0 128.5 40.5t38.5 75.5h212zM935 1945q0 -43 -23 -71t-69 -43v-47h-107
v84q24 5 44 17.5t20 35.5q0 18 -13 26.5t-34 8.5q-25 0 -38 -4t-27 -9h-2v93q14 5 39 9t52 4q72 0 115 -28.5t43 -75.5z" />
    <glyph glyph-name="uni1EB3" unicode="&#x1eb3;" horiz-adv-x="1368" 
d="M850 293v234q-73 -6 -158 -16.5t-129 -24.5q-54 -17 -82.5 -49.5t-28.5 -85.5q0 -35 6 -57t30 -42q23 -20 55 -29.5t100 -9.5q54 0 109.5 22t97.5 58zM850 119l-72 -53t-81 -49q-53 -24 -110 -35.5t-125 -11.5q-160 0 -268 99t-108 253q0 123 55 201t156 123
q100 45 248 64t307 28v6q0 93 -76 128.5t-224 35.5q-89 0 -190 -31.5t-145 -48.5h-33v271q57 15 185.5 35.5t257.5 20.5q307 0 443.5 -94.5t136.5 -296.5v-764h-357v119zM1045 1636q0 -178 -101 -279.5t-285 -101.5t-285.5 96.5t-101.5 284.5h223q0 -103 40.5 -153.5
t123.5 -50.5q78 0 120.5 50.5t42.5 153.5h223zM879 1831q0 -73 -37.5 -109.5t-94.5 -56.5v-59h-178v112q47 12 71 36t24 63q0 24 -19 38.5t-52 14.5q-31 0 -49.5 -4.5t-42.5 -13.5h-3v115q19 6 58 12t82 6q120 0 180.5 -46t60.5 -108z" />
    <glyph glyph-name="uni1EB4" unicode="&#x1eb4;" horiz-adv-x="1590" 
d="M1566 0h-397l-103 301h-552l-103 -301h-387l550 1489h442zM973 574l-183 534l-183 -534h366zM1175 1798q0 -88 -95.5 -145t-285.5 -57t-284 57.5t-94 144.5h212q0 -26 37.5 -46t130.5 -20q90 0 128.5 20t38.5 46h212zM1175 2049q-10 -81 -70.5 -142t-182.5 -61
q-37 0 -73.5 10t-73.5 26q-41 18 -60.5 24.5t-39.5 6.5q-29 0 -48 -16t-27 -51h-184q10 81 70.5 142t182.5 61q37 0 73.5 -10t73.5 -26q41 -18 60.5 -24.5t39.5 -6.5q29 0 48 16t27 51h184z" />
    <glyph glyph-name="uni1EB5" unicode="&#x1eb5;" horiz-adv-x="1368" 
d="M850 293v234q-73 -6 -158 -16.5t-129 -24.5q-54 -17 -82.5 -49.5t-28.5 -85.5q0 -35 6 -57t30 -42q23 -20 55 -29.5t100 -9.5q54 0 109.5 22t97.5 58zM850 119l-72 -53t-81 -49q-53 -24 -110 -35.5t-125 -11.5q-160 0 -268 99t-108 253q0 123 55 201t156 123
q100 45 248 64t307 28v6q0 93 -76 128.5t-224 35.5q-89 0 -190 -31.5t-145 -48.5h-33v271q57 15 185.5 35.5t257.5 20.5q307 0 443.5 -94.5t136.5 -296.5v-764h-357v119zM1045 1636q0 -178 -101 -279.5t-285 -101.5t-285.5 96.5t-101.5 284.5h223q0 -103 40.5 -153.5
t123.5 -50.5q78 0 120.5 50.5t42.5 153.5h223zM1102 2049q-10 -169 -82.5 -250.5t-202.5 -81.5q-47 0 -89.5 18.5t-77.5 39.5q-32 19 -69 38.5t-62 19.5q-49 0 -65.5 -32t-19.5 -90h-219q6 151 83.5 241t200.5 90q48 0 91 -18t79 -38l69 -37.5t59 -17.5q48 0 66 32t20 86
h219z" />
    <glyph glyph-name="uni1EB6" unicode="&#x1eb6;" horiz-adv-x="1590" 
d="M1566 0h-397l-103 301h-552l-103 -301h-387l550 1489h442zM973 574l-183 534l-183 -534h366zM1182 2009q0 -178 -101 -279.5t-285 -101.5t-285.5 96.5t-101.5 284.5h223q0 -103 40.5 -153.5t123.5 -50.5q78 0 120.5 50.5t42.5 153.5h223zM994 -423h-370v273h370v-273z
" />
    <glyph glyph-name="uni1EB7" unicode="&#x1eb7;" horiz-adv-x="1368" 
d="M850 293v234q-73 -6 -158 -16.5t-129 -24.5q-54 -17 -82.5 -49.5t-28.5 -85.5q0 -35 6 -57t30 -42q23 -20 55 -29.5t100 -9.5q54 0 109.5 22t97.5 58zM850 119l-72 -53t-81 -49q-53 -24 -110 -35.5t-125 -11.5q-160 0 -268 99t-108 253q0 123 55 201t156 123
q100 45 248 64t307 28v6q0 93 -76 128.5t-224 35.5q-89 0 -190 -31.5t-145 -48.5h-33v271q57 15 185.5 35.5t257.5 20.5q307 0 443.5 -94.5t136.5 -296.5v-764h-357v119zM1045 1636q0 -178 -101 -279.5t-285 -101.5t-285.5 96.5t-101.5 284.5h223q0 -103 40.5 -153.5
t123.5 -50.5q78 0 120.5 50.5t42.5 153.5h223zM857 -423h-370v273h370v-273z" />
    <glyph glyph-name="uni1EB8" unicode="&#x1eb8;" horiz-adv-x="1399" 
d="M1267 0h-1077v1489h1077v-288h-695v-257h645v-288h-645v-368h695v-288zM927 -423h-370v273h370v-273z" />
    <glyph glyph-name="uni1EB9" unicode="&#x1eb9;" horiz-adv-x="1360" 
d="M1276 495h-824q8 -132 100.5 -202t272.5 -70q114 0 221 41t169 88h40v-289q-122 -49 -230 -71t-239 -22q-338 0 -518 152t-180 433q0 278 170.5 440.5t467.5 162.5q274 0 412 -138.5t138 -398.5v-126zM918 706q-3 113 -56 170t-165 57q-104 0 -171 -54t-75 -173h467z
M948 -423h-370v273h370v-273z" />
    <glyph glyph-name="uni1EBA" unicode="&#x1eba;" horiz-adv-x="1399" 
d="M1267 0h-1077v1489h1077v-288h-695v-257h645v-288h-645v-368h695v-288zM919 1895q0 -73 -37.5 -109.5t-94.5 -56.5v-59h-178v112q47 12 71 36t24 63q0 24 -19 38.5t-52 14.5q-31 0 -49.5 -4.5t-42.5 -13.5h-3v115q19 6 58 12t82 6q120 0 180.5 -46t60.5 -108z" />
    <glyph glyph-name="uni1EBB" unicode="&#x1ebb;" horiz-adv-x="1360" 
d="M1276 495h-824q8 -132 100.5 -202t272.5 -70q114 0 221 41t169 88h40v-289q-122 -49 -230 -71t-239 -22q-338 0 -518 152t-180 433q0 278 170.5 440.5t467.5 162.5q274 0 412 -138.5t138 -398.5v-126zM918 706q-3 113 -56 170t-165 57q-104 0 -171 -54t-75 -173h467z
M954 1522q0 -73 -37.5 -109.5t-94.5 -56.5v-59h-178v112q47 12 71 36t24 63q0 24 -19 38.5t-52 14.5q-31 0 -49.5 -4.5t-42.5 -13.5h-3v115q19 6 58 12t82 6q120 0 180.5 -46t60.5 -108z" />
    <glyph glyph-name="uni1EBC" unicode="&#x1ebc;" horiz-adv-x="1399" 
d="M1267 0h-1077v1489h1077v-288h-695v-257h645v-288h-645v-368h695v-288zM1172 1991q-10 -169 -82.5 -250.5t-202.5 -81.5q-47 0 -89.5 18.5t-77.5 39.5q-31 19 -68.5 38.5t-62.5 19.5q-49 0 -65.5 -32t-19.5 -90h-219q6 151 83.5 241t200.5 90q48 0 91 -17.5t79 -38.5
l69 -37.5t59 -17.5q48 0 66 32t20 86h219z" />
    <glyph glyph-name="uni1EBD" unicode="&#x1ebd;" horiz-adv-x="1360" 
d="M1276 495h-824q8 -132 100.5 -202t272.5 -70q114 0 221 41t169 88h40v-289q-122 -49 -230 -71t-239 -22q-338 0 -518 152t-180 433q0 278 170.5 440.5t467.5 162.5q274 0 412 -138.5t138 -398.5v-126zM918 706q-3 113 -56 170t-165 57q-104 0 -171 -54t-75 -173h467z
M1151 1618q-10 -169 -82.5 -250.5t-202.5 -81.5q-47 0 -89.5 18.5t-77.5 39.5q-31 19 -68.5 38.5t-62.5 19.5q-49 0 -65.5 -32t-19.5 -90h-219q6 151 83.5 241t200.5 90q48 0 91 -17.5t79 -38.5l69 -37.5t59 -17.5q48 0 66 32t20 86h219z" />
    <glyph glyph-name="uni1EBE" unicode="&#x1ebe;" horiz-adv-x="1399" 
d="M1267 0h-1077v1489h1077v-288h-695v-257h645v-288h-645v-368h695v-288zM1175 1656h-264l-185 219l-184 -219h-260l321 393h251zM1537 2049l-208 -266h-179l124 266h263z" />
    <glyph glyph-name="uni1EBF" unicode="&#x1ebf;" horiz-adv-x="1360" 
d="M1276 495h-824q8 -132 100.5 -202t272.5 -70q114 0 221 41t169 88h40v-289q-122 -49 -230 -71t-239 -22q-338 0 -518 152t-180 433q0 278 170.5 440.5t467.5 162.5q274 0 412 -138.5t138 -398.5v-126zM918 706q-3 113 -56 170t-165 57q-104 0 -171 -54t-75 -173h467z
M1154 1283h-264l-185 219l-184 -219h-260l321 393h251zM1516 1676l-208 -266h-179l124 266h263z" />
    <glyph glyph-name="uni1EC0" unicode="&#x1ec0;" horiz-adv-x="1399" 
d="M1267 0h-1077v1489h1077v-288h-695v-257h645v-288h-645v-368h695v-288zM1175 1656h-264l-185 219l-184 -219h-260l321 393h251zM307 1783h-179l-208 266h263z" />
    <glyph glyph-name="uni1EC1" unicode="&#x1ec1;" horiz-adv-x="1360" 
d="M1276 495h-824q8 -132 100.5 -202t272.5 -70q114 0 221 41t169 88h40v-289q-122 -49 -230 -71t-239 -22q-338 0 -518 152t-180 433q0 278 170.5 440.5t467.5 162.5q274 0 412 -138.5t138 -398.5v-126zM918 706q-3 113 -56 170t-165 57q-104 0 -171 -54t-75 -173h467z
M1154 1283h-264l-185 219l-184 -219h-260l321 393h251zM286 1410h-179l-208 266h263z" />
    </font>
</defs>
</svg>
